{"glyphs":{"0":{"ha":2432,"x_min":0,"x_max":0,"o":"m 1303 949 b 1383 1010 1346 949 1374 967 b 1388 1081 1388 1031 1388 1056 b 1381 1214 1388 1122 1394 1175 b 1299 1258 1368 1247 1332 1258 b 1226 1206 1264 1257 1235 1243 b 1221 1071 1217 1165 1221 1114 b 1225 1014 1221 1053 1221 1033 b 1303 949 1231 971 1258 949 m 218 294 l 272 294 l 313 85 l 351 294 l 408 294 l 410 -42 l 363 -42 l 357 99 l 333 -42 l 294 -42 l 267 96 l 264 -42 l 214 -42 m 418 -368 b 461 -478 418 -407 406 -478 b 499 -419 496 -478 499 -444 l 479 -419 b 476 -449 479 -429 481 -439 b 447 -453 472 -462 451 -464 b 439 -397 436 -439 439 -411 b 444 -343 439 -383 436 -354 b 476 -344 451 -331 472 -331 b 479 -372 481 -354 479 -367 l 499 -372 b 467 -321 499 -350 499 -324 b 418 -368 432 -315 418 -340 m 454 294 l 497 294 l 554 135 l 554 294 l 607 294 l 607 -42 l 565 -42 l 507 124 l 507 -42 l 454 -42 m 518 -396 b 561 -478 518 -428 510 -478 b 604 -397 606 -478 604 -431 b 563 -321 604 -367 608 -324 b 518 -396 518 -314 518 -354 m 561 951 l 561 1093 b 644 1108 588 1093 624 1089 b 658 1222 679 1133 679 1186 b 586 1257 644 1253 615 1257 l 522 1257 l 522 951 m 524 718 b 532 644 524 689 524 665 b 635 604 547 603 600 589 b 688 769 700 625 688 717 l 688 908 l 644 908 l 644 797 l 644 699 b 588 632 644 664 633 618 b 563 704 561 646 563 679 l 563 908 l 524 908 l 524 718 m 539 -383 b 539 -362 539 -378 538 -368 b 571 -339 539 -344 549 -328 b 581 -406 586 -344 581 -387 b 549 -457 581 -425 585 -476 b 539 -383 532 -450 539 -400 m 561 1224 b 606 1222 576 1224 590 1228 b 632 1169 632 1215 632 1190 b 606 1126 632 1149 628 1132 b 561 1124 590 1122 576 1124 m 600 -282 l 600 -210 l 628 -210 l 628 -196 l 600 -196 l 600 -143 l 635 -143 l 635 -128 l 576 -128 l 576 -282 m 643 -476 l 643 -362 l 668 -476 l 685 -476 l 710 -362 l 710 -476 l 725 -476 l 724 -321 l 701 -321 l 676 -444 l 649 -321 l 624 -321 l 624 -476 m 644 19 l 701 19 l 701 -42 l 644 -42 m 649 -200 b 692 -283 649 -233 644 -283 b 735 -206 735 -283 735 -239 b 696 -124 735 -175 739 -129 b 649 -200 649 -122 649 -162 m 671 -171 b 701 -144 671 -151 685 -133 b 714 -211 719 -151 714 -196 b 685 -268 714 -233 714 -275 b 671 -196 661 -258 671 -210 m 821 951 l 821 981 l 743 981 l 743 1093 l 804 1093 l 804 1124 l 743 1124 l 743 1224 l 818 1224 l 818 1257 l 701 1257 l 701 951 m 719 688 b 801 601 724 639 753 601 b 872 693 853 601 882 646 b 811 775 867 732 839 751 b 763 851 786 797 753 817 b 801 875 767 869 782 881 b 836 818 828 871 835 842 l 868 832 b 843 897 868 856 863 883 b 768 908 821 910 790 913 b 733 793 719 894 710 832 b 793 735 747 771 775 751 b 828 701 810 726 818 713 b 825 640 839 685 843 654 b 776 644 811 626 788 631 b 761 699 763 657 763 679 l 719 688 m 775 79 b 788 19 775 61 775 39 b 808 8 793 13 799 4 b 824 38 819 13 824 22 b 771 121 824 72 790 99 b 740 156 760 135 744 143 b 726 233 726 176 721 206 b 831 292 728 282 783 314 b 875 185 871 274 875 225 l 824 182 b 801 247 819 204 824 243 b 778 204 775 249 774 217 b 810 165 785 185 799 176 l 836 135 b 876 22 868 103 881 67 b 818 -46 875 -7 854 -36 b 736 -6 785 -50 750 -36 b 722 76 726 19 722 47 m 768 -476 l 771 -362 l 793 -476 l 810 -476 l 836 -362 l 839 -476 l 853 -476 l 850 -321 l 829 -321 l 801 -444 l 775 -321 l 753 -321 l 753 -476 m 776 -282 l 776 -210 l 793 -210 l 814 -282 l 839 -282 l 814 -206 b 814 -132 844 -196 839 -144 b 757 -128 797 -122 775 -128 l 757 -282 m 793 369 l 793 444 b 839 454 810 444 824 443 b 844 513 850 465 850 496 b 772 531 831 535 793 531 l 772 369 m 776 -143 b 814 -168 797 -143 814 -144 b 776 -196 814 -192 796 -196 m 793 517 b 828 492 814 517 828 517 b 815 461 828 479 828 468 b 793 458 811 458 800 458 m 897 951 l 897 1094 l 929 1094 l 971 951 l 1010 951 l 971 1104 b 972 1244 1021 1122 1017 1218 b 853 1257 939 1261 892 1257 l 853 951 m 925 369 l 925 388 l 883 388 l 883 531 l 867 531 l 867 369 m 939 -476 l 939 -462 l 900 -462 l 900 -400 l 932 -400 l 932 -383 l 900 -383 l 900 -336 l 939 -336 l 939 -321 l 878 -321 l 878 -476 m 915 -143 l 915 -282 l 939 -282 l 939 -143 l 968 -143 l 968 -128 l 888 -128 l 888 -143 m 897 1224 b 940 1219 910 1224 925 1228 b 963 1179 960 1214 963 1196 b 940 1126 967 1156 960 1136 b 897 1124 925 1124 910 1124 m 903 128 b 904 225 903 161 900 194 b 953 294 908 253 924 282 b 1028 288 978 301 1007 301 b 1064 176 1067 264 1064 213 l 1010 176 b 992 247 1010 235 1007 240 b 961 201 967 250 961 226 l 961 79 b 981 8 961 63 954 17 b 1014 85 1019 -7 1014 67 l 981 85 l 981 135 l 1067 135 l 1067 -42 l 1024 -42 l 1021 -31 b 939 -35 1000 -50 961 -50 b 904 33 915 -24 907 8 b 903 128 900 67 903 96 m 1028 604 l 1028 631 l 950 631 l 950 744 l 1011 744 l 1011 775 l 950 775 l 950 874 l 1028 874 l 1028 908 l 910 908 l 910 604 m 1000 369 l 1000 388 l 960 388 l 960 444 l 993 444 l 993 461 l 960 461 l 960 517 l 1000 517 l 1000 531 l 940 531 l 940 369 m 978 -476 l 978 -400 l 996 -400 l 1014 -476 l 1035 -476 l 1011 -397 b 1014 -325 1039 -387 1036 -339 b 954 -321 997 -315 976 -321 l 954 -476 m 978 -336 b 1011 -362 997 -336 1011 -339 b 978 -383 1011 -383 997 -383 m 999 -282 l 999 -210 l 1040 -210 l 1040 -282 l 1063 -282 l 1063 -128 l 1040 -128 l 1040 -196 l 999 -196 l 999 -128 l 978 -128 l 978 -282 m 1031 369 l 1035 413 l 1068 413 l 1076 369 l 1097 369 l 1067 531 l 1044 531 l 1010 369 m 1054 500 l 1067 426 l 1036 426 m 1036 1036 b 1121 949 1039 988 1068 949 b 1192 1042 1172 949 1201 993 b 1131 1124 1183 1076 1156 1099 b 1079 1201 1106 1142 1074 1165 b 1121 1228 1082 1218 1101 1228 b 1156 1169 1146 1219 1150 1190 l 1188 1181 b 1160 1244 1185 1204 1179 1232 b 1088 1253 1142 1258 1107 1261 b 1053 1138 1036 1243 1028 1181 b 1110 1083 1067 1118 1093 1099 b 1144 1049 1128 1069 1136 1057 b 1144 990 1158 1031 1160 1000 b 1093 993 1131 976 1107 979 b 1078 1047 1082 1004 1079 1024 l 1036 1036 m 1054 -368 b 1093 -478 1054 -407 1039 -478 b 1135 -419 1131 -478 1135 -444 l 1111 -419 b 1110 -449 1111 -429 1117 -439 b 1079 -453 1107 -462 1088 -464 b 1074 -397 1068 -439 1074 -411 b 1079 -343 1074 -383 1068 -354 b 1110 -344 1088 -331 1107 -331 b 1111 -372 1117 -354 1111 -367 l 1135 -372 b 1101 -321 1135 -350 1132 -324 b 1054 -368 1067 -315 1054 -340 m 1168 338 l 1221 338 l 1125 -83 l 1078 -83 m 1144 -282 l 1144 -271 l 1107 -271 l 1107 -210 l 1139 -210 l 1139 -196 l 1107 -196 l 1107 -143 l 1144 -143 l 1144 -128 l 1083 -128 l 1083 -282 m 1107 415 b 1150 369 1110 392 1125 369 b 1185 422 1178 369 1193 396 b 1150 461 1183 440 1164 453 b 1131 503 1142 472 1125 486 b 1156 517 1132 517 1144 518 b 1167 486 1163 507 1164 496 l 1185 489 b 1163 526 1185 503 1178 521 b 1121 522 1150 532 1132 531 b 1131 456 1097 503 1110 472 b 1167 407 1142 443 1167 426 b 1142 388 1167 393 1158 386 b 1131 422 1131 393 1131 411 l 1107 415 m 1142 728 b 1144 664 1142 704 1142 685 b 1226 601 1150 622 1183 601 b 1303 661 1268 601 1297 621 b 1306 735 1311 685 1306 707 b 1299 867 1306 774 1317 826 b 1219 908 1288 899 1258 910 b 1146 857 1185 908 1158 894 b 1142 728 1136 817 1142 769 m 1178 -476 l 1178 -321 l 1158 -321 l 1158 -476 m 1185 751 b 1185 849 1185 783 1179 818 b 1217 875 1192 867 1199 874 b 1254 867 1226 881 1242 875 b 1264 817 1268 853 1264 835 l 1264 707 b 1264 675 1264 699 1268 685 b 1242 636 1263 661 1258 644 b 1203 636 1232 631 1217 631 b 1185 699 1183 646 1185 675 m 1217 -476 l 1225 -435 l 1258 -435 l 1263 -476 l 1283 -476 l 1249 -321 l 1226 -321 l 1193 -476 m 1268 369 l 1268 388 l 1226 388 l 1226 444 l 1258 444 l 1258 461 l 1226 461 l 1226 517 l 1264 517 l 1264 531 l 1203 531 l 1203 369 m 1226 -282 l 1226 -210 l 1258 -210 l 1258 -196 l 1226 -196 l 1226 -143 l 1269 -143 l 1269 -128 l 1211 -128 l 1211 -282 m 1214 126 b 1217 224 1214 158 1213 192 b 1267 293 1219 251 1232 282 b 1340 286 1289 300 1319 299 b 1376 174 1379 263 1376 211 l 1322 174 b 1301 244 1322 232 1313 242 b 1272 228 1292 247 1275 243 b 1271 158 1269 208 1271 178 l 1271 78 b 1292 7 1271 61 1268 15 b 1325 82 1332 -7 1325 65 l 1292 82 l 1292 133 l 1379 133 l 1379 -43 l 1333 -43 l 1331 -31 b 1250 -36 1313 -51 1274 -50 b 1217 32 1229 -24 1218 7 b 1214 126 1214 65 1214 94 m 1240 -350 l 1254 -424 l 1226 -424 m 1264 1099 b 1268 1196 1264 1128 1258 1169 b 1297 1224 1272 1214 1281 1222 b 1332 1214 1311 1228 1322 1228 b 1346 1163 1346 1201 1346 1181 l 1346 1024 b 1324 983 1344 1008 1342 993 b 1288 983 1315 979 1297 979 b 1264 1044 1263 994 1264 1024 m 1283 -244 b 1336 -282 1288 -275 1307 -290 b 1364 -197 1367 -271 1364 -224 l 1364 -128 l 1346 -128 l 1346 -196 b 1322 -271 1346 -214 1351 -271 b 1301 -196 1294 -271 1301 -214 l 1301 -128 l 1283 -128 l 1283 -210 b 1283 -244 1283 -219 1281 -233 m 1360 -476 l 1360 -462 l 1319 -462 l 1319 -321 l 1299 -321 l 1299 -476 m 1354 369 l 1374 369 l 1407 531 l 1388 531 l 1364 415 l 1342 531 l 1319 531 m 1383 604 l 1383 810 l 1474 604 l 1504 604 l 1504 908 l 1465 908 l 1465 704 l 1379 908 l 1351 908 l 1351 604 m 1446 -282 l 1446 -271 l 1411 -271 l 1411 -128 l 1388 -128 l 1388 -282 m 1406 293 l 1504 293 b 1564 206 1529 293 1564 268 b 1525 113 1564 174 1554 133 l 1561 -43 l 1506 -43 l 1476 103 l 1461 103 l 1461 -43 l 1406 -43 m 1446 -476 l 1464 -476 l 1499 -321 l 1479 -321 l 1456 -435 l 1431 -321 l 1413 -321 m 1446 369 l 1446 531 l 1424 531 l 1424 369 m 1465 951 l 1465 1156 l 1551 951 l 1579 951 l 1579 1257 l 1542 1257 l 1542 1053 l 1458 1257 l 1431 1257 l 1431 951 m 1490 150 b 1479 244 1510 161 1513 244 l 1461 244 l 1461 150 m 1524 -282 l 1524 -271 l 1485 -271 l 1485 -128 l 1464 -128 l 1464 -282 m 1468 415 b 1508 369 1469 392 1479 369 b 1542 422 1536 369 1550 396 b 1511 461 1540 440 1522 453 b 1490 503 1501 472 1479 486 b 1511 517 1493 517 1507 518 b 1524 486 1522 507 1522 496 l 1542 489 b 1522 526 1540 503 1536 521 b 1479 522 1511 532 1493 531 b 1488 456 1456 503 1469 472 b 1524 407 1504 443 1526 426 b 1504 388 1524 393 1515 386 b 1488 422 1493 393 1488 411 l 1468 415 m 1576 -476 l 1576 -462 l 1538 -462 l 1538 -400 l 1569 -400 l 1569 -383 l 1538 -383 l 1538 -336 l 1576 -336 l 1576 -321 l 1515 -321 l 1515 -476 m 1667 604 l 1667 631 l 1590 631 l 1590 908 l 1550 908 l 1550 604 m 1585 369 l 1585 531 l 1564 531 l 1564 369 m 1594 -282 l 1604 -243 l 1636 -243 l 1643 -282 l 1665 -282 l 1632 -128 l 1607 -128 l 1576 -282 m 1586 293 l 1717 293 l 1717 236 l 1642 236 l 1642 163 l 1703 163 l 1703 103 l 1642 103 l 1642 14 l 1717 14 l 1717 -43 l 1586 -43 m 1617 -476 l 1617 -400 l 1631 -400 l 1651 -476 l 1672 -476 l 1650 -399 b 1654 -325 1675 -389 1675 -339 b 1593 -321 1636 -315 1613 -321 l 1593 -476 m 1629 517 l 1629 369 l 1647 369 l 1647 517 l 1672 517 l 1672 531 l 1599 531 l 1599 517 m 1619 -157 l 1633 -228 l 1607 -228 m 1650 951 l 1665 1024 l 1728 1024 l 1742 951 l 1782 951 l 1718 1257 l 1675 1257 l 1611 951 m 1617 -336 b 1650 -362 1636 -336 1650 -339 b 1617 -383 1650 -383 1636 -383 m 1699 1196 l 1722 1056 l 1671 1056 m 1700 -282 l 1700 -176 l 1742 -282 l 1757 -282 l 1757 -128 l 1738 -128 l 1738 -229 l 1693 -128 l 1679 -128 l 1679 -282 m 1722 771 b 1743 713 1732 751 1738 735 b 1743 665 1746 699 1743 679 l 1743 604 l 1786 604 l 1786 678 b 1789 718 1786 689 1782 704 l 1810 779 b 1851 908 1824 824 1838 867 l 1810 908 l 1764 761 l 1718 908 l 1679 908 m 1689 -431 b 1732 -478 1690 -457 1704 -478 b 1764 -429 1760 -478 1772 -453 b 1733 -383 1764 -407 1746 -397 b 1713 -344 1722 -372 1704 -362 b 1736 -336 1717 -336 1724 -331 b 1747 -367 1746 -340 1746 -354 l 1764 -358 b 1746 -324 1764 -343 1760 -328 b 1703 -328 1733 -315 1717 -318 b 1708 -396 1679 -343 1690 -376 b 1747 -440 1722 -406 1747 -424 b 1722 -457 1747 -454 1738 -464 b 1708 -428 1713 -453 1708 -436 l 1689 -431 m 1790 293 l 1844 293 l 1901 -43 l 1846 -43 l 1835 38 l 1799 38 l 1786 -43 l 1729 -43 m 1782 -282 b 1843 -272 1799 -282 1828 -286 b 1860 -206 1867 -261 1860 -228 b 1851 -137 1860 -183 1867 -151 b 1782 -128 1829 -122 1800 -128 l 1782 -282 m 1804 -476 l 1804 -321 l 1786 -321 l 1786 -476 m 1803 -143 b 1839 -165 1824 -143 1838 -143 l 1839 -244 b 1803 -271 1833 -271 1819 -271 m 1825 85 l 1815 153 l 1807 85 m 1933 951 l 1933 981 l 1857 981 l 1857 1257 l 1814 1257 l 1814 951 m 1828 -396 b 1872 -478 1828 -428 1825 -478 b 1914 -397 1918 -478 1914 -431 b 1876 -321 1914 -367 1921 -324 b 1828 -396 1828 -314 1828 -354 m 1856 -362 b 1885 -339 1856 -344 1861 -328 b 1894 -406 1899 -344 1894 -387 b 1861 -457 1894 -425 1896 -476 b 1856 -383 1843 -450 1856 -400 m 1914 604 l 1914 646 l 1872 646 l 1872 604 m 1886 668 l 1900 668 l 1914 908 l 1872 908 m 1917 293 l 1969 293 b 2064 188 2039 293 2064 258 l 2064 63 b 1976 -43 2064 -11 2039 -43 l 1917 -43 m 1953 -476 l 1953 -368 l 2000 -476 l 2015 -476 l 2015 -321 l 1999 -321 l 1999 -425 l 1953 -321 l 1939 -321 l 1939 -476 m 1989 8 b 2004 28 1997 14 2004 19 b 2007 78 2007 43 2007 61 l 2007 168 b 2004 215 2007 183 2007 201 b 1989 236 2004 224 1997 236 l 1969 236 l 1969 8 m 2128 293 l 2151 158 l 2175 293 l 2233 293 l 2176 92 l 2176 -43 l 2121 -43 l 2121 101 l 2071 293 "}," ":{"ha":379,"x_min":0,"x_max":0,"o":""},"A":{"ha":1093,"x_min":0,"x_max":0,"o":"m 1074 -258 b 781 104 926 -258 838 -160 b 463 228 696 146 626 176 b 128 -160 394 -87 250 -178 b 147 132 -44 -135 -8 104 b 329 267 186 86 272 104 b 29 282 214 296 104 308 b 422 483 -71 521 121 672 b 558 801 474 608 536 743 b 447 858 536 842 506 868 b 717 968 433 946 578 1042 b 1099 28 972 833 1022 132 b 1160 15 1122 -4 1151 -4 b 1074 -258 1293 -29 1247 -258 m 517 411 b 761 217 613 339 667 296 b 615 717 717 440 682 588 b 517 411 575 613 538 499 "},"Á":{"ha":1093,"x_min":0,"x_max":0,"o":"m 1074 -258 b 781 104 926 -258 838 -160 b 463 228 696 146 626 176 b 128 -160 394 -87 250 -178 b 147 132 -44 -135 -8 104 b 329 267 186 86 272 104 b 29 282 214 296 104 308 b 422 483 -71 521 121 672 b 558 801 474 608 536 743 b 447 858 536 842 506 868 b 717 968 433 946 578 1042 b 1099 28 972 833 1022 132 b 1160 15 1122 -4 1151 -4 b 1074 -258 1293 -29 1247 -258 m 399 1096 b 603 1204 454 1096 511 1114 b 935 1239 758 1358 879 1286 l 699 1072 b 399 1096 565 978 454 1040 m 517 411 b 761 217 613 339 667 296 b 615 717 717 440 682 588 b 517 411 575 613 538 499 "},"Ă":{"ha":1093,"x_min":0,"x_max":0,"o":"m 1074 -258 b 781 104 926 -258 838 -160 b 463 228 696 146 626 176 b 128 -160 394 -87 250 -178 b 147 132 -44 -135 -8 104 b 329 267 186 86 272 104 b 29 282 214 296 104 308 b 422 483 -71 521 121 672 b 558 801 474 608 536 743 b 447 858 536 842 506 868 b 717 968 433 946 578 1042 b 1099 28 972 833 1022 132 b 1160 15 1122 -4 1151 -4 b 1074 -258 1293 -29 1247 -258 m 517 411 b 761 217 613 339 667 296 b 615 717 717 440 682 588 b 517 411 575 613 538 499 m 560 1246 b 671 1133 560 1183 610 1133 b 782 1246 732 1133 782 1183 b 667 1035 1013 1289 954 1035 b 560 1246 354 1035 340 1285 "},"Ắ":{"ha":1093,"x_min":0,"x_max":0,"o":"m 1074 -258 b 781 104 926 -258 838 -160 b 463 228 696 146 626 176 b 128 -160 394 -87 250 -178 b 147 132 -44 -135 -8 104 b 329 267 186 86 272 104 b 29 282 214 296 104 308 b 422 483 -71 521 121 672 b 558 801 474 608 536 743 b 447 858 536 842 506 868 b 717 968 433 946 578 1042 b 1099 28 972 833 1022 132 b 1160 15 1122 -4 1151 -4 b 1074 -258 1293 -29 1247 -258 m 399 1185 b 603 1247 454 1185 511 1196 b 935 1267 758 1335 879 1293 l 699 1172 b 399 1185 565 1118 454 1154 m 517 411 b 761 217 613 339 667 296 b 615 717 717 440 682 588 b 517 411 575 613 538 499 m 560 1132 b 671 1068 560 1097 610 1068 b 782 1132 732 1068 782 1097 b 667 1013 1013 1157 954 1013 b 560 1132 354 1013 340 1154 "},"Ặ":{"ha":1093,"x_min":0,"x_max":0,"o":"m 1074 -258 b 781 104 926 -258 838 -160 b 463 228 696 146 626 176 b 128 -160 394 -87 250 -178 b 147 132 -44 -135 -8 104 b 329 267 186 86 272 104 b 29 282 214 296 104 308 b 422 483 -71 521 121 672 b 558 801 474 608 536 743 b 447 858 536 842 506 868 b 717 968 433 946 578 1042 b 1099 28 972 833 1022 132 b 1160 15 1122 -4 1151 -4 b 1074 -258 1293 -29 1247 -258 m 456 -172 b 582 -46 456 -103 513 -46 b 708 -172 651 -46 708 -103 b 582 -300 708 -243 651 -300 b 456 -172 513 -300 456 -243 m 517 411 b 761 217 613 339 667 296 b 615 717 717 440 682 588 b 517 411 575 613 538 499 m 560 1246 b 671 1133 560 1183 610 1133 b 782 1246 732 1133 782 1183 b 667 1035 1013 1289 954 1035 b 560 1246 354 1035 340 1285 "},"Ằ":{"ha":1093,"x_min":0,"x_max":0,"o":"m 1074 -258 b 781 104 926 -258 838 -160 b 463 228 696 146 626 176 b 128 -160 394 -87 250 -178 b 147 132 -44 -135 -8 104 b 329 267 186 86 272 104 b 29 282 214 296 104 308 b 422 483 -71 521 121 672 b 558 801 474 608 536 743 b 447 858 536 842 506 868 b 717 968 433 946 578 1042 b 1099 28 972 833 1022 132 b 1160 15 1122 -4 1151 -4 b 1074 -258 1293 -29 1247 -258 m 385 1285 b 718 1264 481 1329 578 1358 b 921 1197 797 1210 868 1201 b 622 1182 892 1163 786 1121 b 385 1285 494 1231 436 1260 m 517 411 b 761 217 613 339 667 296 b 615 717 717 440 682 588 b 517 411 575 613 538 499 m 560 1144 b 671 1075 560 1106 610 1075 b 782 1144 732 1075 782 1106 b 667 1014 1013 1171 954 1014 b 560 1144 354 1014 340 1168 "},"Ẳ":{"ha":1093,"x_min":0,"x_max":0,"o":"m 1074 -258 b 781 104 926 -258 838 -160 b 463 228 696 146 626 176 b 128 -160 394 -87 250 -178 b 147 132 -44 -135 -8 104 b 329 267 186 86 272 104 b 29 282 214 296 104 308 b 422 483 -71 521 121 672 b 558 801 474 608 536 743 b 447 858 536 842 506 868 b 717 968 433 946 578 1042 b 1099 28 972 833 1022 132 b 1160 15 1122 -4 1151 -4 b 1074 -258 1293 -29 1247 -258 m 503 1256 b 810 1339 503 1379 719 1442 b 689 1158 863 1279 811 1208 l 610 1163 b 503 1256 760 1226 619 1325 m 517 411 b 761 217 613 339 667 296 b 615 717 717 440 682 588 b 517 411 575 613 538 499 m 560 1150 b 671 1079 560 1111 610 1079 b 782 1150 732 1079 782 1111 b 667 1017 1013 1178 954 1017 b 560 1150 354 1017 340 1175 "},"Ẵ":{"ha":1093,"x_min":0,"x_max":0,"o":"m 1074 -258 b 781 104 926 -258 838 -160 b 463 228 696 146 626 176 b 128 -160 394 -87 250 -178 b 147 132 -44 -135 -8 104 b 329 267 186 86 272 104 b 29 282 214 296 104 308 b 422 483 -71 521 121 672 b 558 801 474 608 536 743 b 447 858 536 842 506 868 b 717 968 433 946 578 1042 b 1099 28 972 833 1022 132 b 1160 15 1122 -4 1151 -4 b 1074 -258 1293 -29 1247 -258 m 475 1147 b 736 1256 293 1233 492 1350 b 826 1285 821 1222 843 1261 b 604 1174 1038 1239 900 1064 b 475 1147 499 1213 469 1172 m 517 411 b 761 217 613 339 667 296 b 615 717 717 440 682 588 b 517 411 575 613 538 499 m 560 1132 b 671 1068 560 1096 610 1068 b 782 1132 732 1068 782 1096 b 667 1011 1013 1157 954 1011 b 560 1132 354 1011 340 1154 "},"Ǎ":{"ha":1093,"x_min":0,"x_max":0,"o":"m 1074 -258 b 781 104 926 -258 838 -160 b 463 228 696 146 626 176 b 128 -160 394 -87 250 -178 b 147 132 -44 -135 -8 104 b 329 267 186 86 272 104 b 29 282 214 296 104 308 b 422 483 -71 521 121 672 b 558 801 474 608 536 743 b 447 858 536 842 506 868 b 717 968 433 946 578 1042 b 1099 28 972 833 1022 132 b 1160 15 1122 -4 1151 -4 b 1074 -258 1293 -29 1247 -258 m 411 1181 b 664 1181 424 1247 542 1324 b 925 1196 724 1236 810 1339 b 654 1018 846 1164 731 1022 b 411 1181 578 1014 514 1181 m 517 411 b 761 217 613 339 667 296 b 615 717 717 440 682 588 b 517 411 575 613 538 499 "},"Â":{"ha":1093,"x_min":0,"x_max":0,"o":"m 1074 -258 b 781 104 926 -258 838 -160 b 463 228 696 146 626 176 b 128 -160 394 -87 250 -178 b 147 132 -44 -135 -8 104 b 329 267 186 86 272 104 b 29 282 214 296 104 308 b 422 483 -71 521 121 672 b 558 801 474 608 536 743 b 447 858 536 842 506 868 b 717 968 433 946 578 1042 b 1099 28 972 833 1022 132 b 1160 15 1122 -4 1151 -4 b 1074 -258 1293 -29 1247 -258 m 410 1076 b 669 1274 489 1108 593 1269 b 924 1092 746 1278 821 1092 b 671 1092 911 1025 793 949 b 410 1076 611 1036 525 933 m 517 411 b 761 217 613 339 667 296 b 615 717 717 440 682 588 b 517 411 575 613 538 499 "},"Ấ":{"ha":1093,"x_min":0,"x_max":0,"o":"m 1074 -258 b 781 104 926 -258 838 -160 b 463 228 696 146 626 176 b 128 -160 394 -87 250 -178 b 147 132 -44 -135 -8 104 b 329 267 186 86 272 104 b 29 282 214 296 104 308 b 422 483 -71 521 121 672 b 558 801 474 608 536 743 b 447 858 536 842 506 868 b 717 968 433 946 578 1042 b 1099 28 972 833 1022 132 b 1160 15 1122 -4 1151 -4 b 1074 -258 1293 -29 1247 -258 m 399 1192 b 603 1253 454 1192 511 1201 b 935 1272 758 1339 879 1299 l 699 1178 b 399 1192 565 1125 454 1160 m 410 1035 b 669 1146 489 1053 593 1143 b 924 1043 746 1149 821 1043 b 671 1043 911 1006 793 964 b 410 1035 611 1013 525 954 m 517 411 b 761 217 613 339 667 296 b 615 717 717 440 682 588 b 517 411 575 613 538 499 "},"Ậ":{"ha":1093,"x_min":0,"x_max":0,"o":"m 1074 -258 b 781 104 926 -258 838 -160 b 463 228 696 146 626 176 b 128 -160 394 -87 250 -178 b 147 132 -44 -135 -8 104 b 329 267 186 86 272 104 b 29 282 214 296 104 308 b 422 483 -71 521 121 672 b 558 801 474 608 536 743 b 447 858 536 842 506 868 b 717 968 433 946 578 1042 b 1099 28 972 833 1022 132 b 1160 15 1122 -4 1151 -4 b 1074 -258 1293 -29 1247 -258 m 410 1076 b 669 1274 489 1108 593 1269 b 924 1092 746 1278 821 1092 b 671 1092 911 1025 793 949 b 410 1076 611 1036 525 933 m 456 -172 b 582 -46 456 -103 513 -46 b 708 -172 651 -46 708 -103 b 582 -300 708 -243 651 -300 b 456 -172 513 -300 456 -243 m 517 411 b 761 217 613 339 667 296 b 615 717 717 440 682 588 b 517 411 575 613 538 499 "},"Ầ":{"ha":1093,"x_min":0,"x_max":0,"o":"m 1074 -258 b 781 104 926 -258 838 -160 b 463 228 696 146 626 176 b 128 -160 394 -87 250 -178 b 147 132 -44 -135 -8 104 b 329 267 186 86 272 104 b 29 282 214 296 104 308 b 422 483 -71 521 121 672 b 558 801 474 608 536 743 b 447 858 536 842 506 868 b 717 968 433 946 578 1042 b 1099 28 972 833 1022 132 b 1160 15 1122 -4 1151 -4 b 1074 -258 1293 -29 1247 -258 m 385 1278 b 718 1257 481 1319 578 1347 b 921 1194 797 1207 868 1199 b 622 1181 892 1163 786 1122 b 385 1278 494 1226 436 1254 m 410 1038 b 669 1153 489 1056 593 1150 b 924 1046 746 1154 821 1046 b 671 1046 911 1007 793 963 b 410 1038 611 1014 525 954 m 517 411 b 761 217 613 339 667 296 b 615 717 717 440 682 588 b 517 411 575 613 538 499 "},"Ẩ":{"ha":1093,"x_min":0,"x_max":0,"o":"m 1074 -258 b 781 104 926 -258 838 -160 b 463 228 696 146 626 176 b 128 -160 394 -87 250 -178 b 147 132 -44 -135 -8 104 b 329 267 186 86 272 104 b 29 282 214 296 104 308 b 422 483 -71 521 121 672 b 558 801 474 608 536 743 b 447 858 536 842 506 868 b 717 968 433 946 578 1042 b 1099 28 972 833 1022 132 b 1160 15 1122 -4 1151 -4 b 1074 -258 1293 -29 1247 -258 m 410 1040 b 642 1160 479 1058 569 1139 l 610 1161 b 503 1222 760 1203 619 1268 b 810 1276 503 1303 719 1344 b 699 1160 861 1239 814 1193 b 924 1050 765 1139 833 1050 b 671 1050 911 1008 793 961 b 410 1040 611 1015 525 951 m 517 411 b 761 217 613 339 667 296 b 615 717 717 440 682 588 b 517 411 575 613 538 499 "},"Ẫ":{"ha":1093,"x_min":0,"x_max":0,"o":"m 1074 -258 b 781 104 926 -258 838 -160 b 463 228 696 146 626 176 b 128 -160 394 -87 250 -178 b 147 132 -44 -135 -8 104 b 329 267 186 86 272 104 b 29 282 214 296 104 308 b 422 483 -71 521 121 672 b 558 801 474 608 536 743 b 447 858 536 842 506 868 b 717 968 433 946 578 1042 b 1099 28 972 833 1022 132 b 1160 15 1122 -4 1151 -4 b 1074 -258 1293 -29 1247 -258 m 410 1039 b 669 1160 489 1058 593 1157 b 924 1049 746 1163 821 1049 b 671 1049 911 1007 793 961 b 410 1039 611 1014 525 951 m 475 1168 b 736 1283 293 1260 492 1385 b 826 1315 821 1247 843 1290 b 604 1197 1038 1267 900 1079 b 475 1168 499 1239 469 1194 m 517 411 b 761 217 613 339 667 296 b 615 717 717 440 682 588 b 517 411 575 613 538 499 "},"Ä":{"ha":1093,"x_min":0,"x_max":0,"o":"m 1074 -258 b 781 104 926 -258 838 -160 b 463 228 696 146 626 176 b 128 -160 394 -87 250 -178 b 147 132 -44 -135 -8 104 b 329 267 186 86 272 104 b 29 282 214 296 104 308 b 422 483 -71 521 121 672 b 558 801 474 608 536 743 b 447 858 536 842 506 868 b 717 968 433 946 578 1042 b 1099 28 972 833 1022 132 b 1160 15 1122 -4 1151 -4 b 1074 -258 1293 -29 1247 -258 m 378 1165 b 508 1296 378 1238 436 1296 b 639 1165 579 1296 639 1238 b 508 1035 639 1093 579 1035 b 378 1165 436 1035 378 1093 m 517 411 b 761 217 613 339 667 296 b 615 717 717 440 682 588 b 517 411 575 613 538 499 m 694 1165 b 825 1296 694 1238 754 1296 b 956 1165 897 1296 956 1238 b 825 1035 956 1093 897 1035 b 694 1165 754 1035 694 1093 "},"Ǟ":{"ha":1093,"x_min":0,"x_max":0,"o":"m 1074 -258 b 781 104 926 -258 838 -160 b 463 228 696 146 626 176 b 128 -160 394 -87 250 -178 b 147 132 -44 -135 -8 104 b 329 267 186 86 272 104 b 29 282 214 296 104 308 b 422 483 -71 521 121 672 b 558 801 474 608 536 743 b 447 858 536 842 506 868 b 717 968 433 946 578 1042 b 1099 28 972 833 1022 132 b 1160 15 1122 -4 1151 -4 b 1074 -258 1293 -29 1247 -258 m 378 1135 b 508 1243 378 1194 436 1243 b 639 1135 579 1243 639 1194 b 508 1026 639 1075 579 1026 b 378 1135 436 1026 378 1075 m 383 1279 b 603 1364 378 1317 422 1364 l 950 1364 b 725 1276 943 1310 893 1276 b 383 1279 561 1276 450 1286 m 517 411 b 761 217 613 339 667 296 b 615 717 717 440 682 588 b 517 411 575 613 538 499 m 694 1135 b 825 1243 694 1194 754 1243 b 956 1135 897 1243 956 1194 b 825 1026 956 1075 897 1026 b 694 1135 754 1026 694 1075 "},"Ạ":{"ha":1093,"x_min":0,"x_max":0,"o":"m 1074 -258 b 781 104 926 -258 838 -160 b 463 228 696 146 626 176 b 128 -160 394 -87 250 -178 b 147 132 -44 -135 -8 104 b 329 267 186 86 272 104 b 29 282 214 296 104 308 b 422 483 -71 521 121 672 b 558 801 474 608 536 743 b 447 858 536 842 506 868 b 717 968 433 946 578 1042 b 1099 28 972 833 1022 132 b 1160 15 1122 -4 1151 -4 b 1074 -258 1293 -29 1247 -258 m 456 -172 b 582 -46 456 -103 513 -46 b 708 -172 651 -46 708 -103 b 582 -300 708 -243 651 -300 b 456 -172 513 -300 456 -243 m 517 411 b 761 217 613 339 667 296 b 615 717 717 440 682 588 b 517 411 575 613 538 499 "},"À":{"ha":1093,"x_min":0,"x_max":0,"o":"m 1074 -258 b 781 104 926 -258 838 -160 b 463 228 696 146 626 176 b 128 -160 394 -87 250 -178 b 147 132 -44 -135 -8 104 b 329 267 186 86 272 104 b 29 282 214 296 104 308 b 422 483 -71 521 121 672 b 558 801 474 608 536 743 b 447 858 536 842 506 868 b 717 968 433 946 578 1042 b 1099 28 972 833 1022 132 b 1160 15 1122 -4 1151 -4 b 1074 -258 1293 -29 1247 -258 m 385 1231 b 718 1196 481 1301 578 1350 b 921 1088 797 1108 868 1094 b 622 1064 892 1032 786 964 b 385 1231 494 1142 436 1190 m 517 411 b 761 217 613 339 667 296 b 615 717 717 440 682 588 b 517 411 575 613 538 499 "},"Ả":{"ha":1093,"x_min":0,"x_max":0,"o":"m 1074 -258 b 781 104 926 -258 838 -160 b 463 228 696 146 626 176 b 128 -160 394 -87 250 -178 b 147 132 -44 -135 -8 104 b 329 267 186 86 272 104 b 29 282 214 296 104 308 b 422 483 -71 521 121 672 b 558 801 474 608 536 743 b 447 858 536 842 506 868 b 717 968 433 946 578 1042 b 1099 28 972 833 1022 132 b 1160 15 1122 -4 1151 -4 b 1074 -258 1293 -29 1247 -258 m 503 1169 b 810 1300 503 1363 719 1461 b 689 1015 863 1206 811 1094 l 610 1022 b 503 1169 760 1122 619 1279 m 517 411 b 761 217 613 339 667 296 b 615 717 717 440 682 588 b 517 411 575 613 538 499 "},"Ā":{"ha":1093,"x_min":0,"x_max":0,"o":"m 1074 -258 b 781 104 926 -258 838 -160 b 463 228 696 146 626 176 b 128 -160 394 -87 250 -178 b 147 132 -44 -135 -8 104 b 329 267 186 86 272 104 b 29 282 214 296 104 308 b 422 483 -71 521 121 672 b 558 801 474 608 536 743 b 447 858 536 842 506 868 b 717 968 433 946 578 1042 b 1099 28 972 833 1022 132 b 1160 15 1122 -4 1151 -4 b 1074 -258 1293 -29 1247 -258 m 383 1064 b 603 1253 378 1147 422 1253 l 950 1253 b 725 1058 943 1132 893 1058 b 383 1064 561 1058 450 1081 m 517 411 b 761 217 613 339 667 296 b 615 717 717 440 682 588 b 517 411 575 613 538 499 "},"Ą":{"ha":1093,"x_min":0,"x_max":0,"o":"m 761 217 b 615 717 717 440 682 588 b 517 411 575 613 538 499 b 761 217 613 339 667 296 m 29 282 b 422 483 -71 521 121 672 b 558 801 474 608 536 743 b 447 858 536 842 506 868 b 717 968 433 946 578 1042 b 1099 28 972 833 1022 132 b 1160 15 1122 -4 1151 -4 b 1121 -251 1281 -25 1254 -215 b 846 -264 1057 -358 915 -387 b 847 -103 817 -212 819 -156 b 781 104 821 -50 799 18 b 463 228 696 146 626 176 b 128 -160 394 -87 250 -178 b 147 132 -44 -135 -8 104 b 329 267 186 86 272 104 b 29 282 214 296 104 308 "},"Å":{"ha":1093,"x_min":0,"x_max":0,"o":"m 1074 -258 b 781 104 926 -258 838 -160 b 463 228 696 146 626 176 b 128 -160 394 -87 250 -178 b 147 132 -44 -135 -8 104 b 329 267 186 86 272 104 b 29 282 214 296 104 308 b 422 483 -71 521 121 672 b 558 801 474 608 536 743 b 447 858 536 842 506 868 b 717 968 433 946 578 1042 b 1099 28 972 833 1022 132 b 1160 15 1122 -4 1151 -4 b 1074 -258 1293 -29 1247 -258 m 482 1189 b 665 1372 482 1290 564 1372 b 850 1189 768 1372 850 1290 b 665 1004 850 1086 768 1004 b 482 1189 564 1004 482 1086 m 517 411 b 761 217 613 339 667 296 b 615 717 717 440 682 588 b 517 411 575 613 538 499 m 572 1189 b 669 1092 572 1135 615 1092 b 768 1189 722 1092 768 1135 b 669 1285 768 1242 722 1285 b 572 1189 615 1285 572 1242 "},"Ã":{"ha":1093,"x_min":0,"x_max":0,"o":"m 1074 -258 b 781 104 926 -258 838 -160 b 463 228 696 146 626 176 b 128 -160 394 -87 250 -178 b 147 132 -44 -135 -8 104 b 329 267 186 86 272 104 b 29 282 214 296 104 308 b 422 483 -71 521 121 672 b 558 801 474 608 536 743 b 447 858 536 842 506 868 b 717 968 433 946 578 1042 b 1099 28 972 833 1022 132 b 1160 15 1122 -4 1151 -4 b 1074 -258 1293 -29 1247 -258 m 475 1029 b 736 1218 293 1179 492 1385 b 826 1269 821 1160 843 1229 b 604 1076 1038 1190 900 883 b 475 1029 499 1144 469 1072 m 517 411 b 761 217 613 339 667 296 b 615 717 717 440 682 588 b 517 411 575 613 538 499 "},"Æ":{"ha":1486,"x_min":0,"x_max":0,"o":"m 1388 -169 b 683 149 1178 -272 642 -265 b 463 228 628 172 564 196 b 128 -160 394 -87 250 -178 b 147 132 -44 -135 -8 104 b 329 267 186 86 272 104 b 29 282 214 296 104 308 b 422 483 -71 521 121 672 b 744 853 461 576 586 772 b 1425 918 900 1011 1265 1028 b 1307 647 1596 800 1471 589 b 1033 765 1318 708 1253 813 b 1075 488 858 729 786 532 b 1385 467 1282 549 1368 517 b 1207 381 1404 410 1343 379 b 1085 35 796 383 799 58 b 1450 107 1253 21 1404 61 b 1388 -169 1526 96 1565 -83 m 517 411 b 714 256 596 351 646 313 b 914 422 754 336 829 394 b 672 656 807 446 683 521 b 517 411 585 564 528 461 "},"Ǣ":{"ha":1486,"x_min":0,"x_max":0,"o":"m 1388 -169 b 683 149 1178 -272 642 -265 b 463 228 628 172 564 196 b 128 -160 394 -87 250 -178 b 147 132 -44 -135 -8 104 b 329 267 186 86 272 104 b 29 282 214 296 104 308 b 422 483 -71 521 121 672 b 744 853 461 576 586 772 b 1425 918 900 1011 1265 1028 b 1307 647 1596 800 1471 589 b 1033 765 1318 708 1253 813 b 1075 488 858 729 786 532 b 1385 467 1282 549 1368 517 b 1207 381 1404 410 1343 379 b 1085 35 796 383 799 58 b 1450 107 1253 21 1404 61 b 1388 -169 1526 96 1565 -83 m 517 411 b 714 256 596 351 646 313 b 914 422 754 336 829 394 b 672 656 807 446 683 521 b 517 411 585 564 528 461 m 799 1063 b 1018 1251 793 1146 838 1251 l 1365 1251 b 1140 1057 1358 1131 1308 1057 b 799 1063 976 1057 865 1079 "},"B":{"ha":1164,"x_min":0,"x_max":0,"o":"m 668 -261 b -35 22 228 -347 33 -157 b 178 469 -122 253 -1 461 b 339 289 289 475 344 397 b 553 -146 85 289 64 -203 b 638 399 943 -100 894 417 b 639 15 597 144 593 46 b 367 99 604 -75 367 -110 b 372 765 367 306 454 740 b 504 871 385 821 433 869 b 650 493 618 872 690 788 b 565 968 850 526 924 926 b 357 667 197 1011 176 667 b 178 519 357 576 297 514 b 18 808 53 525 -29 647 b 646 1075 61 954 247 1113 b 894 451 1158 1026 1197 597 b 668 -261 1328 310 1153 -167 "},"Ḅ":{"ha":1164,"x_min":0,"x_max":0,"o":"m 668 -261 b -35 22 228 -347 33 -157 b 178 469 -122 253 -1 461 b 339 289 289 475 344 397 b 553 -146 85 289 64 -203 b 638 399 943 -100 894 417 b 639 15 597 144 593 46 b 367 99 604 -75 367 -110 b 372 765 367 306 454 740 b 504 871 385 821 433 869 b 650 493 618 872 690 788 b 565 968 850 526 924 926 b 357 667 197 1011 176 667 b 178 519 357 576 297 514 b 18 808 53 525 -29 647 b 646 1075 61 954 247 1113 b 894 451 1158 1026 1197 597 b 668 -261 1328 310 1153 -167 m 456 -424 b 582 -297 456 -354 513 -297 b 708 -424 651 -297 708 -354 b 582 -551 708 -494 651 -551 b 456 -424 513 -551 456 -494 "},"C":{"ha":886,"x_min":0,"x_max":0,"o":"m 493 -115 b 14 603 157 -115 -62 193 b 871 771 128 1211 843 1106 b 531 701 896 474 525 486 b 471 921 664 718 674 921 b 432 221 186 921 103 350 b 788 340 647 136 782 256 b 493 -115 946 253 871 -115 "},"Ć":{"ha":886,"x_min":0,"x_max":0,"o":"m 493 -115 b 14 603 157 -115 -62 193 b 871 771 128 1211 843 1106 b 531 701 896 474 525 486 b 471 921 664 718 674 921 b 432 221 186 921 103 350 b 788 340 647 136 782 256 b 493 -115 946 253 871 -115 m 219 1139 b 424 1247 275 1139 332 1157 b 756 1282 579 1401 700 1329 l 519 1115 b 219 1139 386 1021 275 1083 "},"Č":{"ha":886,"x_min":0,"x_max":0,"o":"m 493 -115 b 14 603 157 -115 -62 193 b 871 771 128 1211 843 1106 b 531 701 896 474 525 486 b 471 921 664 718 674 921 b 432 221 186 921 103 350 b 788 340 647 136 782 256 b 493 -115 946 253 871 -115 m 232 1224 b 485 1224 244 1290 363 1367 b 746 1239 544 1279 631 1382 b 475 1061 667 1207 551 1065 b 232 1224 399 1057 335 1224 "},"Ç":{"ha":886,"x_min":0,"x_max":0,"o":"m 436 -489 b 326 -342 263 -489 254 -371 b 494 -300 401 -368 485 -369 b 349 -217 503 -239 458 -201 l 404 -108 b 14 603 119 -58 -56 231 b 871 771 128 1211 843 1106 b 531 701 896 474 525 486 b 471 921 664 718 674 921 b 432 221 186 921 103 350 b 788 340 647 136 782 256 b 508 -115 943 254 872 -106 l 501 -126 b 436 -489 751 -126 769 -489 "},"Ĉ":{"ha":886,"x_min":0,"x_max":0,"o":"m 493 -115 b 14 603 157 -115 -62 193 b 871 771 128 1211 843 1106 b 531 701 896 474 525 486 b 471 921 664 718 674 921 b 432 221 186 921 103 350 b 788 340 647 136 782 256 b 493 -115 946 253 871 -115 m 231 1119 b 490 1317 310 1151 414 1313 b 744 1135 567 1321 642 1135 b 492 1135 732 1068 614 992 b 231 1119 432 1079 346 976 "},"Ċ":{"ha":886,"x_min":0,"x_max":0,"o":"m 493 -115 b 14 603 157 -115 -62 193 b 871 771 128 1211 843 1106 b 531 701 896 474 525 486 b 471 921 664 718 674 921 b 432 221 186 921 103 350 b 788 340 647 136 782 256 b 493 -115 946 253 871 -115 m 361 1213 b 488 1339 361 1282 418 1339 b 614 1213 557 1339 614 1282 b 488 1085 614 1142 557 1085 b 361 1213 418 1085 361 1142 "},"D":{"ha":1324,"x_min":0,"x_max":0,"o":"m 481 -282 b 392 -114 331 -258 329 -164 b 979 333 644 -246 953 -31 b 582 840 1000 618 846 850 b 392 408 193 826 160 381 b 193 236 376 301 303 233 b 18 568 47 240 -22 396 b 617 949 58 742 278 949 b 1276 390 1028 949 1285 732 b 481 -282 1268 18 981 -361 m 431 60 b 438 654 410 268 508 664 b 617 763 440 697 535 778 b 704 381 710 746 763 650 b 704 -24 649 125 665 10 b 431 60 663 -111 447 -112 "},"Ɖ":{"ha":1324,"x_min":0,"x_max":0,"o":"m 481 -282 b 392 -114 331 -258 329 -164 b 979 333 644 -246 953 -31 b 582 840 1000 618 846 850 b 392 408 193 826 160 381 b 193 236 376 301 303 233 b 18 568 47 240 -22 396 b 617 949 58 742 278 949 b 1276 390 1028 949 1285 732 b 481 -282 1268 18 981 -361 m 329 147 b 440 324 326 214 350 293 b 438 654 458 497 483 661 b 617 763 440 697 535 778 b 704 381 710 746 763 650 l 694 336 l 835 336 b 669 143 828 225 790 154 b 704 -24 665 49 681 -3 b 431 60 663 -111 447 -112 b 428 151 428 88 428 119 b 329 147 388 154 354 154 "},"Ð":{"ha":1324,"x_min":0,"x_max":0,"o":"m 481 -282 b 392 -114 331 -258 329 -164 b 979 333 644 -246 953 -31 b 582 840 1000 618 846 850 b 392 408 193 826 160 381 b 193 236 376 301 303 233 b 18 568 47 240 -22 396 b 617 949 58 742 278 949 b 1276 390 1028 949 1285 732 b 481 -282 1268 18 981 -361 m 329 147 b 440 324 326 214 350 293 b 438 654 458 497 483 661 b 617 763 440 697 535 778 b 704 381 710 746 763 650 l 694 336 l 835 336 b 669 143 828 225 790 154 b 704 -24 665 49 681 -3 b 431 60 663 -111 447 -112 b 428 151 428 88 428 119 b 329 147 388 154 354 154 "},"Ď":{"ha":1324,"x_min":0,"x_max":0,"o":"m 481 -282 b 392 -114 331 -258 329 -164 b 979 333 644 -246 953 -31 b 582 840 1000 618 846 850 b 392 408 193 826 160 381 b 193 236 376 301 303 233 b 18 568 47 240 -22 396 b 617 949 58 742 278 949 b 1276 390 1028 949 1285 732 b 481 -282 1268 18 981 -361 m 407 1129 b 660 1129 419 1196 538 1272 b 921 1144 719 1185 806 1288 b 650 967 842 1113 726 971 b 407 1129 574 963 510 1129 m 431 60 b 438 654 410 268 508 664 b 617 763 440 697 535 778 b 704 381 710 746 763 650 b 704 -24 649 125 665 10 b 431 60 663 -111 447 -112 "},"Ḓ":{"ha":1324,"x_min":0,"x_max":0,"o":"m 481 -282 b 392 -114 331 -258 329 -164 b 979 333 644 -246 953 -31 b 582 840 1000 618 846 850 b 392 408 193 826 160 381 b 193 236 376 301 303 233 b 18 568 47 240 -22 396 b 617 949 58 742 278 949 b 1276 390 1028 949 1285 732 b 481 -282 1268 18 981 -361 m 431 60 b 438 654 410 268 508 664 b 617 763 440 697 535 778 b 704 381 710 746 763 650 b 704 -24 649 125 665 10 b 431 60 663 -111 447 -112 m 506 -483 b 765 -286 585 -451 689 -290 b 1019 -468 842 -282 917 -468 b 767 -468 1007 -535 889 -611 b 506 -483 707 -524 621 -626 "},"Đ":{"ha":1324,"x_min":0,"x_max":0,"o":"m 481 -282 b 392 -114 331 -258 329 -164 b 979 333 644 -246 953 -31 b 582 840 1000 618 846 850 b 392 408 193 826 160 381 b 193 236 376 301 303 233 b 18 568 47 240 -22 396 b 617 949 58 742 278 949 b 1276 390 1028 949 1285 732 b 481 -282 1268 18 981 -361 m 329 147 b 440 324 326 214 350 293 b 438 654 458 497 483 661 b 617 763 440 697 535 778 b 704 381 710 746 763 650 l 694 336 l 835 336 b 669 143 828 225 790 154 b 704 -24 665 49 681 -3 b 431 60 663 -111 447 -112 b 428 151 428 88 428 119 b 329 147 388 154 354 154 "},"Ḍ":{"ha":1324,"x_min":0,"x_max":0,"o":"m 481 -282 b 392 -114 331 -258 329 -164 b 979 333 644 -246 953 -31 b 582 840 1000 618 846 850 b 392 408 193 826 160 381 b 193 236 376 301 303 233 b 18 568 47 240 -22 396 b 617 949 58 742 278 949 b 1276 390 1028 949 1285 732 b 481 -282 1268 18 981 -361 m 431 60 b 438 654 410 268 508 664 b 617 763 440 697 535 778 b 704 381 710 746 763 650 b 704 -24 649 125 665 10 b 431 60 663 -111 447 -112 m 636 -418 b 763 -292 636 -349 693 -292 b 889 -418 832 -292 889 -349 b 763 -546 889 -489 832 -546 b 636 -418 693 -546 636 -489 "},"Ḏ":{"ha":1324,"x_min":0,"x_max":0,"o":"m 481 -282 b 392 -114 331 -258 329 -164 b 979 333 644 -246 953 -31 b 582 840 1000 618 846 850 b 392 408 193 826 160 381 b 193 236 376 301 303 233 b 18 568 47 240 -22 396 b 617 949 58 742 278 949 b 1276 390 1028 949 1285 732 b 481 -282 1268 18 981 -361 m 431 60 b 438 654 410 268 508 664 b 617 763 440 697 535 778 b 704 381 710 746 763 650 b 704 -24 649 125 665 10 b 431 60 663 -111 447 -112 m 479 -493 b 699 -304 474 -410 518 -304 l 1046 -304 b 821 -499 1039 -425 989 -499 b 479 -493 657 -499 546 -476 "},"E":{"ha":807,"x_min":0,"x_max":0,"o":"m 707 -169 b 3 154 496 -272 -43 -265 b 233 422 18 286 115 383 b -10 678 121 447 -10 529 b 744 918 -10 992 539 1060 b 626 647 915 800 790 589 b 353 765 638 708 572 813 b 394 488 178 729 106 532 b 704 467 601 549 688 517 b 526 381 724 410 663 379 b 404 35 115 383 118 58 b 769 107 572 21 724 61 b 707 -169 846 96 885 -83 "},"É":{"ha":807,"x_min":0,"x_max":0,"o":"m 707 -169 b 3 154 496 -272 -43 -265 b 233 422 18 286 115 383 b -10 678 121 447 -10 529 b 744 918 -10 992 539 1060 b 626 647 915 800 790 589 b 353 765 638 708 572 813 b 394 488 178 729 106 532 b 704 467 601 549 688 517 b 526 381 724 410 663 379 b 404 35 115 383 118 58 b 769 107 572 21 724 61 b 707 -169 846 96 885 -83 m 133 1094 b 338 1203 189 1094 246 1113 b 669 1238 493 1357 614 1285 l 433 1071 b 133 1094 300 976 189 1039 "},"Ě":{"ha":807,"x_min":0,"x_max":0,"o":"m 707 -169 b 3 154 496 -272 -43 -265 b 233 422 18 286 115 383 b -10 678 121 447 -10 529 b 744 918 -10 992 539 1060 b 626 647 915 800 790 589 b 353 765 638 708 572 813 b 394 488 178 729 106 532 b 704 467 601 549 688 517 b 526 381 724 410 663 379 b 404 35 115 383 118 58 b 769 107 572 21 724 61 b 707 -169 846 96 885 -83 m 146 1179 b 399 1179 158 1246 276 1322 b 660 1194 458 1235 544 1338 b 389 1017 581 1163 465 1021 b 146 1179 313 1013 249 1179 "},"Ȩ":{"ha":807,"x_min":0,"x_max":0,"o":"m 707 -169 b 543 -217 664 -190 606 -207 b 525 -246 538 -225 532 -235 b 460 -608 775 -246 793 -608 b 350 -461 286 -608 278 -490 b 518 -419 425 -487 508 -489 b 372 -336 526 -358 482 -321 l 429 -225 b 3 154 208 -225 -28 -129 b 233 422 18 286 115 383 b -10 678 121 447 -10 529 b 744 918 -10 992 539 1060 b 626 647 915 800 790 589 b 353 765 638 708 572 813 b 394 488 178 729 106 532 b 704 467 601 549 688 517 b 526 381 724 410 663 379 b 404 35 115 383 118 58 b 769 107 572 21 724 61 b 707 -169 846 96 885 -83 "},"Ê":{"ha":807,"x_min":0,"x_max":0,"o":"m 707 -169 b 3 154 496 -272 -43 -265 b 233 422 18 286 115 383 b -10 678 121 447 -10 529 b 744 918 -10 992 539 1060 b 626 647 915 800 790 589 b 353 765 638 708 572 813 b 394 488 178 729 106 532 b 704 467 601 549 688 517 b 526 381 724 410 663 379 b 404 35 115 383 118 58 b 769 107 572 21 724 61 b 707 -169 846 96 885 -83 m 144 1075 b 404 1272 224 1107 328 1268 b 658 1090 481 1276 556 1090 b 406 1090 646 1024 528 947 b 144 1075 346 1035 260 932 "},"Ế":{"ha":807,"x_min":0,"x_max":0,"o":"m 707 -169 b 3 154 496 -272 -43 -265 b 233 422 18 286 115 383 b -10 678 121 447 -10 529 b 744 918 -10 992 539 1060 b 626 647 915 800 790 589 b 353 765 638 708 572 813 b 394 488 178 729 106 532 b 704 467 601 549 688 517 b 526 381 724 410 663 379 b 404 35 115 383 118 58 b 769 107 572 21 724 61 b 707 -169 846 96 885 -83 m 133 1210 b 338 1276 189 1210 246 1221 b 669 1297 493 1371 614 1326 l 433 1194 b 133 1210 300 1138 189 1175 m 144 1039 b 404 1160 224 1058 328 1157 b 658 1049 481 1163 556 1049 b 406 1049 646 1007 528 960 b 144 1039 346 1014 260 950 "},"Ệ":{"ha":807,"x_min":0,"x_max":0,"o":"m 707 -169 b 3 154 496 -272 -43 -265 b 233 422 18 286 115 383 b -10 678 121 447 -10 529 b 744 918 -10 992 539 1060 b 626 647 915 800 790 589 b 353 765 638 708 572 813 b 394 488 178 729 106 532 b 704 467 601 549 688 517 b 526 381 724 410 663 379 b 404 35 115 383 118 58 b 769 107 572 21 724 61 b 707 -169 846 96 885 -83 m 144 1075 b 404 1272 224 1107 328 1268 b 658 1090 481 1276 556 1090 b 406 1090 646 1024 528 947 b 144 1075 346 1035 260 932 m 311 -394 b 438 -268 311 -325 368 -268 b 564 -394 507 -268 564 -325 b 438 -522 564 -465 507 -522 b 311 -394 368 -522 311 -465 "},"Ề":{"ha":807,"x_min":0,"x_max":0,"o":"m 707 -169 b 3 154 496 -272 -43 -265 b 233 422 18 286 115 383 b -10 678 121 447 -10 529 b 744 918 -10 992 539 1060 b 626 647 915 800 790 589 b 353 765 638 708 572 813 b 394 488 178 729 106 532 b 704 467 601 549 688 517 b 526 381 724 410 663 379 b 404 35 115 383 118 58 b 769 107 572 21 724 61 b 707 -169 846 96 885 -83 m 119 1281 b 453 1260 215 1322 313 1350 b 656 1196 532 1208 603 1200 b 357 1182 626 1163 521 1122 b 119 1281 229 1228 171 1256 m 144 1036 b 404 1153 224 1056 328 1150 b 658 1046 481 1156 556 1046 b 406 1046 646 1006 528 961 b 144 1036 346 1013 260 951 "},"Ể":{"ha":807,"x_min":0,"x_max":0,"o":"m 707 -169 b 3 154 496 -272 -43 -265 b 233 422 18 286 115 383 b -10 678 121 447 -10 529 b 744 918 -10 992 539 1060 b 626 647 915 800 790 589 b 353 765 638 708 572 813 b 394 488 178 729 106 532 b 704 467 601 549 688 517 b 526 381 724 410 663 379 b 404 35 115 383 118 58 b 769 107 572 21 724 61 b 707 -169 846 96 885 -83 m 144 1042 b 375 1164 214 1060 303 1143 l 344 1165 b 238 1229 494 1210 354 1278 b 544 1286 238 1314 454 1357 b 433 1165 596 1247 549 1200 b 658 1051 500 1144 568 1051 b 406 1051 646 1008 528 960 b 144 1042 346 1015 260 949 "},"Ễ":{"ha":807,"x_min":0,"x_max":0,"o":"m 707 -169 b 3 154 496 -272 -43 -265 b 233 422 18 286 115 383 b -10 678 121 447 -10 529 b 744 918 -10 992 539 1060 b 626 647 915 800 790 589 b 353 765 638 708 572 813 b 394 488 178 729 106 532 b 704 467 601 549 688 517 b 526 381 724 410 663 379 b 404 35 115 383 118 58 b 769 107 572 21 724 61 b 707 -169 846 96 885 -83 m 144 1042 b 404 1169 224 1063 328 1167 b 658 1051 481 1172 556 1051 b 406 1051 646 1008 528 958 b 144 1042 346 1015 260 949 m 210 1178 b 471 1300 28 1275 226 1408 b 561 1333 556 1263 578 1308 b 339 1208 772 1282 635 1083 b 210 1178 233 1253 204 1206 "},"Ë":{"ha":807,"x_min":0,"x_max":0,"o":"m 707 -169 b 3 154 496 -272 -43 -265 b 233 422 18 286 115 383 b -10 678 121 447 -10 529 b 744 918 -10 992 539 1060 b 626 647 915 800 790 589 b 353 765 638 708 572 813 b 394 488 178 729 106 532 b 704 467 601 549 688 517 b 526 381 724 410 663 379 b 404 35 115 383 118 58 b 769 107 572 21 724 61 b 707 -169 846 96 885 -83 m 113 1164 b 243 1294 113 1236 171 1294 b 374 1164 314 1294 374 1236 b 243 1033 374 1092 314 1033 b 113 1164 171 1033 113 1092 m 429 1164 b 560 1294 429 1236 489 1294 b 690 1164 632 1294 690 1236 b 560 1033 690 1092 632 1033 b 429 1164 489 1033 429 1092 "},"Ė":{"ha":807,"x_min":0,"x_max":0,"o":"m 707 -169 b 3 154 496 -272 -43 -265 b 233 422 18 286 115 383 b -10 678 121 447 -10 529 b 744 918 -10 992 539 1060 b 626 647 915 800 790 589 b 353 765 638 708 572 813 b 394 488 178 729 106 532 b 704 467 601 549 688 517 b 526 381 724 410 663 379 b 404 35 115 383 118 58 b 769 107 572 21 724 61 b 707 -169 846 96 885 -83 m 275 1168 b 401 1294 275 1238 332 1294 b 528 1168 471 1294 528 1238 b 401 1040 528 1097 471 1040 b 275 1168 332 1040 275 1097 "},"Ẹ":{"ha":807,"x_min":0,"x_max":0,"o":"m 707 -169 b 3 154 496 -272 -43 -265 b 233 422 18 286 115 383 b -10 678 121 447 -10 529 b 744 918 -10 992 539 1060 b 626 647 915 800 790 589 b 353 765 638 708 572 813 b 394 488 178 729 106 532 b 704 467 601 549 688 517 b 526 381 724 410 663 379 b 404 35 115 383 118 58 b 769 107 572 21 724 61 b 707 -169 846 96 885 -83 m 311 -394 b 438 -268 311 -325 368 -268 b 564 -394 507 -268 564 -325 b 438 -522 564 -465 507 -522 b 311 -394 368 -522 311 -465 "},"È":{"ha":807,"x_min":0,"x_max":0,"o":"m 707 -169 b 3 154 496 -272 -43 -265 b 233 422 18 286 115 383 b -10 678 121 447 -10 529 b 744 918 -10 992 539 1060 b 626 647 915 800 790 589 b 353 765 638 708 572 813 b 394 488 178 729 106 532 b 704 467 601 549 688 517 b 526 381 724 410 663 379 b 404 35 115 383 118 58 b 769 107 572 21 724 61 b 707 -169 846 96 885 -83 m 119 1229 b 453 1194 215 1300 313 1349 b 656 1086 532 1107 603 1093 b 357 1063 626 1031 521 963 b 119 1229 229 1140 171 1189 "},"Ẻ":{"ha":807,"x_min":0,"x_max":0,"o":"m 707 -169 b 3 154 496 -272 -43 -265 b 233 422 18 286 115 383 b -10 678 121 447 -10 529 b 744 918 -10 992 539 1060 b 626 647 915 800 790 589 b 353 765 638 708 572 813 b 394 488 178 729 106 532 b 704 467 601 549 688 517 b 526 381 724 410 663 379 b 404 35 115 383 118 58 b 769 107 572 21 724 61 b 707 -169 846 96 885 -83 m 238 1168 b 544 1299 238 1361 454 1460 b 424 1014 597 1204 546 1093 l 344 1021 b 238 1168 494 1121 354 1278 "},"Ē":{"ha":807,"x_min":0,"x_max":0,"o":"m 707 -169 b 3 154 496 -272 -43 -265 b 233 422 18 286 115 383 b -10 678 121 447 -10 529 b 744 918 -10 992 539 1060 b 626 647 915 800 790 589 b 353 765 638 708 572 813 b 394 488 178 729 106 532 b 704 467 601 549 688 517 b 526 381 724 410 663 379 b 404 35 115 383 118 58 b 769 107 572 21 724 61 b 707 -169 846 96 885 -83 m 118 1063 b 338 1251 113 1146 157 1251 l 685 1251 b 460 1057 678 1131 628 1057 b 118 1063 296 1057 185 1079 "},"Ę":{"ha":807,"x_min":0,"x_max":0,"o":"m 707 -169 b 535 -218 661 -192 601 -208 b 690 -317 475 -311 592 -410 b 383 -447 690 -510 474 -608 b 429 -225 343 -375 364 -294 b 3 154 207 -224 -28 -129 b 233 422 18 286 115 383 b -10 678 121 447 -10 529 b 744 918 -10 992 539 1060 b 626 647 915 800 790 589 b 353 765 638 708 572 813 b 394 488 178 729 106 532 b 704 467 601 549 688 517 b 526 381 724 410 663 379 b 404 35 115 383 118 58 b 769 107 572 21 724 61 b 707 -169 846 96 885 -83 "},"Ɛ":{"ha":807,"x_min":0,"x_max":0,"o":"m 707 -169 b 3 154 496 -272 -43 -265 b 233 422 18 286 115 383 b -10 678 121 447 -10 529 b 744 918 -10 992 539 1060 b 626 647 915 800 790 589 b 353 765 638 708 572 813 b 394 488 178 729 106 532 b 704 467 601 549 688 517 b 526 381 724 410 663 379 b 404 35 115 383 118 58 b 769 107 572 21 724 61 b 707 -169 846 96 885 -83 "},"Ǝ":{"ha":807,"x_min":0,"x_max":0,"o":"m 100 -169 b 38 107 -78 -83 -39 96 b 403 35 83 61 235 21 b 281 381 689 58 692 383 b 103 467 144 379 83 410 b 413 488 119 517 206 549 b 454 765 701 532 629 729 b 181 647 235 813 169 708 b 63 918 17 589 -108 800 b 817 678 268 1060 817 992 b 574 422 817 529 686 447 b 804 154 692 383 789 286 b 100 -169 850 -265 311 -272 "},"Ʃ":{"ha":1053,"x_min":0,"x_max":0,"o":"m -8 -142 b 276 110 -40 19 104 74 b 501 425 368 263 431 346 b 306 608 443 486 378 547 b 75 878 43 546 -83 797 b 386 757 175 929 306 878 b 976 925 604 878 815 976 b 1092 614 1108 883 1138 713 b 476 642 938 704 632 678 b 608 492 514 596 564 543 b 849 410 739 543 850 501 b 594 364 847 318 708 311 b 403 124 500 257 450 192 b 965 108 535 160 804 194 b 1054 -239 1103 35 1122 -129 b 276 -132 938 -182 572 -49 b -8 -142 249 -231 28 -325 "},"Ẽ":{"ha":807,"x_min":0,"x_max":0,"o":"m 707 -169 b 3 154 496 -272 -43 -265 b 233 422 18 286 115 383 b -10 678 121 447 -10 529 b 744 918 -10 992 539 1060 b 626 647 915 800 790 589 b 353 765 638 708 572 813 b 394 488 178 729 106 532 b 704 467 601 549 688 517 b 526 381 724 410 663 379 b 404 35 115 383 118 58 b 769 107 572 21 724 61 b 707 -169 846 96 885 -83 m 210 1028 b 471 1217 28 1178 226 1383 b 561 1268 556 1158 578 1228 b 339 1075 772 1189 635 882 b 210 1028 233 1143 204 1071 "},"Ʒ":{"ha":1022,"x_min":0,"x_max":0,"o":"m 217 -179 b 154 97 39 -93 78 86 b 519 25 200 51 351 11 b 397 339 806 49 857 432 b 219 457 263 311 158 371 b 471 485 246 494 315 519 b 657 642 556 539 594 575 b -14 614 533 675 190 711 b 101 925 -60 713 -31 883 b 747 757 263 976 529 878 b 1011 806 828 825 910 857 b 828 608 1131 744 1038 563 b 628 450 757 549 725 504 b 953 144 851 396 939 263 b 217 -179 999 -275 428 -282 "},"Ǯ":{"ha":1022,"x_min":0,"x_max":0,"o":"m 217 -179 b 154 97 39 -93 78 86 b 519 25 200 51 351 11 b 397 339 806 49 857 432 b 219 457 263 311 158 371 b 471 485 246 494 315 519 b 657 642 556 539 594 575 b -14 614 533 675 190 711 b 101 925 -60 713 -31 883 b 747 757 263 976 529 878 b 1011 806 828 825 910 857 b 828 608 1131 744 1038 563 b 628 450 757 549 725 504 b 953 144 851 396 939 263 b 217 -179 999 -275 428 -282 m 256 1129 b 508 1129 268 1196 386 1272 b 769 1144 568 1185 654 1288 b 499 967 690 1113 575 971 b 256 1129 422 963 358 1129 "},"F":{"ha":814,"x_min":0,"x_max":0,"o":"m 290 -157 b 221 208 8 -176 31 208 b 265 169 208 178 238 151 b 310 471 304 194 290 294 b 68 492 201 492 113 500 b 325 596 50 561 103 644 b 364 738 335 644 343 683 b 17 740 210 774 86 771 b 476 931 -37 917 113 1092 b 703 1033 507 961 600 1019 b 869 738 954 1067 1022 842 b 533 717 782 678 658 690 b 521 561 526 668 524 615 b 825 567 646 533 776 547 b 524 422 847 453 753 325 b 290 -157 569 96 506 -142 m 607 889 b 719 872 658 874 700 867 b 692 928 763 883 768 938 b 607 889 675 925 639 915 "},"G":{"ha":969,"x_min":0,"x_max":0,"o":"m 222 -453 b 64 -204 36 -497 -44 -322 b 744 -194 246 -7 615 -278 b 757 60 807 -154 801 -43 b 576 -58 722 1 661 -44 b 61 528 400 -86 -33 -28 b 939 693 163 1128 983 1040 b 619 618 913 486 658 486 b 518 836 725 632 728 836 b 469 192 235 836 157 299 b 696 228 569 157 650 183 b 775 442 676 310 696 410 b 935 369 858 475 928 439 b 939 -217 825 299 1065 19 b 433 -361 843 -394 650 -387 b 222 -453 293 -344 208 -376 "},"Ğ":{"ha":969,"x_min":0,"x_max":0,"o":"m 222 -453 b 64 -204 36 -497 -44 -322 b 744 -194 246 -7 615 -278 b 757 60 807 -154 801 -43 b 576 -58 722 1 661 -44 b 61 528 400 -86 -33 -28 b 939 693 163 1128 983 1040 b 619 618 913 486 658 486 b 518 836 725 632 728 836 b 469 192 235 836 157 299 b 696 228 569 157 650 183 b 775 442 676 310 696 410 b 935 369 858 475 928 439 b 939 -217 825 299 1065 19 b 433 -361 843 -394 650 -387 b 222 -453 293 -344 208 -376 m 429 1222 b 540 1110 429 1160 479 1110 b 651 1222 601 1110 651 1160 b 536 1011 882 1265 824 1011 b 429 1222 224 1011 210 1261 "},"Ǧ":{"ha":969,"x_min":0,"x_max":0,"o":"m 222 -453 b 64 -204 36 -497 -44 -322 b 744 -194 246 -7 615 -278 b 757 60 807 -154 801 -43 b 576 -58 722 1 661 -44 b 61 528 400 -86 -33 -28 b 939 693 163 1128 983 1040 b 619 618 913 486 658 486 b 518 836 725 632 728 836 b 469 192 235 836 157 299 b 696 228 569 157 650 183 b 775 442 676 310 696 410 b 935 369 858 475 928 439 b 939 -217 825 299 1065 19 b 433 -361 843 -394 650 -387 b 222 -453 293 -344 208 -376 m 281 1157 b 533 1157 293 1224 411 1300 b 794 1172 593 1213 679 1315 b 524 994 715 1140 600 999 b 281 1157 447 990 383 1157 "},"Ĝ":{"ha":969,"x_min":0,"x_max":0,"o":"m 222 -453 b 64 -204 36 -497 -44 -322 b 744 -194 246 -7 615 -278 b 757 60 807 -154 801 -43 b 576 -58 722 1 661 -44 b 61 528 400 -86 -33 -28 b 939 693 163 1128 983 1040 b 619 618 913 486 658 486 b 518 836 725 632 728 836 b 469 192 235 836 157 299 b 696 228 569 157 650 183 b 775 442 676 310 696 410 b 935 369 858 475 928 439 b 939 -217 825 299 1065 19 b 433 -361 843 -394 650 -387 b 222 -453 293 -344 208 -376 m 279 1053 b 539 1250 358 1085 463 1246 b 793 1068 615 1254 690 1068 b 540 1068 781 1001 663 925 b 279 1053 481 1013 394 910 "},"Ģ":{"ha":969,"x_min":0,"x_max":0,"o":"m 222 -453 b 64 -204 36 -497 -44 -322 b 364 -143 140 -121 251 -121 b 458 -104 388 -119 422 -104 b 603 -203 538 -104 585 -146 b 744 -194 661 -214 711 -217 b 757 60 807 -154 801 -43 b 576 -58 722 1 661 -44 b 61 528 400 -86 -33 -28 b 939 693 163 1128 983 1040 b 619 618 913 486 658 486 b 518 836 725 632 728 836 b 469 192 235 836 157 299 b 696 228 569 157 650 183 b 775 442 676 310 696 410 b 935 369 858 475 928 439 b 939 -217 825 299 1065 19 b 582 -375 865 -353 736 -381 b 406 -512 549 -436 490 -490 b 457 -374 425 -475 446 -417 b 386 -357 429 -376 406 -369 b 222 -453 275 -353 210 -386 "},"Ġ":{"ha":969,"x_min":0,"x_max":0,"o":"m 222 -453 b 64 -204 36 -497 -44 -322 b 744 -194 246 -7 615 -278 b 757 60 807 -154 801 -43 b 576 -58 722 1 661 -44 b 61 528 400 -86 -33 -28 b 939 693 163 1128 983 1040 b 619 618 913 486 658 486 b 518 836 725 632 728 836 b 469 192 235 836 157 299 b 696 228 569 157 650 183 b 775 442 676 310 696 410 b 935 369 858 475 928 439 b 939 -217 825 299 1065 19 b 433 -361 843 -394 650 -387 b 222 -453 293 -344 208 -376 m 410 1146 b 536 1272 410 1215 467 1272 b 663 1146 606 1272 663 1215 b 536 1018 663 1075 606 1018 b 410 1146 467 1018 410 1075 "},"Ḡ":{"ha":969,"x_min":0,"x_max":0,"o":"m 222 -453 b 64 -204 36 -497 -44 -322 b 744 -194 246 -7 615 -278 b 757 60 807 -154 801 -43 b 576 -58 722 1 661 -44 b 61 528 400 -86 -33 -28 b 939 693 163 1128 983 1040 b 619 618 913 486 658 486 b 518 836 725 632 728 836 b 469 192 235 836 157 299 b 696 228 569 157 650 183 b 775 442 676 310 696 410 b 935 369 858 475 928 439 b 939 -217 825 299 1065 19 b 433 -361 843 -394 650 -387 b 222 -453 293 -344 208 -376 m 253 1040 b 472 1229 247 1124 292 1229 l 819 1229 b 594 1035 813 1108 763 1035 b 253 1040 431 1035 319 1057 "},"Ǥ":{"ha":969,"x_min":0,"x_max":0,"o":"m 222 -453 b 64 -204 36 -497 -44 -322 b 744 -194 246 -7 615 -278 b 757 60 807 -154 801 -43 b 576 -58 722 1 661 -44 b 61 528 400 -86 -33 -28 b 939 693 163 1128 983 1040 b 619 618 913 486 658 486 b 518 836 725 632 728 836 b 469 192 235 836 157 299 b 696 228 569 157 650 183 b 692 326 689 260 686 294 b 493 329 601 331 536 339 b 665 469 489 392 524 469 l 935 469 b 924 408 933 446 929 426 b 935 369 929 397 933 383 b 939 -217 825 299 1065 19 b 433 -361 843 -394 650 -387 b 222 -453 293 -344 208 -376 "},"H":{"ha":925,"x_min":0,"x_max":0,"o":"m 764 -179 b 601 265 563 -179 567 78 b 339 225 533 233 417 210 b 360 -107 317 3 314 -69 b 71 -93 331 -181 136 -262 b 101 265 35 0 79 125 b -64 264 26 283 -19 288 b 133 458 -128 369 -61 553 b 92 808 171 744 149 813 b 290 931 85 868 163 971 b 363 392 471 874 386 556 b 614 396 424 379 563 364 b 594 865 657 718 660 850 b 901 797 625 971 858 1028 b 907 39 942 582 769 -29 b 764 -179 938 -49 883 -179 "},"Ħ":{"ha":925,"x_min":0,"x_max":0,"o":"m 764 -179 b 601 265 563 -179 567 78 b 339 225 533 233 417 210 b 360 -107 317 3 314 -69 b 71 -93 331 -181 136 -262 b 101 265 35 0 79 125 b -64 264 26 283 -19 288 b 133 458 -128 369 -61 553 b 92 808 171 744 149 813 b 290 931 85 868 163 971 b 403 678 388 900 408 794 l 413 678 l 643 678 b 594 865 650 800 636 856 b 901 797 625 971 858 1028 b 907 39 942 582 769 -29 b 764 -179 938 -49 883 -179 m 363 392 b 614 396 424 379 563 364 l 626 493 b 535 483 600 486 571 483 b 379 489 476 483 424 486 b 363 392 372 453 367 421 "},"Ḫ":{"ha":925,"x_min":0,"x_max":0,"o":"m 764 -179 b 601 265 563 -179 567 78 b 339 225 533 233 417 210 b 360 -107 317 3 314 -69 b 71 -93 331 -181 136 -262 b 101 265 35 0 79 125 b -64 264 26 283 -19 288 b 133 458 -128 369 -61 553 b 92 808 171 744 149 813 b 290 931 85 868 163 971 b 363 392 471 874 386 556 b 614 396 424 379 563 364 b 594 865 657 718 660 850 b 901 797 625 971 858 1028 b 907 39 942 582 769 -29 b 764 -179 938 -49 883 -179 m 368 -181 b 479 -293 368 -243 418 -293 b 590 -181 540 -293 590 -243 b 475 -392 821 -137 763 -392 b 368 -181 163 -392 149 -142 "},"Ĥ":{"ha":925,"x_min":0,"x_max":0,"o":"m 764 -179 b 601 265 563 -179 567 78 b 339 225 533 233 417 210 b 360 -107 317 3 314 -69 b 71 -93 331 -181 136 -262 b 101 265 35 0 79 125 b -64 264 26 283 -19 288 b 133 458 -128 369 -61 553 b 92 808 171 744 149 813 b 290 931 85 868 163 971 b 363 392 471 874 386 556 b 614 396 424 379 563 364 b 594 865 657 718 660 850 b 901 797 625 971 858 1028 b 907 39 942 582 769 -29 b 764 -179 938 -49 883 -179 m 219 1025 b 479 1222 299 1057 403 1218 b 733 1040 556 1226 631 1040 b 481 1040 721 974 603 897 b 219 1025 421 985 335 882 "},"Ḥ":{"ha":925,"x_min":0,"x_max":0,"o":"m 764 -179 b 601 265 563 -179 567 78 b 339 225 533 233 417 210 b 360 -107 317 3 314 -69 b 71 -93 331 -181 136 -262 b 101 265 35 0 79 125 b -64 264 26 283 -19 288 b 133 458 -128 369 -61 553 b 92 808 171 744 149 813 b 290 931 85 868 163 971 b 363 392 471 874 386 556 b 614 396 424 379 563 364 b 594 865 657 718 660 850 b 901 797 625 971 858 1028 b 907 39 942 582 769 -29 b 764 -179 938 -49 883 -179 m 350 -294 b 476 -168 350 -225 407 -168 b 603 -294 546 -168 603 -225 b 476 -422 603 -365 546 -422 b 350 -294 407 -422 350 -365 "},"I":{"ha":467,"x_min":0,"x_max":0,"o":"m 275 -162 b 94 326 142 -162 67 -64 b 25 769 118 664 115 788 b 367 843 22 990 296 1021 b 418 67 464 599 300 32 b 275 -162 468 -33 400 -162 "},"Ĳ":{"ha":1190,"x_min":0,"x_max":0,"o":"m 275 -162 b 94 326 142 -162 67 -64 b 25 769 118 664 115 788 b 367 843 22 990 296 1021 b 381 801 372 829 376 815 b 858 931 385 928 538 1033 b 1042 888 918 913 1011 886 b 1151 757 1232 1142 1463 874 b 982 -250 1082 426 1160 21 b 550 -360 882 -403 676 -436 b 551 36 407 -274 404 -50 b 806 -11 569 -64 693 -136 b 990 738 960 160 893 458 b 404 703 693 736 503 757 b 393 726 400 711 396 718 b 418 67 424 454 317 36 b 275 -162 468 -33 400 -162 "},"Í":{"ha":467,"x_min":0,"x_max":0,"o":"m 275 -162 b 94 326 142 -162 67 -64 b 25 769 118 664 115 788 b 367 843 22 990 296 1021 b 418 67 464 599 300 32 b 275 -162 468 -33 400 -162 m -56 1058 b 149 1167 0 1058 57 1076 b 481 1201 304 1321 425 1249 l 244 1035 b -56 1058 111 940 0 1003 "},"Ǐ":{"ha":467,"x_min":0,"x_max":0,"o":"m 275 -162 b 94 326 142 -162 67 -64 b 25 769 118 664 115 788 b 367 843 22 990 296 1021 b 418 67 464 599 300 32 b 275 -162 468 -33 400 -162 m -43 1143 b 210 1143 -31 1210 88 1286 b 471 1158 269 1199 356 1301 b 200 981 392 1126 276 985 b -43 1143 124 976 60 1143 "},"Î":{"ha":467,"x_min":0,"x_max":0,"o":"m 275 -162 b 94 326 142 -162 67 -64 b 25 769 118 664 115 788 b 367 843 22 990 296 1021 b 418 67 464 599 300 32 b 275 -162 468 -33 400 -162 m -44 1039 b 215 1236 35 1071 139 1232 b 469 1054 292 1240 367 1054 b 217 1054 457 988 339 911 b -44 1039 157 999 71 896 "},"Ï":{"ha":467,"x_min":0,"x_max":0,"o":"m 275 -162 b 94 326 142 -162 67 -64 b 25 769 118 664 115 788 b 367 843 22 990 296 1021 b 418 67 464 599 300 32 b 275 -162 468 -33 400 -162 m -76 1128 b 54 1258 -76 1200 -18 1258 b 185 1128 125 1258 185 1200 b 54 997 185 1056 125 997 b -76 1128 -18 997 -76 1056 m 240 1128 b 371 1258 240 1200 300 1258 b 501 1128 443 1258 501 1200 b 371 997 501 1056 443 997 b 240 1128 300 997 240 1056 "},"Ḯ":{"ha":467,"x_min":0,"x_max":0,"o":"m 275 -162 b 94 326 142 -162 67 -64 b 25 769 118 664 115 788 b 367 843 22 990 296 1021 b 418 67 464 599 300 32 b 275 -162 468 -33 400 -162 m -76 1068 b 54 1156 -76 1117 -18 1156 b 185 1068 125 1156 185 1117 b 54 981 185 1019 125 981 b -76 1068 -18 981 -76 1019 m -56 1199 b 149 1240 0 1199 57 1206 b 481 1253 304 1297 425 1271 l 244 1190 b -56 1199 111 1154 0 1178 m 240 1068 b 371 1156 240 1117 300 1156 b 501 1068 443 1156 501 1117 b 371 981 501 1019 443 981 b 240 1068 300 981 240 1019 "},"İ":{"ha":467,"x_min":0,"x_max":0,"o":"m 275 -162 b 94 326 142 -162 67 -64 b 25 769 118 664 115 788 b 367 843 22 990 296 1021 b 418 67 464 599 300 32 b 275 -162 468 -33 400 -162 m 86 1132 b 213 1258 86 1201 143 1258 b 339 1132 282 1258 339 1201 b 213 1004 339 1061 282 1004 b 86 1132 143 1004 86 1061 "},"Ị":{"ha":467,"x_min":0,"x_max":0,"o":"m 275 -162 b 94 326 142 -162 67 -64 b 25 769 118 664 115 788 b 367 843 22 990 296 1021 b 418 67 464 599 300 32 b 275 -162 468 -33 400 -162 m 128 -317 b 254 -190 128 -247 185 -190 b 381 -317 324 -190 381 -247 b 254 -444 381 -387 324 -444 b 128 -317 185 -444 128 -387 "},"Ì":{"ha":467,"x_min":0,"x_max":0,"o":"m 275 -162 b 94 326 142 -162 67 -64 b 25 769 118 664 115 788 b 367 843 22 990 296 1021 b 418 67 464 599 300 32 b 275 -162 468 -33 400 -162 m -69 1193 b 264 1158 26 1264 124 1313 b 467 1050 343 1071 414 1057 b 168 1026 438 994 332 926 b -69 1193 40 1104 -18 1153 "},"Ỉ":{"ha":467,"x_min":0,"x_max":0,"o":"m 275 -162 b 94 326 142 -162 67 -64 b 25 769 118 664 115 788 b 367 843 22 990 296 1021 b 418 67 464 599 300 32 b 275 -162 468 -33 400 -162 m 49 1132 b 356 1263 49 1325 265 1424 b 235 978 408 1168 357 1057 l 156 985 b 49 1132 306 1085 165 1242 "},"Ī":{"ha":467,"x_min":0,"x_max":0,"o":"m 275 -162 b 94 326 142 -162 67 -64 b 25 769 118 664 115 788 b 367 843 22 990 296 1021 b 418 67 464 599 300 32 b 275 -162 468 -33 400 -162 m -71 1026 b 149 1215 -76 1110 -32 1215 l 496 1215 b 271 1021 489 1094 439 1021 b -71 1026 107 1021 -4 1043 "},"Į":{"ha":467,"x_min":0,"x_max":0,"o":"m 167 -381 b 215 -154 126 -307 147 -225 b 94 326 121 -124 71 -1 b 25 769 118 664 115 788 b 367 843 22 990 296 1021 b 418 67 464 599 300 32 b 313 -158 463 -22 414 -135 b 474 -250 265 -249 378 -340 b 167 -381 474 -443 257 -542 "},"Ɨ":{"ha":467,"x_min":0,"x_max":0,"o":"m 275 -162 b 94 326 142 -162 67 -64 l 96 338 b -4 333 54 340 21 340 b 106 510 -7 400 17 479 b 25 769 113 710 96 783 b 367 843 22 990 296 1021 b 397 522 400 761 403 642 l 493 522 b 383 340 489 431 463 365 b 418 67 369 176 360 50 b 275 -162 468 -33 400 -162 "},"Ĩ":{"ha":467,"x_min":0,"x_max":0,"o":"m 275 -162 b 94 326 142 -162 67 -64 b 25 769 118 664 115 788 b 367 843 22 990 296 1021 b 418 67 464 599 300 32 b 275 -162 468 -33 400 -162 m 21 992 b 282 1181 -161 1142 38 1347 b 372 1232 367 1122 389 1192 b 150 1039 583 1153 446 846 b 21 992 44 1107 15 1035 "},"J":{"ha":724,"x_min":0,"x_max":0,"o":"m 515 -250 b 83 -360 415 -403 210 -436 b 85 36 -60 -274 -62 -50 b 339 -11 103 -64 226 -136 b 524 738 493 160 426 458 b -62 703 226 736 36 757 b 392 931 -147 861 -11 1060 b 575 888 451 913 544 886 b 685 757 765 1142 996 874 b 515 -250 615 426 693 21 "},"Ĵ":{"ha":724,"x_min":0,"x_max":0,"o":"m 515 -250 b 83 -360 415 -403 210 -436 b 85 36 -60 -274 -62 -50 b 339 -11 103 -64 226 -136 b 524 738 493 160 426 458 b -62 703 226 736 36 757 b 392 931 -147 861 -11 1060 b 575 888 451 913 544 886 b 685 757 765 1142 996 874 b 515 -250 615 426 693 21 m 250 1067 b 510 1264 329 1099 433 1260 b 764 1082 586 1268 661 1082 b 511 1082 751 1015 633 939 b 250 1067 451 1026 365 924 "},"K":{"ha":767,"x_min":0,"x_max":0,"o":"m 729 -419 b 307 375 426 -350 476 349 b 269 328 296 365 281 350 b 278 -107 239 51 238 -71 b -15 11 247 -181 -15 -247 b 10 808 -15 269 99 808 b 169 938 1 893 88 957 b 289 533 272 913 331 858 b 718 944 421 724 675 793 b 675 589 906 893 876 664 b 432 475 593 558 478 504 b 685 163 560 464 640 338 b 906 -136 753 -108 864 -193 b 729 -419 1031 -210 958 -472 "},"Ǩ":{"ha":767,"x_min":0,"x_max":0,"o":"m 729 -419 b 307 375 426 -350 476 349 b 269 328 296 365 281 350 b 278 -107 239 51 238 -71 b -15 11 247 -181 -15 -247 b 10 808 -15 269 99 808 b 169 938 1 893 88 957 b 289 533 272 913 331 858 b 718 944 421 724 675 793 b 675 589 906 893 876 664 b 432 475 593 558 478 504 b 685 163 560 464 640 338 b 906 -136 753 -108 864 -193 b 729 -419 1031 -210 958 -472 m 121 1129 b 374 1129 133 1196 251 1272 b 635 1144 433 1185 519 1288 b 364 967 556 1113 440 971 b 121 1129 288 963 224 1129 "},"Ķ":{"ha":767,"x_min":0,"x_max":0,"o":"m 729 -419 b 307 375 426 -350 476 349 b 269 328 296 365 281 350 b 278 -107 239 51 238 -71 b -15 11 247 -181 -15 -247 b 10 808 -15 269 99 808 b 169 938 1 893 88 957 b 289 533 272 913 331 858 b 718 944 421 724 675 793 b 675 589 906 893 876 664 b 432 475 593 558 478 504 b 685 163 560 464 640 338 b 906 -136 753 -108 864 -193 b 729 -419 1031 -210 958 -472 m 163 -318 b 299 -182 163 -242 225 -182 b 246 -590 525 -182 494 -524 b 297 -451 265 -553 286 -494 b 163 -318 214 -458 163 -383 "},"Ḵ":{"ha":767,"x_min":0,"x_max":0,"o":"m 729 -419 b 571 -289 660 -404 610 -356 b 365 -389 543 -353 483 -389 b 24 -383 201 -389 90 -367 b 243 -194 18 -300 63 -194 l 525 -194 b 307 375 436 36 421 357 b 269 328 296 365 281 350 b 278 -107 239 51 238 -71 b -15 11 247 -181 -15 -247 b 10 808 -15 269 99 808 b 169 938 1 893 88 957 b 289 533 272 913 331 858 b 718 944 421 724 675 793 b 675 589 906 893 876 664 b 432 475 593 558 478 504 b 685 163 560 464 640 338 b 906 -136 753 -108 864 -193 b 729 -419 1031 -210 958 -472 "},"L":{"ha":575,"x_min":0,"x_max":0,"o":"m 100 -358 b -58 -68 -93 -401 -189 -179 b 193 10 6 -14 96 10 b 224 894 175 317 -68 760 b 446 628 429 989 572 785 b 379 629 429 658 401 656 b 356 0 311 546 385 251 b 954 -44 592 -22 828 -93 b 501 -258 981 -228 843 -408 b 308 -179 413 -219 365 -194 b 100 -358 271 -246 193 -337 m 75 -179 b 100 -240 29 -211 51 -262 b 188 -150 142 -221 174 -187 b 75 -179 153 -150 100 -162 "},"Ĺ":{"ha":575,"x_min":0,"x_max":0,"o":"m 100 -358 b -58 -68 -93 -401 -189 -179 b 193 10 6 -14 96 10 b 224 894 175 317 -68 760 b 446 628 429 989 572 785 b 379 629 429 658 401 656 b 356 0 311 546 385 251 b 954 -44 592 -22 828 -93 b 501 -258 981 -228 843 -408 b 308 -179 413 -219 365 -194 b 100 -358 271 -246 193 -337 m 75 -179 b 100 -240 29 -211 51 -262 b 188 -150 142 -221 174 -187 b 75 -179 153 -150 100 -162 m 82 1008 b 286 1117 138 1008 194 1026 b 618 1151 442 1271 563 1199 l 382 985 b 82 1008 249 890 138 953 "},"Ľ":{"ha":575,"x_min":0,"x_max":0,"o":"m 100 -358 b -58 -68 -93 -401 -189 -179 b 193 10 6 -14 96 10 b 224 894 175 317 -68 760 b 446 628 429 989 572 785 b 379 629 429 658 401 656 b 356 0 311 546 385 251 b 954 -44 592 -22 828 -93 b 501 -258 981 -228 843 -408 b 308 -179 413 -219 365 -194 b 100 -358 271 -246 193 -337 m 75 -179 b 100 -240 29 -211 51 -262 b 188 -150 142 -221 174 -187 b 75 -179 153 -150 100 -162 m 508 885 b 617 993 508 944 557 993 b 682 969 642 993 664 985 b 597 668 779 885 685 689 b 508 885 597 788 508 775 "},"Ḽ":{"ha":575,"x_min":0,"x_max":0,"o":"m 100 -358 b -58 -68 -93 -401 -189 -179 b 193 10 6 -14 96 10 b 224 894 175 317 -68 760 b 446 628 429 989 572 785 b 379 629 429 658 401 656 b 356 0 311 546 385 251 b 954 -44 592 -22 828 -93 b 501 -258 981 -228 843 -408 b 308 -179 413 -219 365 -194 b 100 -358 271 -246 193 -337 m 75 -179 b 100 -240 29 -211 51 -262 b 188 -150 142 -221 174 -187 b 75 -179 153 -150 100 -162 m 133 -510 b 393 -312 213 -478 317 -317 b 647 -494 469 -308 544 -494 b 394 -494 635 -561 517 -637 b 133 -510 335 -550 249 -653 "},"Ļ":{"ha":575,"x_min":0,"x_max":0,"o":"m 100 -358 b -58 -68 -93 -401 -189 -179 b 193 10 6 -14 96 10 b 224 894 175 317 -68 760 b 446 628 429 989 572 785 b 379 629 429 658 401 656 b 356 0 311 546 385 251 b 954 -44 592 -22 828 -93 b 501 -258 981 -228 843 -408 b 308 -179 413 -219 365 -194 b 100 -358 271 -246 193 -337 m 75 -179 b 100 -240 29 -211 51 -262 b 188 -150 142 -221 174 -187 b 75 -179 153 -150 100 -162 m 246 -454 b 382 -318 246 -378 308 -318 b 329 -726 608 -318 578 -660 b 381 -587 349 -689 369 -631 b 246 -454 297 -594 246 -519 "},"Ḷ":{"ha":575,"x_min":0,"x_max":0,"o":"m 100 -358 b -58 -68 -93 -401 -189 -179 b 193 10 6 -14 96 10 b 224 894 175 317 -68 760 b 446 628 429 989 572 785 b 379 629 429 658 401 656 b 356 0 311 546 385 251 b 954 -44 592 -22 828 -93 b 501 -258 981 -228 843 -408 b 308 -179 413 -219 365 -194 b 100 -358 271 -246 193 -337 m 75 -179 b 100 -240 29 -211 51 -262 b 188 -150 142 -221 174 -187 b 75 -179 153 -150 100 -162 m 264 -444 b 390 -318 264 -375 321 -318 b 517 -444 460 -318 517 -375 b 390 -572 517 -515 460 -572 b 264 -444 321 -572 264 -515 "},"Ḹ":{"ha":575,"x_min":0,"x_max":0,"o":"m 100 -358 b -58 -68 -93 -401 -189 -179 b 193 10 6 -14 96 10 b 224 894 175 317 -68 760 b 446 628 429 989 572 785 b 379 629 429 658 401 656 b 356 0 311 546 385 251 b 954 -44 592 -22 828 -93 b 501 -258 981 -228 843 -408 b 308 -179 413 -219 365 -194 b 100 -358 271 -246 193 -337 m 67 976 b 286 1165 61 1060 106 1165 l 633 1165 b 408 971 626 1044 576 971 b 67 976 244 971 133 993 m 75 -179 b 100 -240 29 -211 51 -262 b 188 -150 142 -221 174 -187 b 75 -179 153 -150 100 -162 m 264 -444 b 390 -318 264 -375 321 -318 b 517 -444 460 -318 517 -375 b 390 -572 517 -515 460 -572 b 264 -444 321 -572 264 -515 "},"Ḻ":{"ha":575,"x_min":0,"x_max":0,"o":"m 100 -358 b -58 -68 -93 -401 -189 -179 b 193 10 6 -14 96 10 b 224 894 175 317 -68 760 b 446 628 429 989 572 785 b 379 629 429 658 401 656 b 356 0 311 546 385 251 b 954 -44 592 -22 828 -93 b 501 -258 981 -228 843 -408 b 308 -179 413 -219 365 -194 b 100 -358 271 -246 193 -337 m 75 -179 b 100 -240 29 -211 51 -262 b 188 -150 142 -221 174 -187 b 75 -179 153 -150 100 -162 m 107 -519 b 326 -331 101 -436 146 -331 l 674 -331 b 449 -525 667 -451 617 -525 b 107 -519 285 -525 174 -503 "},"Ł":{"ha":575,"x_min":0,"x_max":0,"o":"m 100 -358 b -58 -68 -93 -401 -189 -179 b 193 10 6 -14 96 10 b 168 174 190 61 181 117 b 39 124 107 157 60 142 b 126 351 -7 161 -64 253 b 224 894 72 582 31 806 b 446 628 429 989 572 785 b 379 629 429 658 401 656 b 350 439 351 596 347 526 l 508 496 b 361 236 544 440 574 321 b 356 0 364 158 364 76 b 954 -44 592 -22 828 -93 b 501 -258 981 -228 843 -408 b 308 -179 413 -219 365 -194 b 100 -358 271 -246 193 -337 m 75 -179 b 100 -240 29 -211 51 -262 b 188 -150 142 -221 174 -187 b 75 -179 153 -150 100 -162 "},"M":{"ha":1269,"x_min":0,"x_max":0,"o":"m 108 -183 b 54 418 -10 -140 -17 24 b 36 775 106 701 78 764 b 228 910 47 882 147 933 b 315 686 303 888 333 807 b 547 869 363 785 443 869 b 747 633 653 869 728 799 b 1138 869 836 810 978 931 b 1239 -175 1428 760 1085 -60 b 939 -147 1146 -276 992 -269 b 943 633 860 36 1049 583 b 747 268 878 664 775 472 b 774 -131 729 106 732 -78 b 474 -103 692 -239 513 -215 b 482 667 403 103 607 667 b 268 106 363 667 289 288 b 307 -131 267 -10 275 -100 b 108 -183 268 -178 182 -210 "},"Ḿ":{"ha":1269,"x_min":0,"x_max":0,"o":"m 108 -183 b 54 418 -10 -140 -17 24 b 36 775 106 701 78 764 b 228 910 47 882 147 933 b 315 686 303 888 333 807 b 547 869 363 785 443 869 b 747 633 653 869 728 799 b 1138 869 836 810 978 931 b 1239 -175 1428 760 1085 -60 b 939 -147 1146 -276 992 -269 b 943 633 860 36 1049 583 b 747 268 878 664 775 472 b 774 -131 729 106 732 -78 b 474 -103 692 -239 513 -215 b 482 667 403 103 607 667 b 268 106 363 667 289 288 b 307 -131 267 -10 275 -100 b 108 -183 268 -178 182 -210 m 374 1044 b 578 1153 429 1044 486 1063 b 910 1188 733 1307 854 1235 l 674 1021 b 374 1044 540 926 429 989 "},"Ṁ":{"ha":1269,"x_min":0,"x_max":0,"o":"m 108 -183 b 54 418 -10 -140 -17 24 b 36 775 106 701 78 764 b 228 910 47 882 147 933 b 315 686 303 888 333 807 b 547 869 363 785 443 869 b 747 633 653 869 728 799 b 1138 869 836 810 978 931 b 1239 -175 1428 760 1085 -60 b 939 -147 1146 -276 992 -269 b 943 633 860 36 1049 583 b 747 268 878 664 775 472 b 774 -131 729 106 732 -78 b 474 -103 692 -239 513 -215 b 482 667 403 103 607 667 b 268 106 363 667 289 288 b 307 -131 267 -10 275 -100 b 108 -183 268 -178 182 -210 m 515 1118 b 642 1244 515 1188 572 1244 b 768 1118 711 1244 768 1188 b 642 990 768 1047 711 990 b 515 1118 572 990 515 1047 "},"Ṃ":{"ha":1269,"x_min":0,"x_max":0,"o":"m 108 -183 b 54 418 -10 -140 -17 24 b 36 775 106 701 78 764 b 228 910 47 882 147 933 b 315 686 303 888 333 807 b 547 869 363 785 443 869 b 747 633 653 869 728 799 b 1138 869 836 810 978 931 b 1239 -175 1428 760 1085 -60 b 939 -147 1146 -276 992 -269 b 943 633 860 36 1049 583 b 747 268 878 664 775 472 b 774 -131 729 106 732 -78 l 764 -142 b 768 -172 767 -151 768 -161 b 642 -300 768 -243 711 -300 b 515 -172 572 -300 515 -243 l 515 -162 b 474 -103 497 -147 482 -126 b 482 667 403 103 607 667 b 268 106 363 667 289 288 b 307 -131 267 -10 275 -100 b 108 -183 268 -178 182 -210 "},"N":{"ha":888,"x_min":0,"x_max":0,"o":"m 94 -183 b 40 396 -22 -142 -24 -31 b 22 775 89 717 65 758 b 218 938 -7 886 121 974 b 292 600 293 910 324 803 b 661 901 365 740 510 914 b 888 -131 1026 871 686 -65 b 572 -164 821 -262 636 -269 b 524 639 443 49 686 603 b 253 97 400 667 253 376 b 292 -131 251 -14 260 -101 b 94 -183 256 -179 172 -211 "},"Ń":{"ha":888,"x_min":0,"x_max":0,"o":"m 94 -183 b 40 396 -22 -142 -24 -31 b 22 775 89 717 65 758 b 218 938 -7 886 121 974 b 292 600 293 910 324 803 b 661 901 365 740 510 914 b 888 -131 1026 871 686 -65 b 572 -164 821 -262 636 -269 b 524 639 443 49 686 603 b 253 97 400 667 253 376 b 292 -131 251 -14 260 -101 b 94 -183 256 -179 172 -211 m 242 993 b 446 1101 297 993 354 1011 b 778 1136 601 1256 722 1183 l 542 969 b 242 993 408 875 297 938 "},"Ň":{"ha":888,"x_min":0,"x_max":0,"o":"m 94 -183 b 40 396 -22 -142 -24 -31 b 22 775 89 717 65 758 b 218 938 -7 886 121 974 b 292 600 293 910 324 803 b 661 901 365 740 510 914 b 888 -131 1026 871 686 -65 b 572 -164 821 -262 636 -269 b 524 639 443 49 686 603 b 253 97 400 667 253 376 b 292 -131 251 -14 260 -101 b 94 -183 256 -179 172 -211 m 254 1078 b 507 1078 267 1144 385 1221 b 768 1093 567 1133 653 1236 b 497 915 689 1061 574 919 b 254 1078 421 911 357 1078 "},"Ṋ":{"ha":888,"x_min":0,"x_max":0,"o":"m 94 -183 b 40 396 -22 -142 -24 -31 b 22 775 89 717 65 758 b 218 938 -7 886 121 974 b 292 600 293 910 324 803 b 661 901 365 740 510 914 b 888 -131 1026 871 686 -65 b 572 -164 821 -262 636 -269 b 524 639 443 49 686 603 b 253 97 400 667 253 376 b 292 -131 251 -14 260 -101 b 94 -183 256 -179 172 -211 m 121 -372 b 381 -175 200 -340 304 -179 b 635 -357 457 -171 532 -357 b 382 -357 622 -424 504 -500 b 121 -372 322 -412 236 -515 "},"Ņ":{"ha":888,"x_min":0,"x_max":0,"o":"m 94 -183 b 40 396 -22 -142 -24 -31 b 22 775 89 717 65 758 b 218 938 -7 886 121 974 b 292 600 293 910 324 803 b 661 901 365 740 510 914 b 888 -131 1026 871 686 -65 b 572 -164 821 -262 636 -269 b 524 639 443 49 686 603 b 253 97 400 667 253 376 b 292 -131 251 -14 260 -101 b 94 -183 256 -179 172 -211 m 233 -317 b 369 -181 233 -240 296 -181 b 317 -589 596 -181 565 -522 b 368 -450 336 -551 357 -493 b 233 -317 285 -457 233 -382 "},"Ṅ":{"ha":888,"x_min":0,"x_max":0,"o":"m 94 -183 b 40 396 -22 -142 -24 -31 b 22 775 89 717 65 758 b 218 938 -7 886 121 974 b 292 600 293 910 324 803 b 661 901 365 740 510 914 b 888 -131 1026 871 686 -65 b 572 -164 821 -262 636 -269 b 524 639 443 49 686 603 b 253 97 400 667 253 376 b 292 -131 251 -14 260 -101 b 94 -183 256 -179 172 -211 m 383 1067 b 510 1193 383 1136 440 1193 b 636 1067 579 1193 636 1136 b 510 939 636 996 579 939 b 383 1067 440 939 383 996 "},"Ṇ":{"ha":888,"x_min":0,"x_max":0,"o":"m 94 -183 b 40 396 -22 -142 -24 -31 b 22 775 89 717 65 758 b 218 938 -7 886 121 974 b 292 600 293 910 324 803 b 661 901 365 740 510 914 b 888 -131 1026 871 686 -65 b 572 -164 821 -262 636 -269 b 524 639 443 49 686 603 b 253 97 400 667 253 376 b 292 -131 251 -14 260 -101 b 94 -183 256 -179 172 -211 m 251 -307 b 378 -181 251 -237 308 -181 b 504 -307 447 -181 504 -237 b 378 -435 504 -378 447 -435 b 251 -307 308 -435 251 -378 "},"Ṉ":{"ha":888,"x_min":0,"x_max":0,"o":"m 94 -183 b 40 396 -22 -142 -24 -31 b 22 775 89 717 65 758 b 218 938 -7 886 121 974 b 292 600 293 910 324 803 b 661 901 365 740 510 914 b 888 -131 1026 871 686 -65 b 657 -229 842 -222 738 -254 b 436 -387 643 -328 588 -387 b 94 -382 272 -387 161 -365 b 314 -193 89 -299 133 -193 l 596 -193 b 572 -164 586 -185 579 -175 b 524 639 443 49 686 603 b 253 97 400 667 253 376 b 292 -131 251 -14 260 -101 b 94 -183 256 -179 172 -211 "},"Ñ":{"ha":888,"x_min":0,"x_max":0,"o":"m 94 -183 b 40 396 -22 -142 -24 -31 b 22 775 89 717 65 758 b 218 938 -7 886 121 974 b 292 600 293 910 324 803 b 661 901 365 740 510 914 b 888 -131 1026 871 686 -65 b 572 -164 821 -262 636 -269 b 524 639 443 49 686 603 b 253 97 400 667 253 376 b 292 -131 251 -14 260 -101 b 94 -183 256 -179 172 -211 m 318 926 b 579 1115 136 1076 335 1282 b 669 1167 664 1057 686 1126 b 447 974 881 1088 743 781 b 318 926 342 1042 313 969 "},"Ŋ":{"ha":929,"x_min":0,"x_max":0,"o":"m 572 -442 b 524 639 443 -229 686 603 b 253 97 400 667 274 347 b 292 -131 251 -14 260 -101 b 94 -183 256 -179 172 -211 b 40 396 -22 -142 -24 -31 b 22 775 89 717 65 790 b 301 643 -39 964 401 1042 l 297 578 b 661 901 351 718 510 914 b 888 -408 1026 871 686 -343 b 572 -442 821 -540 636 -547 "},"O":{"ha":958,"x_min":0,"x_max":0,"o":"m 528 -121 b 60 585 211 -178 -7 150 b 381 1014 101 858 250 985 b 596 958 456 1031 543 1007 b 851 818 676 978 790 910 b 976 907 888 822 946 864 b 896 664 1057 829 1019 715 b 528 -121 990 297 819 -67 m 325 464 b 622 122 325 221 464 83 b 803 650 767 158 851 404 b 518 869 614 633 507 769 b 440 825 489 860 461 844 b 325 464 356 746 325 621 "},"Ó":{"ha":958,"x_min":0,"x_max":0,"o":"m 528 -121 b 60 585 211 -178 -7 150 b 381 1014 101 858 250 985 b 596 958 456 1031 543 1007 b 851 818 676 978 790 910 b 976 907 888 822 946 864 b 896 664 1057 829 1019 715 b 528 -121 990 297 819 -67 m 261 1117 b 465 1225 317 1117 374 1135 b 797 1260 621 1379 742 1307 l 561 1093 b 261 1117 428 999 317 1061 m 325 464 b 622 122 325 221 464 83 b 803 650 767 158 851 404 b 518 869 614 633 507 769 b 440 825 489 860 461 844 b 325 464 356 746 325 621 "},"Ǒ":{"ha":958,"x_min":0,"x_max":0,"o":"m 528 -121 b 60 585 211 -178 -7 150 b 381 1014 101 858 250 985 b 596 958 456 1031 543 1007 b 851 818 676 978 790 910 b 976 907 888 822 946 864 b 896 664 1057 829 1019 715 b 528 -121 990 297 819 -67 m 274 1201 b 526 1201 286 1268 404 1344 b 788 1217 586 1257 672 1360 b 517 1039 708 1185 593 1043 b 274 1201 440 1035 376 1201 m 325 464 b 622 122 325 221 464 83 b 803 650 767 158 851 404 b 518 869 614 633 507 769 b 440 825 489 860 461 844 b 325 464 356 746 325 621 "},"Ô":{"ha":958,"x_min":0,"x_max":0,"o":"m 528 -121 b 60 585 211 -178 -7 150 b 381 1014 101 858 250 985 b 596 958 456 1031 543 1007 b 851 818 676 978 790 910 b 976 907 888 822 946 864 b 896 664 1057 829 1019 715 b 528 -121 990 297 819 -67 m 272 1097 b 532 1294 351 1129 456 1290 b 786 1113 608 1299 683 1113 b 533 1113 774 1046 656 969 b 272 1097 474 1057 388 954 m 325 464 b 622 122 325 221 464 83 b 803 650 767 158 851 404 b 518 869 614 633 507 769 b 440 825 489 860 461 844 b 325 464 356 746 325 621 "},"Ố":{"ha":958,"x_min":0,"x_max":0,"o":"m 528 -121 b 60 585 211 -178 -7 150 b 381 1014 101 858 250 985 l 393 1017 b 272 1060 357 1015 317 1026 b 532 1179 351 1079 456 1176 b 786 1069 608 1181 683 1069 b 533 1069 774 1029 656 983 b 418 1019 503 1053 464 1026 b 596 958 483 1022 551 999 b 851 818 676 978 790 910 b 976 907 888 822 946 864 b 896 664 1057 829 1019 715 b 528 -121 990 297 819 -67 m 261 1226 b 465 1292 317 1226 374 1238 b 797 1314 621 1385 742 1342 l 561 1213 b 261 1226 428 1156 317 1193 m 325 464 b 622 122 325 221 464 83 b 803 650 767 158 851 404 b 518 869 614 633 507 769 b 440 825 489 860 461 844 b 325 464 356 746 325 621 "},"Ộ":{"ha":958,"x_min":0,"x_max":0,"o":"m 528 -121 b 60 585 211 -178 -7 150 b 381 1014 101 858 250 985 b 596 958 456 1031 543 1007 b 851 818 676 978 790 910 b 976 907 888 822 946 864 b 896 664 1057 829 1019 715 b 528 -121 990 297 819 -67 m 272 1097 b 532 1294 351 1129 456 1290 b 786 1113 608 1299 683 1113 b 533 1113 774 1046 656 969 b 272 1097 474 1057 388 954 m 324 -293 b 450 -167 324 -224 381 -167 b 576 -293 519 -167 576 -224 b 450 -421 576 -364 519 -421 b 324 -293 381 -421 324 -364 m 325 464 b 622 122 325 221 464 83 b 803 650 767 158 851 404 b 518 869 614 633 507 769 b 440 825 489 860 461 844 b 325 464 356 746 325 621 "},"Ồ":{"ha":958,"x_min":0,"x_max":0,"o":"m 528 -121 b 60 585 211 -178 -7 150 b 381 1014 101 858 250 985 l 396 1017 b 272 1064 360 1015 318 1026 b 532 1190 351 1083 456 1188 b 786 1074 608 1193 683 1074 b 533 1074 774 1031 656 982 b 414 1018 501 1054 463 1026 b 596 958 481 1022 551 1000 b 851 818 676 978 790 910 b 976 907 888 822 946 864 b 896 664 1057 829 1019 715 b 528 -121 990 297 819 -67 m 247 1328 b 581 1306 343 1374 440 1404 b 783 1236 660 1250 731 1240 b 485 1221 754 1200 649 1157 b 247 1328 357 1271 299 1303 m 325 464 b 622 122 325 221 464 83 b 803 650 767 158 851 404 b 518 869 614 633 507 769 b 440 825 489 860 461 844 b 325 464 356 746 325 621 "},"Ổ":{"ha":958,"x_min":0,"x_max":0,"o":"m 528 -121 b 60 585 211 -178 -7 150 b 381 1014 101 858 250 985 l 385 1015 b 272 1054 350 1015 314 1026 b 504 1157 342 1069 431 1140 l 472 1158 b 365 1213 622 1194 482 1253 b 672 1260 365 1283 582 1319 b 560 1158 724 1226 676 1186 b 786 1063 628 1140 696 1063 b 533 1063 774 1026 656 985 b 431 1019 506 1049 471 1028 b 596 958 492 1019 554 996 b 851 818 676 978 790 910 b 976 907 888 822 946 864 b 896 664 1057 829 1019 715 b 528 -121 990 297 819 -67 m 325 464 b 622 122 325 221 464 83 b 803 650 767 158 851 404 b 518 869 614 633 507 769 b 440 825 489 860 461 844 b 325 464 356 746 325 621 "},"Ỗ":{"ha":958,"x_min":0,"x_max":0,"o":"m 528 -121 b 60 585 211 -178 -7 150 b 381 1014 101 858 250 985 l 388 1015 b 272 1058 353 1015 315 1026 b 532 1175 351 1078 456 1174 b 786 1068 608 1178 683 1068 b 533 1068 774 1028 656 983 b 424 1019 504 1051 467 1028 b 596 958 488 1021 553 997 b 851 818 676 978 790 910 b 976 907 888 822 946 864 b 896 664 1057 829 1019 715 b 528 -121 990 297 819 -67 m 325 464 b 622 122 325 221 464 83 b 803 650 767 158 851 404 b 518 869 614 633 507 769 b 440 825 489 860 461 844 b 325 464 356 746 325 621 m 338 1183 b 599 1296 156 1272 354 1394 b 689 1326 683 1261 706 1301 b 467 1211 900 1279 763 1097 b 338 1183 361 1251 332 1210 "},"Ö":{"ha":958,"x_min":0,"x_max":0,"o":"m 528 -121 b 60 585 211 -178 -7 150 b 381 1014 101 858 250 985 b 596 958 456 1031 543 1007 b 851 818 676 978 790 910 b 976 907 888 822 946 864 b 896 664 1057 829 1019 715 b 528 -121 990 297 819 -67 m 240 1186 b 371 1317 240 1258 299 1317 b 501 1186 442 1317 501 1258 b 371 1056 501 1114 442 1056 b 240 1186 299 1056 240 1114 m 325 464 b 622 122 325 221 464 83 b 803 650 767 158 851 404 b 518 869 614 633 507 769 b 440 825 489 860 461 844 b 325 464 356 746 325 621 m 557 1186 b 688 1317 557 1258 617 1317 b 818 1186 760 1317 818 1258 b 688 1056 818 1114 760 1056 b 557 1186 617 1056 557 1114 "},"Ȫ":{"ha":958,"x_min":0,"x_max":0,"o":"m 528 -121 b 60 585 211 -178 -7 150 b 381 1014 101 858 250 985 b 596 958 456 1031 543 1007 b 851 818 676 978 790 910 b 976 907 888 822 946 864 b 896 664 1057 829 1019 715 b 528 -121 990 297 819 -67 m 240 1126 b 371 1214 240 1175 299 1214 b 501 1126 442 1214 501 1175 b 371 1039 501 1078 442 1039 b 240 1126 299 1039 240 1078 m 246 1251 b 465 1339 240 1290 285 1339 l 813 1339 b 588 1249 806 1283 756 1249 b 246 1251 424 1249 313 1260 m 325 464 b 622 122 325 221 464 83 b 803 650 767 158 851 404 b 518 869 614 633 507 769 b 440 825 489 860 461 844 b 325 464 356 746 325 621 m 557 1126 b 688 1214 557 1175 617 1214 b 818 1126 760 1214 818 1175 b 688 1039 818 1078 760 1039 b 557 1126 617 1039 557 1078 "},"Ọ":{"ha":958,"x_min":0,"x_max":0,"o":"m 528 -121 b 60 585 211 -178 -7 150 b 381 1014 101 858 250 985 b 596 958 456 1031 543 1007 b 851 818 676 978 790 910 b 976 907 888 822 946 864 b 896 664 1057 829 1019 715 b 528 -121 990 297 819 -67 m 324 -293 b 450 -167 324 -224 381 -167 b 576 -293 519 -167 576 -224 b 450 -421 576 -364 519 -421 b 324 -293 381 -421 324 -364 m 325 464 b 622 122 325 221 464 83 b 803 650 767 158 851 404 b 518 869 614 633 507 769 b 440 825 489 860 461 844 b 325 464 356 746 325 621 "},"Ò":{"ha":958,"x_min":0,"x_max":0,"o":"m 528 -121 b 60 585 211 -178 -7 150 b 381 1014 101 858 250 985 b 596 958 456 1031 543 1007 b 851 818 676 978 790 910 b 976 907 888 822 946 864 b 896 664 1057 829 1019 715 b 528 -121 990 297 819 -67 m 247 1251 b 581 1217 343 1322 440 1371 b 783 1108 660 1129 731 1115 b 485 1085 754 1053 649 985 b 247 1251 357 1163 299 1211 m 325 464 b 622 122 325 221 464 83 b 803 650 767 158 851 404 b 518 869 614 633 507 769 b 440 825 489 860 461 844 b 325 464 356 746 325 621 "},"Ỏ":{"ha":958,"x_min":0,"x_max":0,"o":"m 528 -121 b 60 585 211 -178 -7 150 b 381 1014 101 858 250 985 b 596 958 456 1031 543 1007 b 851 818 676 978 790 910 b 976 907 888 822 946 864 b 896 664 1057 829 1019 715 b 528 -121 990 297 819 -67 m 325 464 b 622 122 325 221 464 83 b 803 650 767 158 851 404 b 518 869 614 633 507 769 b 440 825 489 860 461 844 b 325 464 356 746 325 621 m 365 1190 b 672 1321 365 1383 582 1482 b 551 1036 725 1226 674 1115 l 472 1043 b 365 1190 622 1143 482 1300 "},"Ơ":{"ha":958,"x_min":0,"x_max":0,"o":"m 528 -121 b 60 585 211 -178 -7 150 b 381 1014 101 858 250 985 b 596 958 456 1031 543 1007 b 849 822 675 976 786 911 b 931 1017 939 846 989 911 b 1138 839 1065 1089 1206 992 b 986 728 1111 779 1054 743 b 896 664 965 703 935 681 b 528 -121 990 297 819 -67 m 325 464 b 622 122 325 221 464 83 b 803 650 767 158 851 404 b 518 869 614 633 507 769 b 440 825 489 860 461 844 b 325 464 356 746 325 621 "},"Ớ":{"ha":958,"x_min":0,"x_max":0,"o":"m 528 -121 b 60 585 211 -178 -7 150 b 381 1014 101 858 250 985 b 596 958 456 1031 543 1007 b 849 822 675 976 786 911 b 931 1017 939 846 989 911 b 1138 839 1065 1089 1206 992 b 986 728 1111 779 1054 743 b 896 664 965 703 935 681 b 528 -121 990 297 819 -67 m 261 1117 b 465 1225 317 1117 374 1135 b 797 1260 621 1379 742 1307 l 561 1093 b 261 1117 428 999 317 1061 m 325 464 b 622 122 325 221 464 83 b 803 650 767 158 851 404 b 518 869 614 633 507 769 b 440 825 489 860 461 844 b 325 464 356 746 325 621 "},"Ợ":{"ha":958,"x_min":0,"x_max":0,"o":"m 528 -121 b 60 585 211 -178 -7 150 b 381 1014 101 858 250 985 b 596 958 456 1031 543 1007 b 849 822 675 976 786 911 b 931 1017 939 846 989 911 b 1138 839 1065 1089 1206 992 b 986 728 1111 779 1054 743 b 896 664 965 703 935 681 b 528 -121 990 297 819 -67 m 324 -293 b 450 -167 324 -224 381 -167 b 576 -293 519 -167 576 -224 b 450 -421 576 -364 519 -421 b 324 -293 381 -421 324 -364 m 325 464 b 622 122 325 221 464 83 b 803 650 767 158 851 404 b 518 869 614 633 507 769 b 440 825 489 860 461 844 b 325 464 356 746 325 621 "},"Ờ":{"ha":958,"x_min":0,"x_max":0,"o":"m 528 -121 b 60 585 211 -178 -7 150 b 381 1014 101 858 250 985 b 596 958 456 1031 543 1007 b 849 822 675 976 786 911 b 931 1017 939 846 989 911 b 1138 839 1065 1089 1206 992 b 986 728 1111 779 1054 743 b 896 664 965 703 935 681 b 528 -121 990 297 819 -67 m 247 1251 b 581 1217 343 1322 440 1371 b 783 1108 660 1129 731 1115 b 485 1085 754 1053 649 985 b 247 1251 357 1163 299 1211 m 325 464 b 622 122 325 221 464 83 b 803 650 767 158 851 404 b 518 869 614 633 507 769 b 440 825 489 860 461 844 b 325 464 356 746 325 621 "},"Ở":{"ha":958,"x_min":0,"x_max":0,"o":"m 528 -121 b 60 585 211 -178 -7 150 b 381 1014 101 858 250 985 b 596 958 456 1031 543 1007 b 849 822 675 976 786 911 b 931 1017 939 846 989 911 b 1138 839 1065 1089 1206 992 b 986 728 1111 779 1054 743 b 896 664 965 703 935 681 b 528 -121 990 297 819 -67 m 325 464 b 622 122 325 221 464 83 b 803 650 767 158 851 404 b 518 869 614 633 507 769 b 440 825 489 860 461 844 b 325 464 356 746 325 621 m 365 1190 b 672 1321 365 1383 582 1482 b 551 1036 725 1226 674 1115 l 472 1043 b 365 1190 622 1143 482 1300 "},"Ỡ":{"ha":958,"x_min":0,"x_max":0,"o":"m 528 -121 b 60 585 211 -178 -7 150 b 381 1014 101 858 250 985 b 596 958 456 1031 543 1007 b 849 822 675 976 786 911 b 931 1017 939 846 989 911 b 1138 839 1065 1089 1206 992 b 986 728 1111 779 1054 743 b 896 664 965 703 935 681 b 528 -121 990 297 819 -67 m 325 464 b 622 122 325 221 464 83 b 803 650 767 158 851 404 b 518 869 614 633 507 769 b 440 825 489 860 461 844 b 325 464 356 746 325 621 m 338 1050 b 599 1239 156 1200 354 1406 b 689 1290 683 1181 706 1250 b 467 1097 900 1211 763 904 b 338 1050 361 1165 332 1093 "},"Ő":{"ha":958,"x_min":0,"x_max":0,"o":"m 528 -121 b 60 585 211 -178 -7 150 b 381 1014 101 858 250 985 b 596 958 456 1031 543 1007 b 851 818 676 978 790 910 b 976 907 888 822 946 864 b 896 664 1057 829 1019 715 b 528 -121 990 297 819 -67 m 233 1132 b 369 1240 271 1132 308 1150 b 590 1275 472 1394 553 1322 l 433 1108 b 233 1132 344 1014 271 1076 m 325 464 b 622 122 325 221 464 83 b 803 650 767 158 851 404 b 518 869 614 633 507 769 b 440 825 489 860 461 844 b 325 464 356 746 325 621 m 468 1132 b 604 1240 506 1132 543 1150 b 825 1275 707 1394 788 1322 l 668 1108 b 468 1132 579 1014 506 1076 "},"Ō":{"ha":958,"x_min":0,"x_max":0,"o":"m 528 -121 b 60 585 211 -178 -7 150 b 381 1014 101 858 250 985 b 596 958 456 1031 543 1007 b 851 818 676 978 790 910 b 976 907 888 822 946 864 b 896 664 1057 829 1019 715 b 528 -121 990 297 819 -67 m 246 1085 b 465 1274 240 1168 285 1274 l 813 1274 b 588 1079 806 1153 756 1079 b 246 1085 424 1079 313 1101 m 325 464 b 622 122 325 221 464 83 b 803 650 767 158 851 404 b 518 869 614 633 507 769 b 440 825 489 860 461 844 b 325 464 356 746 325 621 "},"Ṓ":{"ha":958,"x_min":0,"x_max":0,"o":"m 528 -121 b 60 585 211 -178 -7 150 b 381 1014 101 858 250 985 b 596 958 456 1031 543 1007 b 851 818 676 978 790 910 b 976 907 888 822 946 864 b 896 664 1057 829 1019 715 b 528 -121 990 297 819 -67 m 246 1056 b 465 1174 240 1107 285 1174 l 813 1174 b 588 1051 806 1097 756 1051 b 246 1056 424 1051 313 1065 m 261 1243 b 465 1311 317 1243 374 1254 b 797 1332 621 1408 742 1363 l 561 1228 b 261 1243 428 1168 317 1207 m 325 464 b 622 122 325 221 464 83 b 803 650 767 158 851 404 b 518 869 614 633 507 769 b 440 825 489 860 461 844 b 325 464 356 746 325 621 "},"Ṑ":{"ha":958,"x_min":0,"x_max":0,"o":"m 528 -121 b 60 585 211 -178 -7 150 b 381 1014 101 858 250 985 b 596 958 456 1031 543 1007 b 851 818 676 978 790 910 b 976 907 888 822 946 864 b 896 664 1057 829 1019 715 b 528 -121 990 297 819 -67 m 246 1053 b 465 1167 240 1103 285 1167 l 813 1167 b 588 1050 806 1094 756 1050 b 246 1053 424 1050 313 1063 m 247 1314 b 581 1293 343 1357 440 1386 b 783 1228 660 1240 731 1232 b 485 1214 754 1194 649 1153 b 247 1314 357 1260 299 1290 m 325 464 b 622 122 325 221 464 83 b 803 650 767 158 851 404 b 518 869 614 633 507 769 b 440 825 489 860 461 844 b 325 464 356 746 325 621 "},"Ɔ":{"ha":886,"x_min":0,"x_max":0,"o":"m 393 -115 b 99 340 15 -115 -60 253 b 454 221 104 256 239 136 b 415 921 783 350 700 921 b 356 701 213 921 222 718 b 15 771 361 486 -10 474 b 872 603 43 1106 758 1211 b 393 -115 949 193 729 -115 "},"Ø":{"ha":958,"x_min":0,"x_max":0,"o":"m 528 -121 b 314 -97 450 -135 378 -125 b 286 -187 296 -140 288 -168 b 221 -35 251 -190 204 -161 b 60 585 86 86 18 315 b 381 1014 101 858 250 985 b 596 958 456 1031 543 1007 b 669 954 618 964 643 963 b 708 1057 688 992 700 1026 b 813 865 750 1039 821 993 b 851 818 826 851 840 835 b 976 907 888 822 946 864 b 896 664 1057 829 1019 715 b 528 -121 990 297 819 -67 m 325 464 b 343 325 325 413 331 365 b 408 458 361 367 383 411 b 561 743 467 571 518 664 b 518 869 529 782 514 829 b 440 825 489 860 461 844 b 325 464 356 746 325 621 m 449 156 b 622 122 499 119 558 107 b 803 650 767 158 851 404 b 746 650 783 649 764 649 b 663 503 724 606 697 557 b 449 156 572 360 501 246 "},"Ǿ":{"ha":958,"x_min":0,"x_max":0,"o":"m 528 -121 b 314 -97 450 -135 378 -125 b 286 -187 296 -140 288 -168 b 221 -35 251 -190 204 -161 b 60 585 86 86 18 315 b 381 1014 101 858 250 985 b 596 958 456 1031 543 1007 b 669 954 618 964 643 963 b 708 1057 688 992 700 1026 b 813 865 750 1039 821 993 b 851 818 826 851 840 835 b 976 907 888 822 946 864 b 896 664 1057 829 1019 715 b 528 -121 990 297 819 -67 m 261 1117 b 465 1225 317 1117 374 1135 b 797 1260 621 1379 742 1307 l 561 1093 b 261 1117 428 999 317 1061 m 325 464 b 343 325 325 413 331 365 b 408 458 361 367 383 411 b 561 743 467 571 518 664 b 518 869 529 782 514 829 b 440 825 489 860 461 844 b 325 464 356 746 325 621 m 449 156 b 622 122 499 119 558 107 b 803 650 767 158 851 404 b 746 650 783 649 764 649 b 663 503 724 606 697 557 b 449 156 572 360 501 246 "},"Õ":{"ha":958,"x_min":0,"x_max":0,"o":"m 528 -121 b 60 585 211 -178 -7 150 b 381 1014 101 858 250 985 b 596 958 456 1031 543 1007 b 851 818 676 978 790 910 b 976 907 888 822 946 864 b 896 664 1057 829 1019 715 b 528 -121 990 297 819 -67 m 325 464 b 622 122 325 221 464 83 b 803 650 767 158 851 404 b 518 869 614 633 507 769 b 440 825 489 860 461 844 b 325 464 356 746 325 621 m 338 1050 b 599 1239 156 1200 354 1406 b 689 1290 683 1181 706 1250 b 467 1097 900 1211 763 904 b 338 1050 361 1165 332 1093 "},"Ṍ":{"ha":958,"x_min":0,"x_max":0,"o":"m 528 -121 b 60 585 211 -178 -7 150 b 381 1014 101 858 250 985 b 596 958 456 1031 543 1007 b 851 818 676 978 790 910 b 976 907 888 822 946 864 b 896 664 1057 829 1019 715 b 528 -121 990 297 819 -67 m 261 1224 b 465 1282 317 1224 374 1233 b 797 1300 621 1365 742 1326 l 561 1211 b 261 1224 428 1160 317 1193 m 325 464 b 622 122 325 221 464 83 b 803 650 767 158 851 404 b 518 869 614 633 507 769 b 440 825 489 860 461 844 b 325 464 356 746 325 621 m 338 1029 b 599 1132 156 1111 354 1222 b 689 1160 683 1100 706 1138 b 467 1054 900 1117 763 950 b 338 1029 361 1092 332 1053 "},"Œ":{"ha":1599,"x_min":0,"x_max":0,"o":"m 528 -121 b 60 585 211 -178 -7 150 b 381 1014 101 858 250 985 b 596 958 456 1031 543 1007 b 839 835 671 976 775 918 b 1536 918 985 1010 1371 1032 b 1418 647 1707 800 1582 589 b 1144 765 1429 708 1364 813 b 1186 488 969 729 897 532 b 1496 467 1393 549 1479 517 b 1318 381 1515 410 1454 379 b 1196 35 907 383 910 58 b 1561 107 1364 21 1515 61 b 1499 -169 1638 96 1676 -83 b 796 51 1306 -262 842 -265 b 528 -121 728 -37 636 -101 m 325 464 b 622 122 325 221 464 83 b 815 558 749 154 829 346 b 783 649 799 585 788 615 b 518 869 607 643 508 774 b 440 825 489 860 461 844 b 325 464 356 746 325 621 m 917 365 b 1025 422 949 390 986 410 b 922 461 990 429 956 443 b 917 365 922 428 919 396 "},"P":{"ha":1122,"x_min":0,"x_max":0,"o":"m 683 -82 b 411 1 653 -142 438 -204 b 424 685 390 165 522 685 b 549 790 415 740 475 797 b 690 356 732 772 714 540 b 582 878 926 356 996 878 b 383 464 190 878 131 464 b 224 290 394 371 350 286 b 36 681 38 297 -37 485 b 608 1003 99 846 278 1003 b 675 253 1428 1003 1175 114 b 683 -82 644 31 640 -43 "},"Þ":{"ha":1232,"x_min":0,"x_max":0,"o":"m 683 -82 b 411 -53 629 -189 446 -181 b 461 711 365 115 458 465 b 356 321 182 649 146 329 b 224 122 376 242 338 139 b 24 472 46 96 -26 300 b 461 835 78 660 207 783 b 417 958 461 931 447 958 b 549 1061 413 999 458 1057 b 713 835 678 1067 739 996 b 758 56 1294 835 1313 133 b 668 122 692 46 661 81 b 689 729 926 122 1033 679 b 683 -82 626 299 614 0 "},"Q":{"ha":958,"x_min":0,"x_max":0,"o":"m 846 -435 b 510 -124 693 -368 615 -226 b 60 585 203 -165 -6 158 b 381 1014 101 858 250 985 b 596 958 456 1031 543 1007 b 851 818 676 978 790 910 b 976 907 888 822 946 864 b 896 664 1057 829 1019 715 b 665 -68 974 360 869 57 b 1131 -226 819 -162 1003 -265 b 846 -435 1151 -374 958 -485 m 325 464 b 622 122 325 221 464 83 b 803 650 767 158 851 404 b 518 869 614 633 507 769 b 440 825 489 860 461 844 b 325 464 356 746 325 621 "},"R":{"ha":1128,"x_min":0,"x_max":0,"o":"m 1181 -429 b 699 308 844 -356 879 313 b 700 -74 658 56 660 -46 b 426 10 669 -185 426 -199 b 433 604 426 217 518 564 b 628 721 433 683 546 744 b 708 424 724 693 731 601 b 579 893 908 503 965 893 b 369 483 86 893 115 483 b 208 310 378 396 326 306 b -4 683 26 315 -50 483 b 696 1022 35 856 246 1042 b 875 375 1199 1000 1288 522 b 1113 92 1011 315 1064 203 b 1339 -136 1219 -154 1319 -199 b 1181 -429 1496 -182 1439 -486 "},"Ŕ":{"ha":1128,"x_min":0,"x_max":0,"o":"m 1181 -429 b 699 308 844 -356 879 313 b 700 -74 658 56 660 -46 b 426 10 669 -185 426 -199 b 433 604 426 217 518 564 b 628 721 433 683 546 744 b 708 424 724 693 731 601 b 579 893 908 503 965 893 b 369 483 86 893 115 483 b 208 310 378 396 326 306 b -4 683 26 315 -50 483 b 696 1022 35 856 246 1042 b 875 375 1199 1000 1288 522 b 1113 92 1011 315 1064 203 b 1339 -136 1219 -154 1319 -199 b 1181 -429 1496 -182 1439 -486 m 465 1121 b 669 1229 521 1121 578 1139 b 1001 1264 825 1383 946 1311 l 765 1097 b 465 1121 632 1003 521 1065 "},"Ř":{"ha":1128,"x_min":0,"x_max":0,"o":"m 1181 -429 b 699 308 844 -356 879 313 b 700 -74 658 56 660 -46 b 426 10 669 -185 426 -199 b 433 604 426 217 518 564 b 628 721 433 683 546 744 b 708 424 724 693 731 601 b 579 893 908 503 965 893 b 369 483 86 893 115 483 b 208 310 378 396 326 306 b -4 683 26 315 -50 483 b 696 1022 35 856 246 1042 b 875 375 1199 1000 1288 522 b 1113 92 1011 315 1064 203 b 1339 -136 1219 -154 1319 -199 b 1181 -429 1496 -182 1439 -486 m 478 1206 b 731 1206 490 1272 608 1349 b 992 1221 790 1261 876 1364 b 721 1043 913 1189 797 1047 b 478 1206 644 1039 581 1206 "},"Ŗ":{"ha":1128,"x_min":0,"x_max":0,"o":"m 1181 -429 b 699 308 844 -356 879 313 b 700 -74 658 56 660 -46 b 426 10 669 -185 426 -199 b 433 604 426 217 518 564 b 628 721 433 683 546 744 b 708 424 724 693 731 601 b 579 893 908 503 965 893 b 369 483 86 893 115 483 b 208 310 378 396 326 306 b -4 683 26 315 -50 483 b 696 1022 35 856 246 1042 b 875 375 1199 1000 1288 522 b 1113 92 1011 315 1064 203 b 1339 -136 1219 -154 1319 -199 b 1181 -429 1496 -182 1439 -486 m 567 -294 b 703 -158 567 -218 629 -158 b 650 -567 929 -158 899 -500 b 701 -428 669 -529 690 -471 b 567 -294 618 -435 567 -360 "},"Ṝ":{"ha":1128,"x_min":0,"x_max":0,"o":"m 1181 -429 b 699 308 844 -356 879 313 b 700 -74 658 56 660 -46 b 426 10 669 -185 426 -199 b 433 604 426 217 518 564 b 628 721 433 683 546 744 b 708 424 724 693 731 601 b 579 893 908 503 965 893 b 369 483 86 893 115 483 b 208 310 378 396 326 306 b -4 683 26 315 -50 483 b 696 1022 35 856 246 1042 b 875 375 1199 1000 1288 522 b 1113 92 1011 315 1064 203 b 1339 -136 1219 -154 1319 -199 b 1181 -429 1496 -182 1439 -486 m 450 1089 b 669 1278 444 1172 489 1278 l 1017 1278 b 792 1083 1010 1157 960 1083 b 450 1089 628 1083 517 1106 m 585 -285 b 711 -158 585 -215 642 -158 b 838 -285 781 -158 838 -215 b 711 -412 838 -356 781 -412 b 585 -285 642 -412 585 -356 "},"Ṟ":{"ha":1128,"x_min":0,"x_max":0,"o":"m 1181 -429 b 976 -262 1089 -410 1025 -344 b 769 -365 950 -328 890 -365 b 428 -360 606 -365 494 -343 b 647 -171 422 -276 467 -171 l 932 -171 b 699 308 840 44 813 311 b 700 -74 658 56 660 -46 b 426 10 669 -185 426 -199 b 433 604 426 217 518 564 b 628 721 433 683 546 744 b 708 424 724 693 731 601 b 579 893 908 503 965 893 b 369 483 86 893 115 483 b 208 310 378 396 326 306 b -4 683 26 315 -50 483 b 696 1022 35 856 246 1042 b 875 375 1199 1000 1288 522 b 1113 92 1011 315 1064 203 b 1339 -136 1219 -154 1319 -199 b 1181 -429 1496 -182 1439 -486 "},"S":{"ha":983,"x_min":0,"x_max":0,"o":"m 433 -125 b 158 293 -65 -125 -65 268 b 444 158 151 219 260 158 b 714 261 601 158 714 188 b 435 381 714 349 651 354 b 53 625 188 410 75 456 b 475 958 32 782 196 938 b 754 617 968 996 982 714 b 519 714 764 665 714 714 b 282 590 403 714 276 664 b 532 478 288 518 378 490 b 956 211 853 453 947 375 b 433 -125 965 21 803 -125 "},"Ś":{"ha":983,"x_min":0,"x_max":0,"o":"m 433 -125 b 158 293 -65 -125 -65 268 b 444 158 151 219 260 158 b 714 261 601 158 714 188 b 435 381 714 349 651 354 b 53 625 188 410 75 456 b 475 958 32 782 196 938 b 754 617 968 996 982 714 b 519 714 764 665 714 714 b 282 590 403 714 276 664 b 532 478 288 518 378 490 b 956 211 853 453 947 375 b 433 -125 965 21 803 -125 m 249 1072 b 433 1181 299 1072 350 1090 b 735 1215 575 1335 685 1263 l 521 1049 b 249 1072 400 954 299 1017 "},"Ꞌ":{"ha":274,"x_min":0,"x_max":0,"o":"m 119 321 b 19 726 36 321 -37 365 b -39 964 50 922 -3 982 b 282 964 -32 1135 257 1161 b 221 383 304 785 181 424 b 119 321 196 347 163 321 "},"Š":{"ha":983,"x_min":0,"x_max":0,"o":"m 433 -125 b 158 293 -65 -125 -65 268 b 444 158 151 219 260 158 b 714 261 601 158 714 188 b 435 381 714 349 651 354 b 53 625 188 410 75 456 b 475 958 32 782 196 938 b 754 617 968 996 982 714 b 519 714 764 665 714 714 b 282 590 403 714 276 664 b 532 478 288 518 378 490 b 956 211 853 453 947 375 b 433 -125 965 21 803 -125 m 236 1157 b 489 1157 249 1224 367 1300 b 750 1172 549 1213 635 1315 b 479 994 671 1140 556 999 b 236 1157 403 990 339 1157 "},"Ş":{"ha":983,"x_min":0,"x_max":0,"o":"m 463 -481 b 353 -333 289 -481 281 -362 b 521 -292 428 -360 511 -361 b 375 -208 529 -231 485 -193 l 418 -125 b 158 293 -65 -117 -62 268 b 444 158 151 219 260 158 b 714 261 601 158 714 188 b 435 381 714 349 651 354 b 53 625 188 410 75 456 b 475 958 32 782 196 938 b 754 617 968 996 982 714 b 519 714 764 665 714 714 b 282 590 403 714 276 664 b 532 478 288 518 378 490 b 956 211 853 453 947 375 b 553 -119 964 43 838 -90 b 463 -481 779 -143 785 -481 "},"Ŝ":{"ha":983,"x_min":0,"x_max":0,"o":"m 433 -125 b 158 293 -65 -125 -65 268 b 444 158 151 219 260 158 b 714 261 601 158 714 188 b 435 381 714 349 651 354 b 53 625 188 410 75 456 b 475 958 32 782 196 938 b 754 617 968 996 982 714 b 519 714 764 665 714 714 b 282 590 403 714 276 664 b 532 478 288 518 378 490 b 956 211 853 453 947 375 b 433 -125 965 21 803 -125 m 235 1053 b 494 1250 314 1085 418 1246 b 749 1068 571 1254 646 1068 b 496 1068 736 1001 618 925 b 235 1053 436 1013 350 910 "},"Ș":{"ha":983,"x_min":0,"x_max":0,"o":"m 433 -125 b 158 293 -65 -125 -65 268 b 444 158 151 219 260 158 b 714 261 601 158 714 188 b 435 381 714 349 651 354 b 53 625 188 410 75 456 b 475 958 32 782 196 938 b 754 617 968 996 982 714 b 519 714 764 665 714 714 b 282 590 403 714 276 664 b 532 478 288 518 378 490 b 956 211 853 453 947 375 b 433 -125 965 21 803 -125 m 296 -276 b 432 -140 296 -200 358 -140 b 379 -549 658 -140 628 -482 b 431 -410 399 -511 419 -453 b 296 -276 347 -417 296 -342 "},"Ṣ":{"ha":983,"x_min":0,"x_max":0,"o":"m 433 -125 b 158 293 -65 -125 -65 268 b 444 158 151 219 260 158 b 714 261 601 158 714 188 b 435 381 714 349 651 354 b 53 625 188 410 75 456 b 475 958 32 782 196 938 b 754 617 968 996 982 714 b 519 714 764 665 714 714 b 282 590 403 714 276 664 b 532 478 288 518 378 490 b 956 211 853 453 947 375 b 433 -125 965 21 803 -125 m 314 -267 b 440 -140 314 -197 371 -140 b 567 -267 510 -140 567 -197 b 440 -394 567 -337 510 -394 b 314 -267 371 -394 314 -337 "},"ẞ":{"ha":1025,"x_min":0,"x_max":0,"o":"m 443 -106 b 381 171 265 -19 304 160 b 619 99 426 125 535 82 b 585 421 811 138 799 396 b 376 492 449 436 399 436 b 532 560 360 532 413 611 b 564 829 642 604 693 786 b 318 686 463 863 358 819 b 217 -8 246 444 338 58 b 14 53 107 -69 21 -6 b 282 931 132 86 -39 693 b 875 775 546 1126 875 1015 b 693 519 875 626 754 544 b 1008 218 917 481 993 350 b 443 -106 1051 -146 654 -208 "},"Ə":{"ha":886,"x_min":0,"x_max":0,"o":"m 393 1046 b 872 328 729 1046 949 738 b 15 160 758 -281 43 -175 b 231 383 0 338 126 404 b 474 419 278 406 354 419 l 664 419 b 454 710 647 543 582 660 b 99 590 239 794 104 675 b 393 1046 -60 678 15 1046 m 356 229 b 415 10 222 213 213 10 b 651 238 535 10 619 111 b 526 225 618 229 576 225 b 356 232 464 225 407 228 l 356 229 "},"T":{"ha":672,"x_min":0,"x_max":0,"o":"m 329 -199 b 232 142 47 -267 19 119 b 279 128 229 128 243 103 b 417 756 354 179 303 478 b -40 775 222 794 46 813 b 414 946 -67 957 32 1090 b 511 917 454 931 481 925 b 642 994 540 944 600 981 b 851 792 844 1065 969 901 b 575 744 785 729 681 732 b 329 -199 492 443 668 -117 m 638 881 b 733 878 675 874 701 867 b 711 918 778 893 751 922 b 638 881 689 915 657 904 "},"Ŧ":{"ha":672,"x_min":0,"x_max":0,"o":"m 329 -199 b 232 142 47 -267 19 119 b 279 128 229 128 243 103 b 335 368 318 154 322 246 b 53 372 203 372 111 386 b 272 561 47 456 92 561 l 360 561 b 417 756 372 625 390 690 b -40 775 222 794 46 813 b 414 946 -67 957 32 1090 b 511 917 454 931 481 925 b 642 994 540 944 600 981 b 851 792 844 1065 969 901 b 575 744 785 729 681 732 b 551 561 560 690 553 628 l 619 561 b 550 404 615 492 597 438 b 329 -199 551 136 561 -143 m 638 881 b 733 878 675 874 701 867 b 711 918 778 893 751 922 b 638 881 689 915 657 904 "},"Ť":{"ha":672,"x_min":0,"x_max":0,"o":"m 329 -199 b 232 142 47 -267 19 119 b 279 128 229 128 243 103 b 417 756 354 179 303 478 b -40 775 222 794 46 813 b 414 946 -67 957 32 1090 b 511 917 454 931 481 925 b 642 994 540 944 600 981 b 851 792 844 1065 969 901 b 575 744 785 729 681 732 b 329 -199 492 443 668 -117 m 235 1119 b 488 1119 247 1186 365 1263 b 749 1135 547 1175 633 1278 b 478 957 669 1103 554 961 b 235 1119 401 953 338 1119 m 638 881 b 733 878 675 874 701 867 b 711 918 778 893 751 922 b 638 881 689 915 657 904 "},"Ţ":{"ha":672,"x_min":0,"x_max":0,"o":"m 638 881 b 733 878 675 874 701 867 b 711 918 778 893 751 922 b 638 881 689 915 657 904 m -40 775 b 414 946 -67 957 32 1090 b 511 917 454 931 481 925 b 642 994 540 944 600 981 b 851 792 844 1065 969 901 b 575 744 785 729 681 732 b 389 -176 497 463 646 -46 b 372 -204 385 -186 379 -194 b 307 -567 622 -204 640 -567 b 197 -419 133 -567 125 -449 b 365 -378 272 -446 356 -447 b 219 -294 374 -317 329 -279 l 264 -207 b 232 142 44 -206 38 121 b 279 128 229 128 243 103 b 417 756 354 179 303 478 b -40 775 222 794 46 813 "},"Ṱ":{"ha":672,"x_min":0,"x_max":0,"o":"m 329 -199 b 232 142 47 -267 19 119 b 279 128 229 128 243 103 b 417 756 354 179 303 478 b -40 775 222 794 46 813 b 414 946 -67 957 32 1090 b 511 917 454 931 481 925 b 642 994 540 944 600 981 b 851 792 844 1065 969 901 b 575 744 785 729 681 732 b 329 -199 492 443 668 -117 m 28 -418 b 288 -221 107 -386 211 -225 b 542 -403 364 -217 439 -403 b 289 -403 529 -469 411 -546 b 28 -418 229 -458 143 -561 m 638 881 b 733 878 675 874 701 867 b 711 918 778 893 751 922 b 638 881 689 915 657 904 "},"Ț":{"ha":672,"x_min":0,"x_max":0,"o":"m 329 -199 b 232 142 47 -267 19 119 b 279 128 229 128 243 103 b 417 756 354 179 303 478 b -40 775 222 794 46 813 b 414 946 -67 957 32 1090 b 511 917 454 931 481 925 b 642 994 540 944 600 981 b 851 792 844 1065 969 901 b 575 744 785 729 681 732 b 329 -199 492 443 668 -117 m 140 -362 b 276 -226 140 -286 203 -226 b 224 -635 503 -226 472 -568 b 275 -496 243 -597 264 -539 b 140 -362 192 -503 140 -428 m 638 881 b 733 878 675 874 701 867 b 711 918 778 893 751 922 b 638 881 689 915 657 904 "},"Ṭ":{"ha":672,"x_min":0,"x_max":0,"o":"m 329 -199 b 232 142 47 -267 19 119 b 279 128 229 128 243 103 b 417 756 354 179 303 478 b -40 775 222 794 46 813 b 414 946 -67 957 32 1090 b 511 917 454 931 481 925 b 642 994 540 944 600 981 b 851 792 844 1065 969 901 b 575 744 785 729 681 732 b 329 -199 492 443 668 -117 m 158 -353 b 285 -226 158 -283 215 -226 b 411 -353 354 -226 411 -283 b 285 -481 411 -424 354 -481 b 158 -353 215 -481 158 -424 m 638 881 b 733 878 675 874 701 867 b 711 918 778 893 751 922 b 638 881 689 915 657 904 "},"Ṯ":{"ha":672,"x_min":0,"x_max":0,"o":"m 329 -199 b 232 142 47 -267 19 119 b 279 128 229 128 243 103 b 417 756 354 179 303 478 b -40 775 222 794 46 813 b 414 946 -67 957 32 1090 b 511 917 454 931 481 925 b 642 994 540 944 600 981 b 851 792 844 1065 969 901 b 575 744 785 729 681 732 b 329 -199 492 443 668 -117 m 1 -428 b 221 -239 -4 -344 40 -239 l 568 -239 b 343 -433 561 -360 511 -433 b 1 -428 179 -433 68 -411 m 638 881 b 733 878 675 874 701 867 b 711 918 778 893 751 922 b 638 881 689 915 657 904 "},"U":{"ha":897,"x_min":0,"x_max":0,"o":"m 224 -182 b 24 875 -183 -101 203 758 b 353 849 164 956 306 972 b 376 61 439 622 178 61 b 618 596 535 61 599 422 b 558 864 622 751 603 853 b 901 758 588 938 901 1019 b 911 36 901 472 757 0 b 726 -181 911 -81 839 -181 b 572 61 628 -181 572 -106 b 224 -182 521 -61 378 -212 "},"Ú":{"ha":897,"x_min":0,"x_max":0,"o":"m 224 -182 b 24 875 -183 -101 203 758 b 353 849 164 956 306 972 b 376 61 439 622 178 61 b 618 596 535 61 599 422 b 558 864 622 751 603 853 b 901 758 588 938 901 1019 b 911 36 901 472 757 0 b 726 -181 911 -81 839 -181 b 572 61 628 -181 572 -106 b 224 -182 521 -61 378 -212 m 210 1032 b 414 1140 265 1032 322 1050 b 746 1175 569 1294 690 1222 l 510 1008 b 210 1032 376 914 265 976 "},"Ŭ":{"ha":897,"x_min":0,"x_max":0,"o":"m 224 -182 b 24 875 -183 -101 203 758 b 353 849 164 956 306 972 b 376 61 439 622 178 61 b 618 596 535 61 599 422 b 558 864 622 751 603 853 b 901 758 588 938 901 1019 b 911 36 901 472 757 0 b 726 -181 911 -81 839 -181 b 572 61 628 -181 572 -106 b 224 -182 521 -61 378 -212 m 371 1182 b 482 1069 371 1119 421 1069 b 593 1182 543 1069 593 1119 b 478 971 824 1225 765 971 b 371 1182 165 971 151 1221 "},"Ǔ":{"ha":897,"x_min":0,"x_max":0,"o":"m 224 -182 b 24 875 -183 -101 203 758 b 353 849 164 956 306 972 b 376 61 439 622 178 61 b 618 596 535 61 599 422 b 558 864 622 751 603 853 b 901 758 588 938 901 1019 b 911 36 901 472 757 0 b 726 -181 911 -81 839 -181 b 572 61 628 -181 572 -106 b 224 -182 521 -61 378 -212 m 222 1117 b 475 1117 235 1183 353 1260 b 736 1132 535 1172 621 1275 b 465 954 657 1100 542 958 b 222 1117 389 950 325 1117 "},"Û":{"ha":897,"x_min":0,"x_max":0,"o":"m 224 -182 b 24 875 -183 -101 203 758 b 353 849 164 956 306 972 b 376 61 439 622 178 61 b 618 596 535 61 599 422 b 558 864 622 751 603 853 b 901 758 588 938 901 1019 b 911 36 901 472 757 0 b 726 -181 911 -81 839 -181 b 572 61 628 -181 572 -106 b 224 -182 521 -61 378 -212 m 221 1013 b 481 1210 300 1044 404 1206 b 735 1028 557 1214 632 1028 b 482 1028 722 961 604 885 b 221 1013 422 972 336 869 "},"Ü":{"ha":897,"x_min":0,"x_max":0,"o":"m 224 -182 b 24 875 -183 -101 203 758 b 353 849 164 956 306 972 b 376 61 439 622 178 61 b 618 596 535 61 599 422 b 558 864 622 751 603 853 b 901 758 588 938 901 1019 b 911 36 901 472 757 0 b 726 -181 911 -81 839 -181 b 572 61 628 -181 572 -106 b 224 -182 521 -61 378 -212 m 189 1101 b 319 1232 189 1174 247 1232 b 450 1101 390 1232 450 1174 b 319 971 450 1029 390 971 b 189 1101 247 971 189 1029 m 506 1101 b 636 1232 506 1174 565 1232 b 767 1101 708 1232 767 1174 b 636 971 767 1029 708 971 b 506 1101 565 971 506 1029 "},"Ǘ":{"ha":897,"x_min":0,"x_max":0,"o":"m 224 -182 b 24 875 -183 -101 203 758 b 353 849 164 956 306 972 b 376 61 439 622 178 61 b 618 596 535 61 599 422 b 558 864 622 751 603 853 b 901 758 588 938 901 1019 b 911 36 901 472 757 0 b 726 -181 911 -81 839 -181 b 572 61 628 -181 572 -106 b 224 -182 521 -61 378 -212 m 189 1047 b 319 1140 189 1099 247 1140 b 450 1047 390 1140 450 1099 b 319 954 450 996 390 954 b 189 1047 247 954 189 996 m 210 1186 b 414 1228 265 1186 322 1193 b 746 1242 569 1289 690 1260 l 510 1176 b 210 1186 376 1139 265 1164 m 506 1047 b 636 1140 506 1099 565 1140 b 767 1047 708 1140 767 1099 b 636 954 767 996 708 954 b 506 1047 565 954 506 996 "},"Ǚ":{"ha":897,"x_min":0,"x_max":0,"o":"m 224 -182 b 24 875 -183 -101 203 758 b 353 849 164 956 306 972 b 376 61 439 622 178 61 b 618 596 535 61 599 422 b 558 864 622 751 603 853 b 901 758 588 938 901 1019 b 911 36 901 472 757 0 b 726 -181 911 -81 839 -181 b 572 61 628 -181 572 -106 b 224 -182 521 -61 378 -212 m 189 1051 b 319 1146 189 1104 247 1146 b 450 1051 390 1146 450 1104 b 319 957 450 999 390 957 b 189 1051 247 957 189 999 m 222 1224 b 475 1224 235 1249 353 1279 b 736 1229 535 1244 621 1285 b 465 1160 657 1217 542 1161 b 222 1224 389 1157 325 1224 m 506 1051 b 636 1146 506 1104 565 1146 b 767 1051 708 1146 767 1104 b 636 957 767 999 708 957 b 506 1051 565 957 506 999 "},"Ǜ":{"ha":897,"x_min":0,"x_max":0,"o":"m 224 -182 b 24 875 -183 -101 203 758 b 353 849 164 956 306 972 b 376 61 439 622 178 61 b 618 596 535 61 599 422 b 558 864 622 751 603 853 b 901 758 588 938 901 1019 b 911 36 901 472 757 0 b 726 -181 911 -81 839 -181 b 572 61 628 -181 572 -106 b 224 -182 521 -61 378 -212 m 189 1057 b 319 1156 189 1111 247 1156 b 450 1057 390 1156 450 1111 b 319 958 450 1003 390 958 b 189 1057 247 958 189 1003 m 196 1271 b 529 1254 292 1303 389 1325 b 732 1204 608 1214 679 1208 b 433 1194 703 1179 597 1147 b 196 1271 306 1229 247 1251 m 506 1057 b 636 1156 506 1111 565 1156 b 767 1057 708 1156 767 1111 b 636 958 767 1003 708 958 b 506 1057 565 958 506 1003 "},"Ǖ":{"ha":897,"x_min":0,"x_max":0,"o":"m 224 -182 b 24 875 -183 -101 203 758 b 353 849 164 956 306 972 b 376 61 439 622 178 61 b 618 596 535 61 599 422 b 558 864 622 751 603 853 b 901 758 588 938 901 1019 b 911 36 901 472 757 0 b 726 -181 911 -81 839 -181 b 572 61 628 -181 572 -106 b 224 -182 521 -61 378 -212 m 189 1067 b 319 1172 189 1125 247 1172 b 450 1067 390 1172 450 1125 b 319 961 450 1008 390 961 b 189 1067 247 961 189 1008 m 194 1214 b 414 1311 189 1257 233 1311 l 761 1311 b 536 1211 754 1250 704 1211 b 194 1214 372 1211 261 1224 m 506 1067 b 636 1172 506 1125 565 1172 b 767 1067 708 1172 767 1125 b 636 961 767 1008 708 961 b 506 1067 565 961 506 1008 "},"Ụ":{"ha":897,"x_min":0,"x_max":0,"o":"m 224 -182 b 24 875 -183 -101 203 758 b 353 849 164 956 306 972 b 376 61 439 622 178 61 b 618 596 535 61 599 422 b 558 864 622 751 603 853 b 901 758 588 938 901 1019 b 911 36 901 472 757 0 b 726 -181 911 -81 839 -181 b 572 61 628 -181 572 -106 b 224 -182 521 -61 378 -212 m 369 -278 b 496 -151 369 -208 426 -151 b 622 -278 565 -151 622 -208 b 496 -406 622 -349 565 -406 b 369 -278 426 -406 369 -349 "},"Ù":{"ha":897,"x_min":0,"x_max":0,"o":"m 224 -182 b 24 875 -183 -101 203 758 b 353 849 164 956 306 972 b 376 61 439 622 178 61 b 618 596 535 61 599 422 b 558 864 622 751 603 853 b 901 758 588 938 901 1019 b 911 36 901 472 757 0 b 726 -181 911 -81 839 -181 b 572 61 628 -181 572 -106 b 224 -182 521 -61 378 -212 m 196 1167 b 529 1132 292 1238 389 1286 b 732 1024 608 1044 679 1031 b 433 1000 703 968 597 900 b 196 1167 306 1078 247 1126 "},"Ủ":{"ha":897,"x_min":0,"x_max":0,"o":"m 224 -182 b 24 875 -183 -101 203 758 b 353 849 164 956 306 972 b 376 61 439 622 178 61 b 618 596 535 61 599 422 b 558 864 622 751 603 853 b 901 758 588 938 901 1019 b 911 36 901 472 757 0 b 726 -181 911 -81 839 -181 b 572 61 628 -181 572 -106 b 224 -182 521 -61 378 -212 m 314 1106 b 621 1236 314 1299 531 1397 b 500 951 674 1142 622 1031 l 421 958 b 314 1106 571 1058 431 1215 "},"Ư":{"ha":897,"x_min":0,"x_max":0,"o":"m 224 -182 b 24 875 -183 -101 203 758 b 353 849 164 956 306 972 b 376 61 439 622 178 61 b 618 596 535 61 599 422 b 558 864 622 751 603 853 b 874 868 582 924 797 990 b 972 1067 974 888 1035 954 b 1179 889 1107 1139 1247 1042 b 901 769 1138 796 1024 761 l 901 758 b 911 36 901 472 757 0 b 726 -181 911 -81 839 -181 b 572 61 628 -181 572 -106 b 224 -182 521 -61 378 -212 "},"Ứ":{"ha":897,"x_min":0,"x_max":0,"o":"m 224 -182 b 24 875 -183 -101 203 758 b 353 849 164 956 306 972 b 376 61 439 622 178 61 b 618 596 535 61 599 422 b 558 864 622 751 603 853 b 874 868 582 924 797 990 b 972 1067 974 888 1035 954 b 1179 889 1107 1139 1247 1042 b 901 769 1138 796 1024 761 l 901 758 b 911 36 901 472 757 0 b 726 -181 911 -81 839 -181 b 572 61 628 -181 572 -106 b 224 -182 521 -61 378 -212 m 210 1032 b 414 1140 265 1032 322 1050 b 746 1175 569 1294 690 1222 l 510 1008 b 210 1032 376 914 265 976 "},"Ự":{"ha":897,"x_min":0,"x_max":0,"o":"m 224 -182 b 24 875 -183 -101 203 758 b 353 849 164 956 306 972 b 376 61 439 622 178 61 b 618 596 535 61 599 422 b 558 864 622 751 603 853 b 874 868 582 924 797 990 b 972 1067 974 888 1035 954 b 1179 889 1107 1139 1247 1042 b 901 769 1138 796 1024 761 l 901 758 b 911 36 901 472 757 0 b 726 -181 911 -81 839 -181 b 572 61 628 -181 572 -106 b 224 -182 521 -61 378 -212 m 369 -278 b 496 -151 369 -208 426 -151 b 622 -278 565 -151 622 -208 b 496 -406 622 -349 565 -406 b 369 -278 426 -406 369 -349 "},"Ừ":{"ha":897,"x_min":0,"x_max":0,"o":"m 224 -182 b 24 875 -183 -101 203 758 b 353 849 164 956 306 972 b 376 61 439 622 178 61 b 618 596 535 61 599 422 b 558 864 622 751 603 853 b 874 868 582 924 797 990 b 972 1067 974 888 1035 954 b 1179 889 1107 1139 1247 1042 b 901 769 1138 796 1024 761 l 901 758 b 911 36 901 472 757 0 b 726 -181 911 -81 839 -181 b 572 61 628 -181 572 -106 b 224 -182 521 -61 378 -212 m 196 1167 b 529 1132 292 1238 389 1286 b 732 1024 608 1044 679 1031 b 433 1000 703 968 597 900 b 196 1167 306 1078 247 1126 "},"Ử":{"ha":897,"x_min":0,"x_max":0,"o":"m 224 -182 b 24 875 -183 -101 203 758 b 353 849 164 956 306 972 b 376 61 439 622 178 61 b 618 596 535 61 599 422 b 558 864 622 751 603 853 b 874 868 582 924 797 990 b 972 1067 974 888 1035 954 b 1179 889 1107 1139 1247 1042 b 901 769 1138 796 1024 761 l 901 758 b 911 36 901 472 757 0 b 726 -181 911 -81 839 -181 b 572 61 628 -181 572 -106 b 224 -182 521 -61 378 -212 m 314 1106 b 621 1236 314 1299 531 1397 b 500 951 674 1142 622 1031 l 421 958 b 314 1106 571 1058 431 1215 "},"Ữ":{"ha":897,"x_min":0,"x_max":0,"o":"m 224 -182 b 24 875 -183 -101 203 758 b 353 849 164 956 306 972 b 376 61 439 622 178 61 b 618 596 535 61 599 422 b 558 864 622 751 603 853 b 874 868 582 924 797 990 b 972 1067 974 888 1035 954 b 1179 889 1107 1139 1247 1042 b 901 769 1138 796 1024 761 l 901 758 b 911 36 901 472 757 0 b 726 -181 911 -81 839 -181 b 572 61 628 -181 572 -106 b 224 -182 521 -61 378 -212 m 286 965 b 547 1154 104 1115 303 1321 b 638 1206 632 1096 654 1165 b 415 1013 849 1126 711 819 b 286 965 310 1081 281 1008 "},"Ű":{"ha":897,"x_min":0,"x_max":0,"o":"m 224 -182 b 24 875 -183 -101 203 758 b 353 849 164 956 306 972 b 376 61 439 622 178 61 b 618 596 535 61 599 422 b 558 864 622 751 603 853 b 901 758 588 938 901 1019 b 911 36 901 472 757 0 b 726 -181 911 -81 839 -181 b 572 61 628 -181 572 -106 b 224 -182 521 -61 378 -212 m 182 1047 b 318 1156 219 1047 257 1065 b 539 1190 421 1310 501 1238 l 382 1024 b 182 1047 293 929 219 992 m 417 1047 b 553 1156 454 1047 492 1065 b 774 1190 656 1310 736 1238 l 617 1024 b 417 1047 528 929 454 992 "},"Ū":{"ha":897,"x_min":0,"x_max":0,"o":"m 224 -182 b 24 875 -183 -101 203 758 b 353 849 164 956 306 972 b 376 61 439 622 178 61 b 618 596 535 61 599 422 b 558 864 622 751 603 853 b 901 758 588 938 901 1019 b 911 36 901 472 757 0 b 726 -181 911 -81 839 -181 b 572 61 628 -181 572 -106 b 224 -182 521 -61 378 -212 m 194 1000 b 414 1189 189 1083 233 1189 l 761 1189 b 536 994 754 1068 704 994 b 194 1000 372 994 261 1017 "},"Ų":{"ha":897,"x_min":0,"x_max":0,"o":"m 224 -182 b 24 875 -183 -101 203 758 b 353 849 164 956 306 972 b 376 61 439 622 178 61 b 618 596 535 61 599 422 b 558 864 622 751 603 853 b 901 758 588 938 901 1019 b 911 36 901 472 757 0 b 753 -179 911 -71 850 -164 b 911 -275 699 -271 813 -367 b 604 -406 911 -468 694 -567 b 664 -168 561 -329 588 -240 b 572 61 604 -140 572 -67 b 224 -182 521 -61 378 -212 "},"Ů":{"ha":897,"x_min":0,"x_max":0,"o":"m 224 -182 b 24 875 -183 -101 203 758 b 353 849 164 956 306 972 b 376 61 439 622 178 61 b 618 596 535 61 599 422 b 558 864 622 751 603 853 b 901 758 588 938 901 1019 b 911 36 901 472 757 0 b 726 -181 911 -81 839 -181 b 572 61 628 -181 572 -106 b 224 -182 521 -61 378 -212 m 293 1125 b 476 1308 293 1226 375 1308 b 661 1125 579 1308 661 1226 b 476 940 661 1022 579 940 b 293 1125 375 940 293 1022 m 383 1125 b 481 1028 383 1071 426 1028 b 579 1125 533 1028 579 1071 b 481 1221 579 1178 533 1221 b 383 1125 426 1221 383 1178 "},"Ũ":{"ha":897,"x_min":0,"x_max":0,"o":"m 224 -182 b 24 875 -183 -101 203 758 b 353 849 164 956 306 972 b 376 61 439 622 178 61 b 618 596 535 61 599 422 b 558 864 622 751 603 853 b 901 758 588 938 901 1019 b 911 36 901 472 757 0 b 726 -181 911 -81 839 -181 b 572 61 628 -181 572 -106 b 224 -182 521 -61 378 -212 m 286 965 b 547 1154 104 1115 303 1321 b 638 1206 632 1096 654 1165 b 415 1013 849 1126 711 819 b 286 965 310 1081 281 1008 "},"V":{"ha":749,"x_min":0,"x_max":0,"o":"m 338 -178 b -29 875 -87 -189 142 719 b 296 849 64 975 238 972 b 421 39 396 636 222 39 b 613 701 519 39 599 397 b 561 976 449 749 454 931 b 735 872 657 1018 721 958 b 881 932 783 875 863 908 b 746 683 997 825 918 683 b 338 -178 719 372 619 -171 "},"Ʌ":{"ha":790,"x_min":0,"x_max":0,"o":"m 453 986 b 819 -67 878 997 649 89 b 494 -40 726 -167 553 -164 b 369 769 394 172 568 769 b 178 107 271 769 192 411 b 229 -168 342 60 336 -122 b 56 -64 133 -210 69 -150 b -90 -124 7 -67 -72 -100 b 44 125 -207 -17 -128 125 b 453 986 71 436 171 979 "},"W":{"ha":1297,"x_min":0,"x_max":0,"o":"m 293 -182 b -1 875 -157 -182 129 725 b 299 849 139 956 256 936 b 393 36 393 657 194 36 b 515 189 451 36 490 106 b 479 875 533 474 553 804 b 779 849 601 993 742 936 b 849 74 860 661 708 74 b 1004 318 938 74 981 178 b 971 864 1058 636 1042 847 b 1278 758 1001 938 1260 1018 b 1311 36 1296 500 1175 0 b 1139 -181 1324 -33 1274 -178 b 986 -31 1054 -182 989 -124 b 739 -182 946 -112 860 -182 b 540 -14 632 -182 564 -114 b 293 -182 497 -100 421 -182 "},"Ẃ":{"ha":1297,"x_min":0,"x_max":0,"o":"m 293 -182 b -1 875 -157 -182 129 725 b 299 849 139 956 256 936 b 393 36 393 657 194 36 b 515 189 451 36 490 106 b 479 875 533 474 553 804 b 779 849 601 993 742 936 b 849 74 860 661 708 74 b 1004 318 938 74 981 178 b 971 864 1058 636 1042 847 b 1278 758 1001 938 1260 1018 b 1311 36 1296 500 1175 0 b 1139 -181 1324 -33 1274 -178 b 986 -31 1054 -182 989 -124 b 739 -182 946 -112 860 -182 b 540 -14 632 -182 564 -114 b 293 -182 497 -100 421 -182 m 394 1044 b 599 1153 450 1044 507 1063 b 931 1188 754 1307 875 1235 l 694 1021 b 394 1044 561 926 450 989 "},"Ŵ":{"ha":1297,"x_min":0,"x_max":0,"o":"m 293 -182 b -1 875 -157 -182 129 725 b 299 849 139 956 256 936 b 393 36 393 657 194 36 b 515 189 451 36 490 106 b 479 875 533 474 553 804 b 779 849 601 993 742 936 b 849 74 860 661 708 74 b 1004 318 938 74 981 178 b 971 864 1058 636 1042 847 b 1278 758 1001 938 1260 1018 b 1311 36 1296 500 1175 0 b 1139 -181 1324 -33 1274 -178 b 986 -31 1054 -182 989 -124 b 739 -182 946 -112 860 -182 b 540 -14 632 -182 564 -114 b 293 -182 497 -100 421 -182 m 406 1025 b 665 1222 485 1057 589 1218 b 919 1040 742 1226 817 1040 b 667 1040 907 974 789 897 b 406 1025 607 985 521 882 "},"Ẅ":{"ha":1297,"x_min":0,"x_max":0,"o":"m 293 -182 b -1 875 -157 -182 129 725 b 299 849 139 956 256 936 b 393 36 393 657 194 36 b 515 189 451 36 490 106 b 479 875 533 474 553 804 b 779 849 601 993 742 936 b 849 74 860 661 708 74 b 1004 318 938 74 981 178 b 971 864 1058 636 1042 847 b 1278 758 1001 938 1260 1018 b 1311 36 1296 500 1175 0 b 1139 -181 1324 -33 1274 -178 b 986 -31 1054 -182 989 -124 b 739 -182 946 -112 860 -182 b 540 -14 632 -182 564 -114 b 293 -182 497 -100 421 -182 m 374 1114 b 504 1244 374 1186 432 1244 b 635 1114 575 1244 635 1186 b 504 983 635 1042 575 983 b 374 1114 432 983 374 1042 m 690 1114 b 821 1244 690 1186 750 1244 b 951 1114 893 1244 951 1186 b 821 983 951 1042 893 983 b 690 1114 750 983 690 1042 "},"Ẁ":{"ha":1297,"x_min":0,"x_max":0,"o":"m 293 -182 b -1 875 -157 -182 129 725 b 299 849 139 956 256 936 b 393 36 393 657 194 36 b 515 189 451 36 490 106 b 479 875 533 474 553 804 b 779 849 601 993 742 936 b 849 74 860 661 708 74 b 1004 318 938 74 981 178 b 971 864 1058 636 1042 847 b 1278 758 1001 938 1260 1018 b 1311 36 1296 500 1175 0 b 1139 -181 1324 -33 1274 -178 b 986 -31 1054 -182 989 -124 b 739 -182 946 -112 860 -182 b 540 -14 632 -182 564 -114 b 293 -182 497 -100 421 -182 m 381 1179 b 714 1144 476 1250 574 1299 b 917 1036 793 1057 864 1043 b 618 1013 888 981 782 913 b 381 1179 490 1090 432 1139 "},"X":{"ha":792,"x_min":0,"x_max":0,"o":"m 847 -221 b 419 232 718 -301 547 -219 b -111 -167 206 -325 10 -328 b 363 353 -65 -149 171 25 b 26 761 228 628 93 786 b 356 931 10 844 229 1104 b 494 579 400 868 439 725 b 1011 844 689 1042 896 1017 b 543 436 938 844 733 754 b 846 60 685 92 819 0 b 847 -221 928 -10 931 -169 "},"Y":{"ha":919,"x_min":0,"x_max":0,"o":"m 85 -458 b -14 -239 -24 -442 -71 -318 b 561 -212 139 -25 407 -306 b 638 292 707 -125 689 101 b 193 -82 578 49 376 -114 b -19 875 -218 -10 107 761 b 281 849 121 979 253 938 b 340 154 354 615 142 182 b 576 514 456 138 576 394 b 638 900 525 686 539 836 b 851 851 731 960 832 931 b 832 -182 754 794 983 139 b 354 -414 739 -379 568 -421 b 85 -458 213 -410 121 -406 "},"Ý":{"ha":919,"x_min":0,"x_max":0,"o":"m 85 -458 b -14 -239 -24 -442 -71 -318 b 561 -212 139 -25 407 -306 b 638 292 707 -125 689 101 b 193 -82 578 49 376 -114 b -19 875 -218 -10 107 761 b 281 849 121 979 253 938 b 340 154 354 615 142 182 b 576 514 456 138 576 394 b 638 900 525 686 539 836 b 851 851 731 960 832 931 b 832 -182 754 794 983 139 b 354 -414 739 -379 568 -421 b 85 -458 213 -410 121 -406 m 192 1044 b 396 1153 247 1044 304 1063 b 728 1188 551 1307 672 1235 l 492 1021 b 192 1044 358 926 247 989 "},"Ŷ":{"ha":919,"x_min":0,"x_max":0,"o":"m 85 -458 b -14 -239 -24 -442 -71 -318 b 561 -212 139 -25 407 -306 b 638 292 707 -125 689 101 b 193 -82 578 49 376 -114 b -19 875 -218 -10 107 761 b 281 849 121 979 253 938 b 340 154 354 615 142 182 b 576 514 456 138 576 394 b 638 900 525 686 539 836 b 851 851 731 960 832 931 b 832 -182 754 794 983 139 b 354 -414 739 -379 568 -421 b 85 -458 213 -410 121 -406 m 203 1025 b 463 1222 282 1057 386 1218 b 717 1040 539 1226 614 1040 b 464 1040 704 974 586 897 b 203 1025 404 985 318 882 "},"Ÿ":{"ha":919,"x_min":0,"x_max":0,"o":"m 85 -458 b -14 -239 -24 -442 -71 -318 b 561 -212 139 -25 407 -306 b 638 292 707 -125 689 101 b 193 -82 578 49 376 -114 b -19 875 -218 -10 107 761 b 281 849 121 979 253 938 b 340 154 354 615 142 182 b 576 514 456 138 576 394 b 638 900 525 686 539 836 b 851 851 731 960 832 931 b 832 -182 754 794 983 139 b 354 -414 739 -379 568 -421 b 85 -458 213 -410 121 -406 m 171 1114 b 301 1244 171 1186 229 1244 b 432 1114 372 1244 432 1186 b 301 983 432 1042 372 983 b 171 1114 229 983 171 1042 m 488 1114 b 618 1244 488 1186 547 1244 b 749 1114 690 1244 749 1186 b 618 983 749 1042 690 983 b 488 1114 547 983 488 1042 "},"Ẏ":{"ha":919,"x_min":0,"x_max":0,"o":"m 85 -458 b -14 -239 -24 -442 -71 -318 b 561 -212 139 -25 407 -306 b 638 292 707 -125 689 101 b 193 -82 578 49 376 -114 b -19 875 -218 -10 107 761 b 281 849 121 979 253 938 b 340 154 354 615 142 182 b 576 514 456 138 576 394 b 638 900 525 686 539 836 b 851 851 731 960 832 931 b 832 -182 754 794 983 139 b 354 -414 739 -379 568 -421 b 85 -458 213 -410 121 -406 m 333 1118 b 460 1244 333 1188 390 1244 b 586 1118 529 1244 586 1188 b 460 990 586 1047 529 990 b 333 1118 390 990 333 1047 "},"Ỵ":{"ha":919,"x_min":0,"x_max":0,"o":"m 85 -458 b -14 -239 -24 -442 -71 -318 b 561 -212 139 -25 407 -306 b 638 292 707 -125 689 101 b 193 -82 578 49 376 -114 b -19 875 -218 -10 107 761 b 281 849 121 979 253 938 b 340 154 354 615 142 182 b 576 514 456 138 576 394 b 638 900 525 686 539 836 b 851 851 731 960 832 931 b 832 -182 754 794 983 139 b 354 -414 739 -379 568 -421 b 85 -458 213 -410 121 -406 m 217 -542 b 325 -435 217 -483 265 -435 b 432 -542 383 -435 432 -483 b 325 -650 432 -601 383 -650 b 217 -542 265 -650 217 -601 "},"Ỳ":{"ha":919,"x_min":0,"x_max":0,"o":"m 85 -458 b -14 -239 -24 -442 -71 -318 b 561 -212 139 -25 407 -306 b 638 292 707 -125 689 101 b 193 -82 578 49 376 -114 b -19 875 -218 -10 107 761 b 281 849 121 979 253 938 b 340 154 354 615 142 182 b 576 514 456 138 576 394 b 638 900 525 686 539 836 b 851 851 731 960 832 931 b 832 -182 754 794 983 139 b 354 -414 739 -379 568 -421 b 85 -458 213 -410 121 -406 m 178 1179 b 511 1144 274 1250 371 1299 b 714 1036 590 1057 661 1043 b 415 1013 685 981 579 913 b 178 1179 288 1090 229 1139 "},"Ỷ":{"ha":919,"x_min":0,"x_max":0,"o":"m 85 -458 b -14 -239 -24 -442 -71 -318 b 561 -212 139 -25 407 -306 b 638 292 707 -125 689 101 b 193 -82 578 49 376 -114 b -19 875 -218 -10 107 761 b 281 849 121 979 253 938 b 340 154 354 615 142 182 b 576 514 456 138 576 394 b 638 900 525 686 539 836 b 851 851 731 960 832 931 b 832 -182 754 794 983 139 b 354 -414 739 -379 568 -421 b 85 -458 213 -410 121 -406 m 296 1118 b 603 1249 296 1311 513 1410 b 482 964 656 1154 604 1043 l 403 971 b 296 1118 553 1071 413 1228 "},"Ȳ":{"ha":919,"x_min":0,"x_max":0,"o":"m 85 -458 b -14 -239 -24 -442 -71 -318 b 561 -212 139 -25 407 -306 b 638 292 707 -125 689 101 b 193 -82 578 49 376 -114 b -19 875 -218 -10 107 761 b 281 849 121 979 253 938 b 340 154 354 615 142 182 b 576 514 456 138 576 394 b 638 900 525 686 539 836 b 851 851 731 960 832 931 b 832 -182 754 794 983 139 b 354 -414 739 -379 568 -421 b 85 -458 213 -410 121 -406 m 176 1013 b 396 1201 171 1096 215 1201 l 743 1201 b 518 1007 736 1081 686 1007 b 176 1013 354 1007 243 1029 "},"Ỹ":{"ha":919,"x_min":0,"x_max":0,"o":"m 85 -458 b -14 -239 -24 -442 -71 -318 b 561 -212 139 -25 407 -306 b 638 292 707 -125 689 101 b 193 -82 578 49 376 -114 b -19 875 -218 -10 107 761 b 281 849 121 979 253 938 b 340 154 354 615 142 182 b 576 514 456 138 576 394 b 638 900 525 686 539 836 b 851 851 731 960 832 931 b 832 -182 754 794 983 139 b 354 -414 739 -379 568 -421 b 85 -458 213 -410 121 -406 m 268 978 b 529 1167 86 1128 285 1333 b 619 1218 614 1108 636 1178 b 397 1025 831 1139 693 832 b 268 978 292 1093 263 1021 "},"Z":{"ha":1025,"x_min":0,"x_max":0,"o":"m 1053 -239 b 275 -132 936 -182 571 -49 b -10 -142 247 -231 26 -325 b 258 110 -42 19 111 88 b 671 642 360 281 493 454 b 0 614 547 675 204 711 b 115 925 -46 713 -17 883 b 761 757 276 976 543 878 b 1072 878 842 878 972 929 b 871 608 1231 797 1108 551 b 417 135 685 450 538 308 b 964 108 549 171 803 194 b 1053 -239 1101 35 1121 -129 "},"Ź":{"ha":1025,"x_min":0,"x_max":0,"o":"m 1053 -239 b 275 -132 936 -182 571 -49 b -10 -142 247 -231 26 -325 b 258 110 -42 19 111 88 b 671 642 360 281 493 454 b 0 614 547 675 204 711 b 115 925 -46 713 -17 883 b 761 757 276 976 543 878 b 1072 878 842 878 972 929 b 871 608 1231 797 1108 551 b 417 135 685 450 538 308 b 964 108 549 171 803 194 b 1053 -239 1101 35 1121 -129 m 378 989 b 582 1097 433 989 490 1007 b 914 1132 738 1251 858 1179 l 678 965 b 378 989 544 871 433 933 "},"Ž":{"ha":1025,"x_min":0,"x_max":0,"o":"m 1053 -239 b 275 -132 936 -182 571 -49 b -10 -142 247 -231 26 -325 b 258 110 -42 19 111 88 b 671 642 360 281 493 454 b 0 614 547 675 204 711 b 115 925 -46 713 -17 883 b 761 757 276 976 543 878 b 1072 878 842 878 972 929 b 871 608 1231 797 1108 551 b 417 135 685 450 538 308 b 964 108 549 171 803 194 b 1053 -239 1101 35 1121 -129 m 390 1074 b 643 1074 403 1140 521 1217 b 904 1089 703 1129 789 1232 b 633 911 825 1057 710 915 b 390 1074 557 907 493 1074 "},"Ż":{"ha":1025,"x_min":0,"x_max":0,"o":"m 1053 -239 b 275 -132 936 -182 571 -49 b -10 -142 247 -231 26 -325 b 258 110 -42 19 111 88 b 671 642 360 281 493 454 b 0 614 547 675 204 711 b 115 925 -46 713 -17 883 b 761 757 276 976 543 878 b 1072 878 842 878 972 929 b 871 608 1231 797 1108 551 b 417 135 685 450 538 308 b 964 108 549 171 803 194 b 1053 -239 1101 35 1121 -129 m 519 1063 b 646 1189 519 1132 576 1189 b 772 1063 715 1189 772 1132 b 646 935 772 992 715 935 b 519 1063 576 935 519 992 "},"Ẓ":{"ha":1025,"x_min":0,"x_max":0,"o":"m 1053 -239 b 275 -132 936 -182 571 -49 b -10 -142 247 -231 26 -325 b 258 110 -42 19 111 88 b 671 642 360 281 493 454 b 0 614 547 675 204 711 b 115 925 -46 713 -17 883 b 761 757 276 976 543 878 b 1072 878 842 878 972 929 b 871 608 1231 797 1108 551 b 417 135 685 450 538 308 b 964 108 549 171 803 194 b 1053 -239 1101 35 1121 -129 m 389 -276 b 515 -150 389 -207 446 -150 b 642 -276 585 -150 642 -207 b 515 -404 642 -347 585 -404 b 389 -276 446 -404 389 -347 "},"Ẕ":{"ha":1025,"x_min":0,"x_max":0,"o":"m 1053 -239 b 275 -132 936 -182 571 -49 b -10 -142 247 -231 26 -325 b 258 110 -42 19 111 88 b 671 642 360 281 493 454 b 0 614 547 675 204 711 b 115 925 -46 713 -17 883 b 761 757 276 976 543 878 b 1072 878 842 878 972 929 b 871 608 1231 797 1108 551 b 417 135 685 450 538 308 b 964 108 549 171 803 194 b 1053 -239 1101 35 1121 -129 m 232 -351 b 451 -162 226 -268 271 -162 l 799 -162 b 574 -357 792 -283 742 -357 b 232 -351 410 -357 299 -335 "},"a":{"ha":831,"x_min":0,"x_max":0,"o":"m 247 -18 b 258 696 -76 28 -39 647 b 500 601 375 714 469 663 b 571 696 504 644 526 678 b 750 647 632 722 703 703 b 703 361 703 614 682 501 b 803 288 717 268 781 253 b 708 11 858 219 844 38 b 514 163 615 -7 539 69 b 247 -18 469 46 367 -35 m 351 579 b 367 169 211 544 236 169 b 483 311 418 169 464 235 l 482 471 b 351 579 457 540 410 593 "},"á":{"ha":831,"x_min":0,"x_max":0,"o":"m 247 -18 b 258 696 -76 28 -39 647 b 500 601 375 714 469 663 b 571 696 504 644 526 678 b 750 647 632 722 703 703 b 703 361 703 614 682 501 b 803 288 717 268 781 253 b 708 11 858 219 844 38 b 514 163 615 -7 539 69 b 247 -18 469 46 367 -35 m 146 842 b 350 950 201 842 258 860 b 682 985 506 1104 626 1032 l 446 818 b 146 842 313 724 201 786 m 351 579 b 367 169 211 544 236 169 b 483 311 418 169 464 235 l 482 471 b 351 579 457 540 410 593 "},"ă":{"ha":831,"x_min":0,"x_max":0,"o":"m 247 -18 b 258 696 -76 28 -39 647 b 500 601 375 714 469 663 b 571 696 504 644 526 678 b 750 647 632 722 703 703 b 703 361 703 614 682 501 b 803 288 717 268 781 253 b 708 11 858 219 844 38 b 514 163 615 -7 539 69 b 247 -18 469 46 367 -35 m 307 992 b 418 879 307 929 357 879 b 529 992 479 879 529 929 b 414 781 760 1035 701 781 b 307 992 101 781 88 1031 m 351 579 b 367 169 211 544 236 169 b 483 311 418 169 464 235 l 482 471 b 351 579 457 540 410 593 "},"ắ":{"ha":831,"x_min":0,"x_max":0,"o":"m 247 -18 b 258 696 -76 28 -39 647 b 500 601 375 714 469 663 b 571 696 504 644 526 678 b 750 647 632 722 703 703 b 703 361 703 614 682 501 b 803 288 717 268 781 253 b 708 11 858 219 844 38 b 514 163 615 -7 539 69 b 247 -18 469 46 367 -35 m 146 1085 b 350 1193 201 1085 258 1103 b 682 1228 506 1347 626 1275 l 446 1061 b 146 1085 313 967 201 1029 m 307 992 b 418 879 307 929 357 879 b 529 992 479 879 529 929 b 414 781 760 1035 701 781 b 307 992 101 781 88 1031 m 351 579 b 367 169 211 544 236 169 b 483 311 418 169 464 235 l 482 471 b 351 579 457 540 410 593 "},"ặ":{"ha":831,"x_min":0,"x_max":0,"o":"m 247 -18 b 258 696 -76 28 -39 647 b 500 601 375 714 469 663 b 571 696 504 644 526 678 b 750 647 632 722 703 703 b 703 361 703 614 682 501 b 803 288 717 268 781 253 b 708 11 858 219 844 38 b 514 163 615 -7 539 69 b 247 -18 469 46 367 -35 m 282 -172 b 408 -46 282 -103 339 -46 b 535 -172 478 -46 535 -103 b 408 -300 535 -243 478 -300 b 282 -172 339 -300 282 -243 m 307 992 b 418 879 307 929 357 879 b 529 992 479 879 529 929 b 414 781 760 1035 701 781 b 307 992 101 781 88 1031 m 351 579 b 367 169 211 544 236 169 b 483 311 418 169 464 235 l 482 471 b 351 579 457 540 410 593 "},"ằ":{"ha":831,"x_min":0,"x_max":0,"o":"m 247 -18 b 258 696 -76 28 -39 647 b 500 601 375 714 469 663 b 571 696 504 644 526 678 b 750 647 632 722 703 703 b 703 361 703 614 682 501 b 803 288 717 268 781 253 b 708 11 858 219 844 38 b 514 163 615 -7 539 69 b 247 -18 469 46 367 -35 m 132 1219 b 465 1185 228 1290 325 1339 b 668 1076 544 1097 615 1083 b 369 1053 639 1021 533 953 b 132 1219 242 1131 183 1179 m 307 992 b 418 879 307 929 357 879 b 529 992 479 879 529 929 b 414 781 760 1035 701 781 b 307 992 101 781 88 1031 m 351 579 b 367 169 211 544 236 169 b 483 311 418 169 464 235 l 482 471 b 351 579 457 540 410 593 "},"ẳ":{"ha":831,"x_min":0,"x_max":0,"o":"m 247 -18 b 258 696 -76 28 -39 647 b 500 601 375 714 469 663 b 571 696 504 644 526 678 b 750 647 632 722 703 703 b 703 361 703 614 682 501 b 803 288 717 268 781 253 b 708 11 858 219 844 38 b 514 163 615 -7 539 69 b 247 -18 469 46 367 -35 m 250 1158 b 557 1289 250 1351 467 1450 b 436 1004 610 1194 558 1083 l 357 1011 b 250 1158 507 1111 367 1268 m 307 992 b 418 879 307 929 357 879 b 529 992 479 879 529 929 b 414 781 760 1035 701 781 b 307 992 101 781 88 1031 m 351 579 b 367 169 211 544 236 169 b 483 311 418 169 464 235 l 482 471 b 351 579 457 540 410 593 "},"ẵ":{"ha":831,"x_min":0,"x_max":0,"o":"m 247 -18 b 258 696 -76 28 -39 647 b 500 601 375 714 469 663 b 571 696 504 644 526 678 b 750 647 632 722 703 703 b 703 361 703 614 682 501 b 803 288 717 268 781 253 b 708 11 858 219 844 38 b 514 163 615 -7 539 69 b 247 -18 469 46 367 -35 m 222 1018 b 483 1207 40 1168 239 1374 b 574 1258 568 1149 590 1218 b 351 1065 785 1179 647 872 b 222 1018 246 1133 217 1061 m 307 992 b 418 879 307 929 357 879 b 529 992 479 879 529 929 b 414 781 760 1035 701 781 b 307 992 101 781 88 1031 m 351 579 b 367 169 211 544 236 169 b 483 311 418 169 464 235 l 482 471 b 351 579 457 540 410 593 "},"ǎ":{"ha":831,"x_min":0,"x_max":0,"o":"m 247 -18 b 258 696 -76 28 -39 647 b 500 601 375 714 469 663 b 571 696 504 644 526 678 b 750 647 632 722 703 703 b 703 361 703 614 682 501 b 803 288 717 268 781 253 b 708 11 858 219 844 38 b 514 163 615 -7 539 69 b 247 -18 469 46 367 -35 m 158 926 b 411 926 171 993 289 1069 b 672 942 471 982 557 1085 b 401 764 593 910 478 768 b 158 926 325 760 261 926 m 351 579 b 367 169 211 544 236 169 b 483 311 418 169 464 235 l 482 471 b 351 579 457 540 410 593 "},"â":{"ha":831,"x_min":0,"x_max":0,"o":"m 247 -18 b 258 696 -76 28 -39 647 b 500 601 375 714 469 663 b 571 696 504 644 526 678 b 750 647 632 722 703 703 b 703 361 703 614 682 501 b 803 288 717 268 781 253 b 708 11 858 219 844 38 b 514 163 615 -7 539 69 b 247 -18 469 46 367 -35 m 157 822 b 417 1019 236 854 340 1015 b 671 838 493 1024 568 838 b 418 838 658 771 540 694 b 157 822 358 782 272 679 m 351 579 b 367 169 211 544 236 169 b 483 311 418 169 464 235 l 482 471 b 351 579 457 540 410 593 "},"ấ":{"ha":831,"x_min":0,"x_max":0,"o":"m 247 -18 b 258 696 -76 28 -39 647 b 500 601 375 714 469 663 b 571 696 504 644 526 678 b 750 647 632 722 703 703 b 703 361 703 614 682 501 b 803 288 717 268 781 253 b 708 11 858 219 844 38 b 514 163 615 -7 539 69 b 247 -18 469 46 367 -35 m 146 1100 b 350 1208 201 1100 258 1118 b 682 1243 506 1363 626 1290 l 446 1076 b 146 1100 313 982 201 1044 m 157 822 b 417 1019 236 854 340 1015 b 671 838 493 1024 568 838 b 418 838 658 771 540 694 b 157 822 358 782 272 679 m 351 579 b 367 169 211 544 236 169 b 483 311 418 169 464 235 l 482 471 b 351 579 457 540 410 593 "},"ậ":{"ha":831,"x_min":0,"x_max":0,"o":"m 247 -18 b 258 696 -76 28 -39 647 b 500 601 375 714 469 663 b 571 696 504 644 526 678 b 750 647 632 722 703 703 b 703 361 703 614 682 501 b 803 288 717 268 781 253 b 708 11 858 219 844 38 b 514 163 615 -7 539 69 b 247 -18 469 46 367 -35 m 157 822 b 417 1019 236 854 340 1015 b 671 838 493 1024 568 838 b 418 838 658 771 540 694 b 157 822 358 782 272 679 m 282 -172 b 408 -46 282 -103 339 -46 b 535 -172 478 -46 535 -103 b 408 -300 535 -243 478 -300 b 282 -172 339 -300 282 -243 m 351 579 b 367 169 211 544 236 169 b 483 311 418 169 464 235 l 482 471 b 351 579 457 540 410 593 "},"ầ":{"ha":831,"x_min":0,"x_max":0,"o":"m 247 -18 b 258 696 -76 28 -39 647 b 500 601 375 714 469 663 b 571 696 504 644 526 678 b 750 647 632 722 703 703 b 703 361 703 614 682 501 b 803 288 717 268 781 253 b 708 11 858 219 844 38 b 514 163 615 -7 539 69 b 247 -18 469 46 367 -35 m 132 1235 b 465 1200 228 1306 325 1354 b 668 1092 544 1113 615 1099 b 369 1068 639 1036 533 968 b 132 1235 242 1146 183 1194 m 157 822 b 417 1019 236 854 340 1015 b 671 838 493 1024 568 838 b 418 838 658 771 540 694 b 157 822 358 782 272 679 m 351 579 b 367 169 211 544 236 169 b 483 311 418 169 464 235 l 482 471 b 351 579 457 540 410 593 "},"ẩ":{"ha":831,"x_min":0,"x_max":0,"o":"m 247 -18 b 258 696 -76 28 -39 647 b 500 601 375 714 469 663 b 571 696 504 644 526 678 b 750 647 632 722 703 703 b 703 361 703 614 682 501 b 803 288 717 268 781 253 b 708 11 858 219 844 38 b 514 163 615 -7 539 69 b 247 -18 469 46 367 -35 m 157 822 b 389 1013 226 850 317 981 l 357 1014 b 250 1113 507 1081 367 1186 b 557 1201 250 1243 467 1310 b 444 1014 608 1139 561 1065 b 671 838 511 982 581 838 b 418 838 658 771 540 694 b 157 822 358 782 272 679 m 351 579 b 367 169 211 544 236 169 b 483 311 418 169 464 235 l 482 471 b 351 579 457 540 410 593 "},"ẫ":{"ha":831,"x_min":0,"x_max":0,"o":"m 247 -18 b 258 696 -76 28 -39 647 b 500 601 375 714 469 663 b 571 696 504 644 526 678 b 750 647 632 722 703 703 b 703 361 703 614 682 501 b 803 288 717 268 781 253 b 708 11 858 219 844 38 b 514 163 615 -7 539 69 b 247 -18 469 46 367 -35 m 157 822 b 417 1019 236 854 340 1015 b 671 838 493 1024 568 838 b 418 838 658 771 540 694 b 157 822 358 782 272 679 m 222 1033 b 483 1222 40 1183 239 1389 b 574 1274 568 1164 590 1233 b 351 1081 785 1194 647 888 b 222 1033 246 1149 217 1076 m 351 579 b 367 169 211 544 236 169 b 483 311 418 169 464 235 l 482 471 b 351 579 457 540 410 593 "},"ä":{"ha":831,"x_min":0,"x_max":0,"o":"m 247 -18 b 258 696 -76 28 -39 647 b 500 601 375 714 469 663 b 571 696 504 644 526 678 b 750 647 632 722 703 703 b 703 361 703 614 682 501 b 803 288 717 268 781 253 b 708 11 858 219 844 38 b 514 163 615 -7 539 69 b 247 -18 469 46 367 -35 m 125 911 b 256 1042 125 983 183 1042 b 386 911 326 1042 386 983 b 256 781 386 839 326 781 b 125 911 183 781 125 839 m 351 579 b 367 169 211 544 236 169 b 483 311 418 169 464 235 l 482 471 b 351 579 457 540 410 593 m 442 911 b 572 1042 442 983 501 1042 b 703 911 644 1042 703 983 b 572 781 703 839 644 781 b 442 911 501 781 442 839 "},"ǟ":{"ha":831,"x_min":0,"x_max":0,"o":"m 247 -18 b 258 696 -76 28 -39 647 b 500 601 375 714 469 663 b 571 696 504 644 526 678 b 750 647 632 722 703 703 b 703 361 703 614 682 501 b 803 288 717 268 781 253 b 708 11 858 219 844 38 b 514 163 615 -7 539 69 b 247 -18 469 46 367 -35 m 125 911 b 256 1042 125 983 183 1042 b 386 911 326 1042 386 983 b 256 781 386 839 326 781 b 125 911 183 781 125 839 m 131 1124 b 350 1313 125 1207 169 1313 l 697 1313 b 472 1118 690 1192 640 1118 b 131 1124 308 1118 197 1140 m 351 579 b 367 169 211 544 236 169 b 483 311 418 169 464 235 l 482 471 b 351 579 457 540 410 593 m 442 911 b 572 1042 442 983 501 1042 b 703 911 644 1042 703 983 b 572 781 703 839 644 781 b 442 911 501 781 442 839 "},"ạ":{"ha":831,"x_min":0,"x_max":0,"o":"m 247 -18 b 258 696 -76 28 -39 647 b 500 601 375 714 469 663 b 571 696 504 644 526 678 b 750 647 632 722 703 703 b 703 361 703 614 682 501 b 803 288 717 268 781 253 b 708 11 858 219 844 38 b 514 163 615 -7 539 69 b 247 -18 469 46 367 -35 m 282 -172 b 408 -46 282 -103 339 -46 b 535 -172 478 -46 535 -103 b 408 -300 535 -243 478 -300 b 282 -172 339 -300 282 -243 m 351 579 b 367 169 211 544 236 169 b 483 311 418 169 464 235 l 482 471 b 351 579 457 540 410 593 "},"à":{"ha":831,"x_min":0,"x_max":0,"o":"m 247 -18 b 258 696 -76 28 -39 647 b 500 601 375 714 469 663 b 571 696 504 644 526 678 b 750 647 632 722 703 703 b 703 361 703 614 682 501 b 803 288 717 268 781 253 b 708 11 858 219 844 38 b 514 163 615 -7 539 69 b 247 -18 469 46 367 -35 m 132 976 b 465 942 228 1047 325 1096 b 668 833 544 854 615 840 b 369 810 639 778 533 710 b 132 976 242 888 183 936 m 351 579 b 367 169 211 544 236 169 b 483 311 418 169 464 235 l 482 471 b 351 579 457 540 410 593 "},"ả":{"ha":831,"x_min":0,"x_max":0,"o":"m 247 -18 b 258 696 -76 28 -39 647 b 500 601 375 714 469 663 b 571 696 504 644 526 678 b 750 647 632 722 703 703 b 703 361 703 614 682 501 b 803 288 717 268 781 253 b 708 11 858 219 844 38 b 514 163 615 -7 539 69 b 247 -18 469 46 367 -35 m 250 915 b 557 1046 250 1108 467 1207 b 436 761 610 951 558 840 l 357 768 b 250 915 507 868 367 1025 m 351 579 b 367 169 211 544 236 169 b 483 311 418 169 464 235 l 482 471 b 351 579 457 540 410 593 "},"ɑ":{"ha":831,"x_min":0,"x_max":0,"o":"m 247 -18 b 258 696 -76 28 -39 647 b 500 601 375 714 469 663 b 571 696 504 644 526 678 b 750 647 632 722 703 703 b 703 361 703 614 682 501 b 803 288 717 268 781 253 b 708 11 858 219 844 38 b 514 163 615 -7 539 69 b 247 -18 469 46 367 -35 m 351 579 b 367 169 211 544 236 169 b 483 311 418 169 464 235 l 482 471 b 351 579 457 540 410 593 "},"ɒ":{"ha":831,"x_min":0,"x_max":0,"o":"m 583 -18 b 317 163 464 -35 361 46 b 122 11 292 69 215 -7 b 28 288 -14 38 -28 219 b 128 361 50 253 114 268 b 81 647 149 501 128 614 b 260 696 128 703 199 722 b 331 601 304 678 326 644 b 572 696 361 663 456 714 b 583 -18 869 647 907 28 m 347 311 b 464 169 367 235 413 169 b 479 579 594 169 619 544 b 349 471 421 593 374 540 l 347 311 "},"ā":{"ha":831,"x_min":0,"x_max":0,"o":"m 247 -18 b 258 696 -76 28 -39 647 b 500 601 375 714 469 663 b 571 696 504 644 526 678 b 750 647 632 722 703 703 b 703 361 703 614 682 501 b 803 288 717 268 781 253 b 708 11 858 219 844 38 b 514 163 615 -7 539 69 b 247 -18 469 46 367 -35 m 131 810 b 350 999 125 893 169 999 l 697 999 b 472 804 690 878 640 804 b 131 810 308 804 197 826 m 351 579 b 367 169 211 544 236 169 b 483 311 418 169 464 235 l 482 471 b 351 579 457 540 410 593 "},"ą":{"ha":831,"x_min":0,"x_max":0,"o":"m 247 -18 b 258 696 -76 28 -39 647 b 500 601 375 714 469 663 b 571 696 504 644 526 678 b 750 647 632 722 703 703 b 703 361 703 614 682 501 b 803 288 717 268 781 253 b 724 15 856 222 846 51 l 735 14 b 842 -133 585 -86 725 -243 b 535 -264 842 -326 625 -425 b 644 14 483 -172 531 -65 b 514 163 582 31 533 92 b 247 -18 469 46 367 -35 m 351 579 b 367 169 211 544 236 169 b 483 311 418 169 464 235 l 482 471 b 351 579 457 540 410 593 "},"å":{"ha":831,"x_min":0,"x_max":0,"o":"m 247 -18 b 258 696 -76 28 -39 647 b 500 601 375 714 469 663 b 571 696 504 644 526 678 b 750 647 632 722 703 703 b 703 361 703 614 682 501 b 803 288 717 268 781 253 b 708 11 858 219 844 38 b 514 163 615 -7 539 69 b 247 -18 469 46 367 -35 m 229 935 b 413 1118 229 1036 311 1118 b 597 935 515 1118 597 1036 b 413 750 597 832 515 750 b 229 935 311 750 229 832 m 319 935 b 417 838 319 881 363 838 b 515 935 469 838 515 881 b 417 1031 515 988 469 1031 b 319 935 363 1031 319 988 m 351 579 b 367 169 211 544 236 169 b 483 311 418 169 464 235 l 482 471 b 351 579 457 540 410 593 "},"ã":{"ha":831,"x_min":0,"x_max":0,"o":"m 247 -18 b 258 696 -76 28 -39 647 b 500 601 375 714 469 663 b 571 696 504 644 526 678 b 750 647 632 722 703 703 b 703 361 703 614 682 501 b 803 288 717 268 781 253 b 708 11 858 219 844 38 b 514 163 615 -7 539 69 b 247 -18 469 46 367 -35 m 222 775 b 483 964 40 925 239 1131 b 574 1015 568 906 590 975 b 351 822 785 936 647 629 b 222 775 246 890 217 818 m 351 579 b 367 169 211 544 236 169 b 483 311 418 169 464 235 l 482 471 b 351 579 457 540 410 593 "},"ɐ":{"ha":831,"x_min":0,"x_max":0,"o":"m 583 -18 b 317 163 464 -35 361 46 b 122 11 292 69 215 -7 b 28 288 -14 38 -28 219 b 128 361 50 253 114 268 b 81 647 149 501 128 614 b 260 696 128 703 199 722 b 331 601 304 678 326 644 b 572 696 361 663 456 714 b 583 -18 869 647 907 28 m 347 311 b 464 169 367 235 413 169 b 479 579 594 169 619 544 b 349 471 421 593 374 540 l 347 311 "},"æ":{"ha":1032,"x_min":0,"x_max":0,"o":"m 285 697 b 526 603 392 697 472 660 b 781 703 588 663 672 703 b 676 263 1093 703 1114 236 b 808 203 699 221 739 203 b 986 264 868 203 951 226 b 747 -3 1069 175 1007 -3 b 506 92 640 -3 560 35 b 251 -8 444 32 360 -8 b 356 432 -61 -8 -82 458 b 224 492 333 474 293 492 b 46 431 164 492 81 468 b 285 697 -37 519 25 697 m 235 164 b 375 344 347 164 389 257 b 235 164 122 322 139 164 m 657 350 b 797 531 910 372 893 531 b 657 350 685 531 643 438 "},"ǣ":{"ha":1032,"x_min":0,"x_max":0,"o":"m 285 697 b 526 603 392 697 472 660 b 781 703 588 663 672 703 b 676 263 1093 703 1114 236 b 808 203 699 221 739 203 b 986 264 868 203 951 226 b 747 -3 1069 175 1007 -3 b 506 92 640 -3 560 35 b 251 -8 444 32 360 -8 b 356 432 -61 -8 -82 458 b 224 492 333 474 293 492 b 46 431 164 492 81 468 b 285 697 -37 519 25 697 m 235 164 b 375 344 347 164 389 257 b 235 164 122 322 139 164 m 247 776 b 467 965 242 860 286 965 l 814 965 b 589 771 807 844 757 771 b 247 776 425 771 314 793 m 657 350 b 797 531 910 372 893 531 b 657 350 685 531 643 438 "},"b":{"ha":832,"x_min":0,"x_max":0,"o":"m 556 0 b 315 69 464 -14 364 7 b 331 7 315 38 325 17 b 18 129 293 -67 44 -131 b 32 983 -15 450 193 965 b 185 1101 32 1042 89 1101 b 356 581 335 1101 433 990 b 638 694 450 678 539 719 b 556 0 904 626 888 49 m 325 222 b 431 113 332 181 371 118 b 492 524 576 99 596 481 b 336 358 432 549 349 454 b 325 222 331 296 326 261 "},"ḅ":{"ha":832,"x_min":0,"x_max":0,"o":"m 556 0 b 315 69 464 -14 364 7 b 331 7 315 38 325 17 b 18 129 293 -67 44 -131 b 32 983 -15 450 193 965 b 185 1101 32 1042 89 1101 b 356 581 335 1101 433 990 b 638 694 450 678 539 719 b 556 0 904 626 888 49 m 290 -172 b 417 -46 290 -103 347 -46 b 543 -172 486 -46 543 -103 b 417 -300 543 -243 486 -300 b 290 -172 347 -300 290 -243 m 325 222 b 431 113 332 181 371 118 b 492 524 576 99 596 481 b 336 358 432 549 349 454 b 325 222 331 296 326 261 "},"c":{"ha":614,"x_min":0,"x_max":0,"o":"m 364 -8 b 10 428 113 -26 -31 160 b 600 521 69 829 613 771 b 389 429 592 363 432 356 b 356 519 413 443 422 519 b 338 218 213 519 199 254 b 510 286 432 193 489 224 b 364 -8 640 247 611 10 "},"ć":{"ha":614,"x_min":0,"x_max":0,"o":"m 364 -8 b 10 428 113 -26 -31 160 b 600 521 69 829 613 771 b 389 429 592 363 432 356 b 356 519 413 443 422 519 b 338 218 213 519 199 254 b 510 286 432 193 489 224 b 364 -8 640 247 611 10 m 53 822 b 257 931 108 822 165 840 b 589 965 413 1085 533 1013 l 353 799 b 53 822 219 704 108 767 "},"č":{"ha":614,"x_min":0,"x_max":0,"o":"m 364 -8 b 10 428 113 -26 -31 160 b 600 521 69 829 613 771 b 389 429 592 363 432 356 b 356 519 413 443 422 519 b 338 218 213 519 199 254 b 510 286 432 193 489 224 b 364 -8 640 247 611 10 m 65 907 b 318 907 78 974 196 1050 b 579 922 378 963 464 1065 b 308 744 500 890 385 749 b 65 907 232 740 168 907 "},"ç":{"ha":614,"x_min":0,"x_max":0,"o":"m 329 -386 b 219 -239 156 -386 147 -268 b 388 -197 294 -265 378 -267 b 242 -114 396 -136 351 -99 l 296 -8 b 10 428 88 10 -26 185 b 600 521 69 829 613 771 b 389 429 592 363 432 356 b 356 519 413 443 422 519 b 338 218 213 519 199 254 b 510 286 432 193 489 224 b 407 -3 632 250 614 39 b 394 -24 404 -10 400 -17 b 329 -386 644 -24 663 -386 "},"ĉ":{"ha":614,"x_min":0,"x_max":0,"o":"m 364 -8 b 10 428 113 -26 -31 160 b 600 521 69 829 613 771 b 389 429 592 363 432 356 b 356 519 413 443 422 519 b 338 218 213 519 199 254 b 510 286 432 193 489 224 b 364 -8 640 247 611 10 m 64 803 b 324 1000 143 835 247 996 b 578 818 400 1004 475 818 b 325 818 565 751 447 675 b 64 803 265 763 179 660 "},"ċ":{"ha":614,"x_min":0,"x_max":0,"o":"m 364 -8 b 10 428 113 -26 -31 160 b 600 521 69 829 613 771 b 389 429 592 363 432 356 b 356 519 413 443 422 519 b 338 218 213 519 199 254 b 510 286 432 193 489 224 b 364 -8 640 247 611 10 m 194 896 b 321 1022 194 965 251 1022 b 447 896 390 1022 447 965 b 321 768 447 825 390 768 b 194 896 251 768 194 825 "},"d":{"ha":881,"x_min":0,"x_max":0,"o":"m 281 -3 b 258 710 -119 -3 -51 667 b 500 622 371 725 446 690 b 582 1094 489 871 467 1022 b 847 1013 692 1164 842 1071 b 781 336 714 1000 763 419 b 863 281 794 271 838 261 b 724 0 914 243 928 0 b 521 164 594 0 546 69 b 281 -3 486 81 394 -3 m 347 156 b 500 321 421 144 486 233 b 493 460 493 361 493 401 b 353 547 467 518 413 568 b 347 156 228 504 233 174 "},"ð":{"ha":758,"x_min":0,"x_max":0,"o":"m 346 622 b 336 768 304 647 276 692 b 136 658 269 772 197 742 b 14 778 81 657 14 694 b 333 988 14 900 108 1018 b 515 924 403 978 463 956 b 635 1042 560 963 599 1001 b 647 801 682 979 728 894 b 331 8 856 515 751 8 b 235 601 -99 8 -94 544 b 515 544 363 624 463 594 b 479 685 519 597 506 646 b 346 622 415 653 374 646 m 221 369 b 492 411 207 206 465 171 b 221 369 393 519 232 501 "},"ď":{"ha":881,"x_min":0,"x_max":0,"o":"m 281 -3 b 258 710 -119 -3 -51 667 b 500 622 371 725 446 690 b 582 1094 489 871 467 1022 b 847 1013 692 1164 842 1071 b 781 336 714 1000 763 419 b 863 281 794 271 838 261 b 724 0 914 243 928 0 b 521 164 594 0 546 69 b 281 -3 486 81 394 -3 m 347 156 b 500 321 421 144 486 233 b 493 460 493 361 493 401 b 353 547 467 518 413 568 b 347 156 228 504 233 174 m 813 885 b 921 993 813 944 861 993 b 986 969 946 993 968 985 b 901 668 1083 885 989 689 b 813 885 901 788 813 775 "},"ḓ":{"ha":881,"x_min":0,"x_max":0,"o":"m 281 -3 b 258 710 -119 -3 -51 667 b 500 622 371 725 446 690 b 582 1094 489 871 467 1022 b 847 1013 692 1164 842 1071 b 781 336 714 1000 763 419 b 863 281 794 271 838 261 b 724 0 914 243 928 0 b 521 164 594 0 546 69 b 281 -3 486 81 394 -3 m 181 -237 b 440 -40 260 -206 364 -44 b 694 -222 517 -36 592 -222 b 442 -222 682 -289 564 -365 b 181 -237 382 -278 296 -381 m 347 156 b 500 321 421 144 486 233 b 493 460 493 361 493 401 b 353 547 467 518 413 568 b 347 156 228 504 233 174 "},"đ":{"ha":881,"x_min":0,"x_max":0,"o":"m 281 -3 b 258 710 -119 -3 -51 667 b 500 622 371 725 446 690 b 492 783 497 682 494 735 b 328 782 421 786 367 789 b 492 906 322 832 357 893 b 582 1094 497 993 519 1056 b 847 1013 692 1164 842 1071 b 776 908 813 1010 790 968 l 894 908 b 761 786 889 844 857 801 b 781 336 749 608 769 385 b 863 281 794 271 838 261 b 724 0 914 243 928 0 b 521 164 594 0 546 69 b 281 -3 486 81 394 -3 m 347 156 b 500 321 421 144 486 233 b 493 460 493 361 493 401 b 353 547 467 518 413 568 b 347 156 228 504 233 174 "},"ḍ":{"ha":881,"x_min":0,"x_max":0,"o":"m 281 -3 b 258 710 -119 -3 -51 667 b 500 622 371 725 446 690 b 582 1094 489 871 467 1022 b 847 1013 692 1164 842 1071 b 781 336 714 1000 763 419 b 863 281 794 271 838 261 b 724 0 914 243 928 0 b 521 164 594 0 546 69 b 281 -3 486 81 394 -3 m 311 -172 b 438 -46 311 -103 368 -46 b 564 -172 507 -46 564 -103 b 438 -300 564 -243 507 -300 b 311 -172 368 -300 311 -243 m 347 156 b 500 321 421 144 486 233 b 493 460 493 361 493 401 b 353 547 467 518 413 568 b 347 156 228 504 233 174 "},"ḏ":{"ha":881,"x_min":0,"x_max":0,"o":"m 281 -3 b 258 710 -119 -3 -51 667 b 500 622 371 725 446 690 b 582 1094 489 871 467 1022 b 847 1013 692 1164 842 1071 b 781 336 714 1000 763 419 b 863 281 794 271 838 261 b 724 0 914 243 928 0 b 521 164 594 0 546 69 b 281 -3 486 81 394 -3 m 154 -247 b 374 -58 149 -164 193 -58 l 721 -58 b 496 -253 714 -179 664 -253 b 154 -247 332 -253 221 -231 m 347 156 b 500 321 421 144 486 233 b 493 460 493 361 493 401 b 353 547 467 518 413 568 b 347 156 228 504 233 174 "},"e":{"ha":629,"x_min":0,"x_max":0,"o":"m 344 -3 b 378 703 -122 -3 -78 703 b 274 263 690 703 711 236 b 406 203 296 221 336 203 b 583 264 465 203 549 226 b 344 -3 667 175 604 -3 m 254 350 b 394 531 507 372 490 531 b 254 350 282 531 240 438 "},"é":{"ha":629,"x_min":0,"x_max":0,"o":"m 344 -3 b 378 703 -122 -3 -78 703 b 274 263 690 703 711 236 b 406 203 296 221 336 203 b 583 264 465 203 549 226 b 344 -3 667 175 604 -3 m 82 808 b 286 917 138 808 194 826 b 618 951 442 1071 563 999 l 382 785 b 82 808 249 690 138 753 m 254 350 b 394 531 507 372 490 531 b 254 350 282 531 240 438 "},"ě":{"ha":629,"x_min":0,"x_max":0,"o":"m 344 -3 b 378 703 -122 -3 -78 703 b 274 263 690 703 711 236 b 406 203 296 221 336 203 b 583 264 465 203 549 226 b 344 -3 667 175 604 -3 m 94 893 b 347 893 107 960 225 1036 b 608 908 407 949 493 1051 b 338 731 529 876 414 735 b 94 893 261 726 197 893 m 254 350 b 394 531 507 372 490 531 b 254 350 282 531 240 438 "},"ȩ":{"ha":629,"x_min":0,"x_max":0,"o":"m 254 350 b 394 531 507 372 490 531 b 254 350 282 531 240 438 m 235 -239 b 403 -197 310 -265 393 -267 b 257 -114 411 -136 367 -99 l 314 -1 b 378 703 -119 28 -68 703 b 274 263 690 703 711 236 b 406 203 296 221 336 203 b 583 264 465 203 549 226 b 426 4 657 185 617 38 b 410 -24 422 -4 417 -14 b 344 -386 660 -24 678 -386 b 235 -239 171 -386 163 -268 "},"ê":{"ha":629,"x_min":0,"x_max":0,"o":"m 344 -3 b 378 703 -122 -3 -78 703 b 274 263 690 703 711 236 b 406 203 296 221 336 203 b 583 264 465 203 549 226 b 344 -3 667 175 604 -3 m 93 789 b 353 986 172 821 276 982 b 607 804 429 990 504 804 b 354 804 594 738 476 661 b 93 789 294 749 208 646 m 254 350 b 394 531 507 372 490 531 b 254 350 282 531 240 438 "},"ế":{"ha":629,"x_min":0,"x_max":0,"o":"m 344 -3 b 378 703 -122 -3 -78 703 b 274 263 690 703 711 236 b 406 203 296 221 336 203 b 583 264 465 203 549 226 b 344 -3 667 175 604 -3 m 82 1067 b 286 1175 138 1067 194 1085 b 618 1210 442 1329 563 1257 l 382 1043 b 82 1067 249 949 138 1011 m 93 789 b 353 986 172 821 276 982 b 607 804 429 990 504 804 b 354 804 594 738 476 661 b 93 789 294 749 208 646 m 254 350 b 394 531 507 372 490 531 b 254 350 282 531 240 438 "},"ệ":{"ha":629,"x_min":0,"x_max":0,"o":"m 344 -3 b 378 703 -122 -3 -78 703 b 274 263 690 703 711 236 b 406 203 296 221 336 203 b 583 264 465 203 549 226 b 344 -3 667 175 604 -3 m 93 789 b 353 986 172 821 276 982 b 607 804 429 990 504 804 b 354 804 594 738 476 661 b 93 789 294 749 208 646 m 196 -172 b 322 -46 196 -103 253 -46 b 449 -172 392 -46 449 -103 b 322 -300 449 -243 392 -300 b 196 -172 253 -300 196 -243 m 254 350 b 394 531 507 372 490 531 b 254 350 282 531 240 438 "},"ề":{"ha":629,"x_min":0,"x_max":0,"o":"m 344 -3 b 378 703 -122 -3 -78 703 b 274 263 690 703 711 236 b 406 203 296 221 336 203 b 583 264 465 203 549 226 b 344 -3 667 175 604 -3 m 68 1201 b 401 1167 164 1272 261 1321 b 604 1058 481 1079 551 1065 b 306 1035 575 1003 469 935 b 68 1201 178 1113 119 1161 m 93 789 b 353 986 172 821 276 982 b 607 804 429 990 504 804 b 354 804 594 738 476 661 b 93 789 294 749 208 646 m 254 350 b 394 531 507 372 490 531 b 254 350 282 531 240 438 "},"ể":{"ha":629,"x_min":0,"x_max":0,"o":"m 344 -3 b 378 703 -122 -3 -78 703 b 274 263 690 703 711 236 b 406 203 296 221 336 203 b 583 264 465 203 549 226 b 344 -3 667 175 604 -3 m 93 789 b 325 979 163 817 253 947 l 293 981 b 186 1079 443 1047 303 1153 b 493 1168 186 1210 403 1276 b 381 981 544 1106 497 1032 b 607 804 447 949 517 804 b 354 804 594 738 476 661 b 93 789 294 749 208 646 m 254 350 b 394 531 507 372 490 531 b 254 350 282 531 240 438 "},"ễ":{"ha":629,"x_min":0,"x_max":0,"o":"m 344 -3 b 378 703 -122 -3 -78 703 b 274 263 690 703 711 236 b 406 203 296 221 336 203 b 583 264 465 203 549 226 b 344 -3 667 175 604 -3 m 93 789 b 353 986 172 821 276 982 b 607 804 429 990 504 804 b 354 804 594 738 476 661 b 93 789 294 749 208 646 m 158 1000 b 419 1189 -24 1150 175 1356 b 510 1240 504 1131 526 1200 b 288 1047 721 1161 583 854 b 158 1000 182 1115 153 1043 m 254 350 b 394 531 507 372 490 531 b 254 350 282 531 240 438 "},"ë":{"ha":629,"x_min":0,"x_max":0,"o":"m 344 -3 b 378 703 -122 -3 -78 703 b 274 263 690 703 711 236 b 406 203 296 221 336 203 b 583 264 465 203 549 226 b 344 -3 667 175 604 -3 m 61 878 b 192 1008 61 950 119 1008 b 322 878 263 1008 322 950 b 192 747 322 806 263 747 b 61 878 119 747 61 806 m 254 350 b 394 531 507 372 490 531 b 254 350 282 531 240 438 m 378 878 b 508 1008 378 950 438 1008 b 639 878 581 1008 639 950 b 508 747 639 806 581 747 b 378 878 438 747 378 806 "},"ė":{"ha":629,"x_min":0,"x_max":0,"o":"m 344 -3 b 378 703 -122 -3 -78 703 b 274 263 690 703 711 236 b 406 203 296 221 336 203 b 583 264 465 203 549 226 b 344 -3 667 175 604 -3 m 224 882 b 350 1008 224 951 281 1008 b 476 882 419 1008 476 951 b 350 754 476 811 419 754 b 224 882 281 754 224 811 m 254 350 b 394 531 507 372 490 531 b 254 350 282 531 240 438 "},"ẹ":{"ha":629,"x_min":0,"x_max":0,"o":"m 344 -3 b 378 703 -122 -3 -78 703 b 274 263 690 703 711 236 b 406 203 296 221 336 203 b 583 264 465 203 549 226 b 344 -3 667 175 604 -3 m 196 -172 b 322 -46 196 -103 253 -46 b 449 -172 392 -46 449 -103 b 322 -300 449 -243 392 -300 b 196 -172 253 -300 196 -243 m 254 350 b 394 531 507 372 490 531 b 254 350 282 531 240 438 "},"è":{"ha":629,"x_min":0,"x_max":0,"o":"m 344 -3 b 378 703 -122 -3 -78 703 b 274 263 690 703 711 236 b 406 203 296 221 336 203 b 583 264 465 203 549 226 b 344 -3 667 175 604 -3 m 68 943 b 401 908 164 1014 261 1063 b 604 800 481 821 551 807 b 306 776 575 744 469 676 b 68 943 178 854 119 903 m 254 350 b 394 531 507 372 490 531 b 254 350 282 531 240 438 "},"ẻ":{"ha":629,"x_min":0,"x_max":0,"o":"m 344 -3 b 378 703 -122 -3 -78 703 b 274 263 690 703 711 236 b 406 203 296 221 336 203 b 583 264 465 203 549 226 b 344 -3 667 175 604 -3 m 186 882 b 493 1013 186 1075 403 1174 b 372 728 546 918 494 807 l 293 735 b 186 882 443 835 303 992 m 254 350 b 394 531 507 372 490 531 b 254 350 282 531 240 438 "},"ē":{"ha":629,"x_min":0,"x_max":0,"o":"m 344 -3 b 378 703 -122 -3 -78 703 b 274 263 690 703 711 236 b 406 203 296 221 336 203 b 583 264 465 203 549 226 b 344 -3 667 175 604 -3 m 67 776 b 286 965 61 860 106 965 l 633 965 b 408 771 626 844 576 771 b 67 776 244 771 133 793 m 254 350 b 394 531 507 372 490 531 b 254 350 282 531 240 438 "},"ę":{"ha":629,"x_min":0,"x_max":0,"o":"m 254 350 b 394 531 507 372 490 531 b 254 350 282 531 240 438 m 265 -231 b 317 -1 224 -157 246 -72 b 378 703 -121 26 -68 703 b 274 263 690 703 711 236 b 406 203 296 221 336 203 b 583 264 465 203 549 226 b 418 3 658 185 615 33 b 572 -100 354 -92 472 -194 b 265 -231 572 -293 356 -392 "},"ɛ":{"ha":756,"x_min":0,"x_max":0,"o":"m 644 7 b 31 219 389 -60 10 -14 b 231 396 38 306 128 369 b 19 563 133 411 19 465 b 676 721 19 768 500 815 b 574 521 817 644 749 475 b 335 599 579 563 524 632 b 389 453 176 571 186 488 b 642 425 535 483 626 457 b 486 357 658 386 606 354 b 381 163 176 365 179 183 b 699 261 526 147 658 176 b 644 7 839 225 806 49 "},"ɜ":{"ha":756,"x_min":0,"x_max":0,"o":"m 111 7 b 57 261 -50 49 -83 225 b 375 163 97 176 229 147 b 269 357 576 183 579 365 b 114 425 150 354 97 386 b 367 453 129 457 221 483 b 421 599 569 488 579 571 b 182 521 232 632 176 563 b 79 721 7 475 -61 644 b 736 563 256 815 736 768 b 525 396 736 465 622 411 b 725 219 628 369 718 306 b 111 7 746 -14 367 -60 "},"ɘ":{"ha":629,"x_min":0,"x_max":0,"o":"m 285 -3 b 46 264 25 -3 -37 175 b 224 203 81 226 164 203 b 356 263 293 203 333 221 b 251 703 -82 236 -61 703 b 285 -3 707 703 751 -3 m 235 531 b 375 350 139 531 122 372 b 235 531 389 438 347 531 "},"ʃ":{"ha":374,"x_min":0,"x_max":0,"o":"m 189 -312 b -29 -243 111 -379 -29 -336 b 57 628 57 -204 57 -128 b 344 1081 57 863 140 1081 b 306 642 557 1081 629 769 b 189 -312 285 161 336 -186 m 307 736 b 394 942 440 781 464 942 b 307 736 331 942 311 868 "},"ẽ":{"ha":629,"x_min":0,"x_max":0,"o":"m 344 -3 b 378 703 -122 -3 -78 703 b 274 263 690 703 711 236 b 406 203 296 221 336 203 b 583 264 465 203 549 226 b 344 -3 667 175 604 -3 m 158 742 b 419 931 -24 892 175 1097 b 510 982 504 872 526 942 b 288 789 721 903 583 596 b 158 742 182 857 153 785 m 254 350 b 394 531 507 372 490 531 b 254 350 282 531 240 438 "},"ǝ":{"ha":629,"x_min":0,"x_max":0,"o":"m 285 697 b 251 -8 751 697 707 -8 b 356 432 -61 -8 -82 458 b 224 492 333 474 293 492 b 46 431 164 492 81 468 b 285 697 -37 519 25 697 m 235 164 b 375 344 347 164 389 257 b 235 164 122 322 139 164 "},"ə":{"ha":629,"x_min":0,"x_max":0,"o":"m 285 697 b 251 -8 751 697 707 -8 b 356 432 -61 -8 -82 458 b 224 492 333 474 293 492 b 46 431 164 492 81 468 b 285 697 -37 519 25 697 m 235 164 b 375 344 347 164 389 257 b 235 164 122 322 139 164 "},"ʒ":{"ha":751,"x_min":0,"x_max":0,"o":"m 153 -262 b 107 -4 22 -182 50 -14 b 376 -71 140 -46 253 -85 b 286 222 588 -49 625 310 b 154 333 186 196 110 253 b 339 358 175 368 225 392 b 478 506 403 410 431 444 b -17 479 386 538 133 571 b 68 771 -51 572 -29 732 b 544 614 186 818 383 726 b 739 658 603 678 664 707 b 603 475 826 601 758 432 b 454 326 550 418 526 376 b 696 40 621 276 686 151 b 153 -262 729 -351 308 -358 "},"ǯ":{"ha":751,"x_min":0,"x_max":0,"o":"m 153 -262 b 107 -4 22 -182 50 -14 b 376 -71 140 -46 253 -85 b 286 222 588 -49 625 310 b 154 333 186 196 110 253 b 339 358 175 368 225 392 b 478 506 403 410 431 444 b -17 479 386 538 133 571 b 68 771 -51 572 -29 732 b 544 614 186 818 383 726 b 739 658 603 678 664 707 b 603 475 826 601 758 432 b 454 326 550 418 526 376 b 696 40 621 276 686 151 b 153 -262 729 -351 308 -358 m 121 893 b 374 893 133 960 251 1036 b 635 908 433 949 519 1051 b 364 731 556 876 440 735 b 121 893 288 726 224 893 "},"f":{"ha":485,"x_min":0,"x_max":0,"o":"m 217 -8 b 14 53 129 -57 14 -40 b 57 628 72 79 35 349 b 344 1081 78 863 140 1081 b 374 697 557 1081 601 807 b 550 661 425 674 475 650 b 456 507 575 588 535 507 b 306 564 394 507 344 554 b 217 -8 285 292 353 67 m 307 763 b 394 942 426 807 464 942 b 307 763 331 942 311 894 "},"g":{"ha":808,"x_min":0,"x_max":0,"o":"m 110 -375 b -29 -121 -50 -408 -142 -226 b 394 -108 121 21 272 -121 b 533 233 536 -94 583 81 b 233 31 489 122 397 31 b 239 703 -99 31 -50 654 b 476 599 354 722 425 681 b 535 692 489 631 500 665 b 751 614 632 767 732 688 b 738 -121 629 542 917 233 b 278 -286 669 -256 475 -337 b 110 -375 176 -260 89 -321 m 338 546 b 354 217 228 526 193 217 b 475 399 457 217 479 339 l 460 463 b 338 546 442 518 394 556 "},"ğ":{"ha":808,"x_min":0,"x_max":0,"o":"m 110 -375 b -29 -121 -50 -408 -142 -226 b 394 -108 121 21 272 -121 b 533 233 536 -94 583 81 b 233 31 489 122 397 31 b 239 703 -99 31 -50 654 b 476 599 354 722 425 681 b 535 692 489 631 500 665 b 751 614 632 767 732 688 b 738 -121 629 542 917 233 b 278 -286 669 -256 475 -337 b 110 -375 176 -260 89 -321 m 283 972 b 394 860 283 910 333 860 b 506 972 456 860 506 910 b 390 761 736 1015 678 761 b 283 972 78 761 64 1011 m 338 546 b 354 217 228 526 193 217 b 475 399 457 217 479 339 l 460 463 b 338 546 442 518 394 556 "},"ǧ":{"ha":808,"x_min":0,"x_max":0,"o":"m 110 -375 b -29 -121 -50 -408 -142 -226 b 394 -108 121 21 272 -121 b 533 233 536 -94 583 81 b 233 31 489 122 397 31 b 239 703 -99 31 -50 654 b 476 599 354 722 425 681 b 535 692 489 631 500 665 b 751 614 632 767 732 688 b 738 -121 629 542 917 233 b 278 -286 669 -256 475 -337 b 110 -375 176 -260 89 -321 m 135 907 b 388 907 147 974 265 1050 b 649 922 447 963 533 1065 b 378 744 569 890 454 749 b 135 907 301 740 238 907 m 338 546 b 354 217 228 526 193 217 b 475 399 457 217 479 339 l 460 463 b 338 546 442 518 394 556 "},"ĝ":{"ha":808,"x_min":0,"x_max":0,"o":"m 110 -375 b -29 -121 -50 -408 -142 -226 b 394 -108 121 21 272 -121 b 533 233 536 -94 583 81 b 233 31 489 122 397 31 b 239 703 -99 31 -50 654 b 476 599 354 722 425 681 b 535 692 489 631 500 665 b 751 614 632 767 732 688 b 738 -121 629 542 917 233 b 278 -286 669 -256 475 -337 b 110 -375 176 -260 89 -321 m 133 803 b 393 1000 213 835 317 996 b 647 818 469 1004 544 818 b 394 818 635 751 517 675 b 133 803 335 763 249 660 m 338 546 b 354 217 228 526 193 217 b 475 399 457 217 479 339 l 460 463 b 338 546 442 518 394 556 "},"ģ":{"ha":808,"x_min":0,"x_max":0,"o":"m 110 -375 b -29 -121 -50 -408 -142 -226 b 394 -108 121 21 272 -121 b 533 233 536 -94 583 81 b 233 31 489 122 397 31 b 239 703 -99 31 -50 654 b 476 599 354 722 425 681 b 535 692 489 631 500 665 b 751 614 632 767 732 688 b 738 -121 629 542 917 233 b 278 -286 669 -256 475 -337 b 110 -375 176 -260 89 -321 m 324 760 b 408 1061 226 844 321 1040 b 497 844 408 942 497 954 b 389 736 497 785 449 736 b 324 760 364 736 342 744 m 338 546 b 354 217 228 526 193 217 b 475 399 457 217 479 339 l 460 463 b 338 546 442 518 394 556 "},"ġ":{"ha":808,"x_min":0,"x_max":0,"o":"m 110 -375 b -29 -121 -50 -408 -142 -226 b 394 -108 121 21 272 -121 b 533 233 536 -94 583 81 b 233 31 489 122 397 31 b 239 703 -99 31 -50 654 b 476 599 354 722 425 681 b 535 692 489 631 500 665 b 751 614 632 767 732 688 b 738 -121 629 542 917 233 b 278 -286 669 -256 475 -337 b 110 -375 176 -260 89 -321 m 264 896 b 390 1022 264 965 321 1022 b 517 896 460 1022 517 965 b 390 768 517 825 460 768 b 264 896 321 768 264 825 m 338 546 b 354 217 228 526 193 217 b 475 399 457 217 479 339 l 460 463 b 338 546 442 518 394 556 "},"ḡ":{"ha":808,"x_min":0,"x_max":0,"o":"m 110 -375 b -29 -121 -50 -408 -142 -226 b 394 -108 121 21 272 -121 b 533 233 536 -94 583 81 b 233 31 489 122 397 31 b 239 703 -99 31 -50 654 b 476 599 354 722 425 681 b 535 692 489 631 500 665 b 751 614 632 767 732 688 b 738 -121 629 542 917 233 b 278 -286 669 -256 475 -337 b 110 -375 176 -260 89 -321 m 107 790 b 326 979 101 874 146 979 l 674 979 b 449 785 667 858 617 785 b 107 790 285 785 174 807 m 338 546 b 354 217 228 526 193 217 b 475 399 457 217 479 339 l 460 463 b 338 546 442 518 394 556 "},"ǥ":{"ha":808,"x_min":0,"x_max":0,"o":"m 110 -375 b -29 -121 -50 -408 -142 -226 b 394 -108 121 21 272 -121 b 533 233 536 -94 583 81 b 233 31 489 122 397 31 b 239 703 -99 31 -50 654 b 476 599 354 722 425 681 b 535 692 489 631 500 665 b 751 614 632 767 732 688 b 728 493 715 593 715 550 l 819 493 b 758 382 817 443 800 406 b 738 -121 796 247 833 69 b 278 -286 669 -256 475 -337 b 110 -375 176 -260 89 -321 m 310 358 b 449 489 306 410 336 474 b 338 546 425 529 385 554 b 354 217 228 526 193 217 b 474 358 438 217 468 296 b 310 358 403 363 349 365 "},"h":{"ha":826,"x_min":0,"x_max":0,"o":"m 538 28 b 496 558 417 176 664 513 b 294 303 417 581 319 419 b 307 33 275 154 272 60 b 46 50 254 -32 111 -40 b 58 575 -8 125 14 279 b 3 913 103 869 46 913 b 150 1042 -10 975 60 1042 b 299 518 354 1042 368 839 b 636 708 369 628 485 746 b 799 69 928 636 679 78 b 538 28 761 -8 606 -56 "},"ħ":{"ha":826,"x_min":0,"x_max":0,"o":"m 538 28 b 496 558 417 176 664 513 b 294 303 417 581 319 419 b 307 33 275 154 272 60 b 46 50 254 -32 111 -40 b 58 575 -8 125 14 279 b 74 729 68 636 72 688 b -36 725 29 731 -8 731 b 64 851 -40 771 -18 825 b 3 913 50 901 25 913 b 150 1042 -10 975 60 1042 b 333 867 264 1042 318 978 l 531 867 b 332 721 524 781 479 726 b 299 518 326 661 315 593 b 636 708 369 628 485 746 b 799 69 928 636 679 78 b 538 28 761 -8 606 -56 "},"ḫ":{"ha":826,"x_min":0,"x_max":0,"o":"m 538 28 b 496 558 417 176 664 513 b 294 303 417 581 319 419 b 307 33 275 154 272 60 b 46 50 254 -32 111 -40 b 58 575 -8 125 14 279 b 3 913 103 869 46 913 b 150 1042 -10 975 60 1042 b 299 518 354 1042 368 839 b 636 708 369 628 485 746 b 799 69 928 636 679 78 b 538 28 761 -8 606 -56 m 306 -58 b 417 -171 306 -121 356 -171 b 528 -58 478 -171 528 -121 b 413 -269 758 -15 700 -269 b 306 -58 100 -269 86 -19 "},"ĥ":{"ha":826,"x_min":0,"x_max":0,"o":"m 538 28 b 496 558 417 176 664 513 b 294 303 417 581 319 419 b 307 33 275 154 272 60 b 46 50 254 -32 111 -40 b 58 575 -8 125 14 279 b 3 913 103 869 46 913 b 150 1042 -10 975 60 1042 b 299 518 354 1042 368 839 b 636 708 369 628 485 746 b 799 69 928 636 679 78 b 538 28 761 -8 606 -56 m -100 1101 b 160 1299 -21 1133 83 1294 b 414 1117 236 1303 311 1117 b 161 1117 401 1050 283 974 b -100 1101 101 1061 15 958 "},"ḥ":{"ha":826,"x_min":0,"x_max":0,"o":"m 538 28 b 496 558 417 176 664 513 b 294 303 417 581 319 419 b 307 33 275 154 272 60 b 46 50 254 -32 111 -40 b 58 575 -8 125 14 279 b 3 913 103 869 46 913 b 150 1042 -10 975 60 1042 b 299 518 354 1042 368 839 b 636 708 369 628 485 746 b 799 69 928 636 679 78 b 538 28 761 -8 606 -56 m 288 -172 b 414 -46 288 -103 344 -46 b 540 -172 483 -46 540 -103 b 414 -300 540 -243 483 -300 b 288 -172 344 -300 288 -243 "},"ẖ":{"ha":826,"x_min":0,"x_max":0,"o":"m 538 28 b 496 558 417 176 664 513 b 294 303 417 581 319 419 b 307 33 275 154 272 60 b 46 50 254 -32 111 -40 b 58 575 -8 125 14 279 b 3 913 103 869 46 913 b 150 1042 -10 975 60 1042 b 299 518 354 1042 368 839 b 636 708 369 628 485 746 b 799 69 928 636 679 78 b 538 28 761 -8 606 -56 m 131 -247 b 350 -58 125 -164 169 -58 l 697 -58 b 472 -253 690 -179 640 -253 b 131 -247 308 -253 197 -231 "},"i":{"ha":381,"x_min":0,"x_max":0,"o":"m 367 72 b 53 297 282 -50 3 -53 b 15 543 85 519 54 551 b 199 697 -4 611 75 718 b 367 72 446 656 256 111 m 43 900 b 182 1039 43 976 106 1039 b 321 900 258 1039 321 976 b 182 761 321 824 258 761 b 43 900 106 761 43 824 "},"ı":{"ha":401,"x_min":0,"x_max":0,"o":"m 367 72 b 53 297 282 -50 3 -53 b 15 543 85 519 54 551 b 199 697 -4 611 75 718 b 367 72 446 656 256 111 "},"í":{"ha":401,"x_min":0,"x_max":0,"o":"m 367 72 b 53 297 282 -50 3 -53 b 15 543 85 519 54 551 b 199 697 -4 611 75 718 b 367 72 446 656 256 111 m -97 797 b 107 906 -42 797 15 815 b 439 940 263 1060 383 988 l 203 774 b -97 797 69 679 -42 742 "},"ǐ":{"ha":401,"x_min":0,"x_max":0,"o":"m 367 72 b 53 297 282 -50 3 -53 b 15 543 85 519 54 551 b 199 697 -4 611 75 718 b 367 72 446 656 256 111 m -85 882 b 168 882 -72 949 46 1025 b 429 897 228 938 314 1040 b 158 719 350 865 235 724 b -85 882 82 715 18 882 "},"î":{"ha":401,"x_min":0,"x_max":0,"o":"m 367 72 b 53 297 282 -50 3 -53 b 15 543 85 519 54 551 b 199 697 -4 611 75 718 b 367 72 446 656 256 111 m -86 778 b 174 975 -7 810 97 971 b 428 793 250 979 325 793 b 175 793 415 726 297 650 b -86 778 115 738 29 635 "},"ï":{"ha":401,"x_min":0,"x_max":0,"o":"m 367 72 b 53 297 282 -50 3 -53 b 15 543 85 519 54 551 b 199 697 -4 611 75 718 b 367 72 446 656 256 111 m -118 867 b 13 997 -118 939 -60 997 b 143 867 83 997 143 939 b 13 736 143 794 83 736 b -118 867 -60 736 -118 794 m 199 867 b 329 997 199 939 258 997 b 460 867 401 997 460 939 b 329 736 460 794 401 736 b 199 867 258 736 199 794 "},"ḯ":{"ha":401,"x_min":0,"x_max":0,"o":"m 367 72 b 53 297 282 -50 3 -53 b 15 543 85 519 54 551 b 199 697 -4 611 75 718 b 367 72 446 656 256 111 m -118 867 b 13 997 -118 939 -60 997 b 143 867 83 997 143 939 b 13 736 143 794 83 736 b -118 867 -60 736 -118 794 m -97 1111 b 107 1219 -42 1111 15 1129 b 439 1254 263 1374 383 1301 l 203 1088 b -97 1111 69 993 -42 1056 m 199 867 b 329 997 199 939 258 997 b 460 867 401 997 460 939 b 329 736 460 794 401 736 b 199 867 258 736 199 794 "},"ị":{"ha":381,"x_min":0,"x_max":0,"o":"m 367 72 b 53 297 282 -50 3 -53 b 15 543 85 519 54 551 b 199 697 -4 611 75 718 b 367 72 446 656 256 111 m 43 900 b 182 1039 43 976 106 1039 b 321 900 258 1039 321 976 b 182 761 321 824 258 761 b 43 900 106 761 43 824 m 64 -172 b 190 -46 64 -103 121 -46 b 317 -172 260 -46 317 -103 b 190 -300 317 -243 260 -300 b 64 -172 121 -300 64 -243 "},"ì":{"ha":401,"x_min":0,"x_max":0,"o":"m 367 72 b 53 297 282 -50 3 -53 b 15 543 85 519 54 551 b 199 697 -4 611 75 718 b 367 72 446 656 256 111 m -111 932 b 222 897 -15 1003 82 1051 b 425 789 301 810 372 796 b 126 765 396 733 290 665 b -111 932 -1 843 -60 892 "},"ỉ":{"ha":401,"x_min":0,"x_max":0,"o":"m 367 72 b 53 297 282 -50 3 -53 b 15 543 85 519 54 551 b 199 697 -4 611 75 718 b 367 72 446 656 256 111 m 7 871 b 314 1001 7 1064 224 1163 b 193 717 367 907 315 796 l 114 724 b 7 871 264 824 124 981 "},"ĳ":{"ha":786,"x_min":0,"x_max":0,"o":"m 367 72 b 53 297 282 -50 3 -53 b 15 543 85 519 54 551 b 199 697 -4 611 75 718 b 367 72 446 656 256 111 m 10 -162 b 504 -178 192 15 385 -246 b 475 676 690 -71 210 506 b 681 665 554 728 646 710 b 765 -142 558 593 854 225 b 357 -365 721 -325 549 -435 b 163 -415 189 -304 139 -365 b 10 -162 -36 -465 -90 -260 m 43 900 b 182 1039 43 976 106 1039 b 321 900 258 1039 321 976 b 182 761 321 824 258 761 b 43 900 106 761 43 824 m 410 900 b 549 1039 410 976 472 1039 b 688 900 625 1039 688 976 b 549 761 688 824 625 761 b 410 900 472 761 410 824 "},"ī":{"ha":401,"x_min":0,"x_max":0,"o":"m 367 72 b 53 297 282 -50 3 -53 b 15 543 85 519 54 551 b 199 697 -4 611 75 718 b 367 72 446 656 256 111 m -43 765 b 122 954 -47 849 -14 954 l 385 954 b 215 760 379 833 342 760 b -43 765 90 760 7 782 "},"į":{"ha":401,"x_min":0,"x_max":0,"o":"m 367 72 b 239 -1 339 32 290 6 b 399 -94 189 -93 301 -186 b 92 -225 399 -287 182 -386 b 150 11 49 -149 75 -61 b 53 297 81 43 29 129 b 15 543 85 519 54 551 b 199 697 -4 611 75 718 b 367 72 446 656 256 111 m 44 871 b 171 997 44 940 101 997 b 297 871 240 997 297 940 b 171 743 297 800 240 743 b 44 871 101 743 44 800 "},"ɨ":{"ha":401,"x_min":0,"x_max":0,"o":"m 367 72 b 50 281 283 -49 11 -53 b -47 276 10 283 -22 283 b 67 454 -50 343 -26 425 b 15 543 65 536 42 549 b 199 697 -4 611 75 718 b 333 465 299 681 328 581 l 450 465 b 331 279 446 369 417 303 b 367 72 326 175 325 88 m 44 871 b 171 997 44 940 101 997 b 297 871 240 997 297 940 b 171 743 297 800 240 743 b 44 871 101 743 44 800 "},"ĩ":{"ha":401,"x_min":0,"x_max":0,"o":"m 367 72 b 53 297 282 -50 3 -53 b 15 543 85 519 54 551 b 199 697 -4 611 75 718 b 367 72 446 656 256 111 m -21 731 b 240 919 -203 881 -4 1086 b 331 971 325 861 347 931 b 108 778 542 892 404 585 b -21 731 3 846 -26 774 "},"j":{"ha":406,"x_min":0,"x_max":0,"o":"m -218 -415 b -371 -162 -417 -465 -471 -260 b 124 -178 -189 15 4 -246 b 94 676 310 -71 -171 506 b 300 665 174 728 265 710 b 385 -142 178 593 474 225 b -24 -365 340 -325 168 -435 b -218 -415 -192 -304 -242 -365 m 29 900 b 168 1039 29 976 92 1039 b 307 900 244 1039 307 976 b 168 761 307 824 244 761 b 29 900 92 761 29 824 "},"ȷ":{"ha":406,"x_min":0,"x_max":0,"o":"m -218 -415 b -371 -162 -417 -465 -471 -260 b 124 -178 -189 15 4 -246 b 94 676 310 -71 -171 506 b 300 665 174 728 265 710 b 385 -142 178 593 474 225 b -24 -365 340 -325 168 -435 b -218 -415 -192 -304 -242 -365 "},"ĵ":{"ha":406,"x_min":0,"x_max":0,"o":"m -218 -415 b -371 -162 -417 -465 -471 -260 b 124 -178 -189 15 4 -246 b 94 676 310 -71 -171 506 b 300 665 174 728 265 710 b 385 -142 178 593 474 225 b -24 -365 340 -325 168 -435 b -218 -415 -192 -304 -242 -365 m -79 789 b 181 986 0 821 104 982 b 435 804 257 990 332 804 b 182 804 422 738 304 661 b -79 789 122 749 36 646 "},"k":{"ha":800,"x_min":0,"x_max":0,"o":"m 778 -364 b 310 226 451 -369 561 185 b 335 40 293 126 300 67 b 22 117 297 -60 53 -108 b 15 983 -12 375 108 938 b 208 1093 6 1019 94 1103 b 317 325 447 1074 317 746 b 536 667 494 242 631 557 b 746 694 561 708 664 765 b 513 257 856 599 808 360 b 707 33 585 217 654 121 b 857 -69 786 -97 838 -93 b 778 -364 985 -143 964 -361 "},"ǩ":{"ha":800,"x_min":0,"x_max":0,"o":"m 778 -364 b 310 226 451 -369 561 185 b 335 40 293 126 300 67 b 22 117 297 -60 53 -108 b 15 983 -12 375 108 938 b 208 1093 6 1019 94 1103 b 317 325 447 1074 317 746 b 536 667 494 242 631 557 b 746 694 561 708 664 765 b 513 257 856 599 808 360 b 707 33 585 217 654 121 b 857 -69 786 -97 838 -93 b 778 -364 985 -143 964 -361 m 144 1240 b 397 1240 157 1307 275 1383 b 658 1256 457 1296 543 1399 b 388 1078 579 1224 464 1082 b 144 1240 311 1074 247 1240 "},"ķ":{"ha":800,"x_min":0,"x_max":0,"o":"m 778 -364 b 310 226 451 -369 561 185 b 335 40 293 126 300 67 b 22 117 297 -60 53 -108 b 15 983 -12 375 108 938 b 208 1093 6 1019 94 1103 b 317 325 447 1074 317 746 b 536 667 494 242 631 557 b 746 694 561 708 664 765 b 513 257 856 599 808 360 b 707 33 585 217 654 121 b 857 -69 786 -97 838 -93 b 778 -364 985 -143 964 -361 m 153 -196 b 289 -60 153 -119 215 -60 b 236 -468 515 -60 485 -401 b 288 -329 256 -431 276 -372 b 153 -196 204 -336 153 -261 "},"ĸ":{"ha":800,"x_min":0,"x_max":0,"o":"m 778 -364 b 310 226 451 -361 561 185 b 335 40 293 126 300 67 b 22 117 297 -60 53 -108 b 15 608 -12 375 108 563 b 151 738 6 644 38 747 b 317 325 390 718 317 482 b 536 667 494 242 631 557 b 746 694 561 708 664 765 b 513 257 856 599 808 360 b 707 33 585 217 656 121 b 857 -69 794 -115 853 -108 b 778 -364 996 -106 985 -365 "},"ḵ":{"ha":800,"x_min":0,"x_max":0,"o":"m 778 -364 b 551 -186 654 -367 593 -287 b 356 -267 519 -237 461 -267 b 14 -261 192 -267 81 -244 b 233 -72 8 -178 53 -72 l 511 -72 b 310 226 468 67 432 206 b 335 40 293 126 300 67 b 22 117 297 -60 53 -108 b 15 983 -12 375 108 938 b 208 1093 6 1019 94 1103 b 317 325 447 1074 317 746 b 536 667 494 242 631 557 b 746 694 561 708 664 765 b 513 257 856 599 808 360 b 707 33 585 217 654 121 b 857 -69 786 -97 838 -93 b 778 -364 985 -143 964 -361 "},"l":{"ha":389,"x_min":0,"x_max":0,"o":"m 185 3 b 74 586 -24 40 4 271 b 72 981 143 904 125 981 b 290 1078 65 1053 206 1093 b 332 569 426 1053 415 936 b 385 190 267 285 307 190 b 185 3 400 126 367 -31 "},"ĺ":{"ha":389,"x_min":0,"x_max":0,"o":"m 185 3 b 74 586 -24 40 4 271 b 72 981 143 904 125 981 b 290 1078 65 1053 206 1093 b 332 569 426 1053 415 936 b 385 190 267 285 307 190 b 185 3 400 126 367 -31 m 69 1193 b 249 1267 118 1193 168 1204 b 538 1292 383 1374 489 1324 l 332 1176 b 69 1193 215 1111 118 1154 "},"ľ":{"ha":389,"x_min":0,"x_max":0,"o":"m 185 3 b 74 586 -24 40 4 271 b 72 981 143 904 125 981 b 290 1078 65 1053 206 1093 b 374 1029 329 1071 357 1056 b 478 1108 386 1075 428 1108 b 543 1085 503 1108 525 1100 b 458 783 640 1000 546 804 b 393 919 458 863 419 883 b 332 569 392 842 368 729 b 385 190 267 285 307 190 b 185 3 400 126 367 -31 "},"ḽ":{"ha":389,"x_min":0,"x_max":0,"o":"m 185 3 b 74 586 -24 40 4 271 b 72 981 143 904 125 981 b 290 1078 65 1053 206 1093 b 332 569 426 1053 415 936 b 385 190 267 285 307 190 b 185 3 400 126 367 -31 m -62 -237 b 197 -40 17 -206 121 -44 b 451 -222 274 -36 349 -222 b 199 -222 439 -289 321 -365 b -62 -237 139 -278 53 -381 "},"ļ":{"ha":389,"x_min":0,"x_max":0,"o":"m 185 3 b 74 586 -24 40 4 271 b 72 981 143 904 125 981 b 290 1078 65 1053 206 1093 b 332 569 426 1053 415 936 b 385 190 267 285 307 190 b 185 3 400 126 367 -31 m 50 -182 b 186 -46 50 -106 113 -46 b 133 -454 413 -46 382 -387 b 185 -315 153 -417 174 -358 b 50 -182 101 -322 50 -247 "},"ḷ":{"ha":389,"x_min":0,"x_max":0,"o":"m 185 3 b 74 586 -24 40 4 271 b 72 981 143 904 125 981 b 290 1078 65 1053 206 1093 b 332 569 426 1053 415 936 b 385 190 267 285 307 190 b 185 3 400 126 367 -31 m 68 -172 b 194 -46 68 -103 125 -46 b 321 -172 264 -46 321 -103 b 194 -300 321 -243 264 -300 b 68 -172 125 -300 68 -243 "},"ḹ":{"ha":389,"x_min":0,"x_max":0,"o":"m 185 3 b 74 586 -24 40 4 271 b 72 981 143 904 125 981 b 290 1078 65 1053 206 1093 b 332 569 426 1053 415 936 b 385 190 267 285 307 190 b 185 3 400 126 367 -31 m 21 1196 b 240 1385 15 1279 60 1385 l 588 1385 b 363 1190 581 1264 531 1190 b 21 1196 199 1190 88 1213 m 68 -172 b 194 -46 68 -103 125 -46 b 321 -172 264 -46 321 -103 b 194 -300 321 -243 264 -300 b 68 -172 125 -300 68 -243 "},"ḻ":{"ha":389,"x_min":0,"x_max":0,"o":"m 185 3 b 74 586 -24 40 4 271 b 72 981 143 904 125 981 b 290 1078 65 1053 206 1093 b 332 569 426 1053 415 936 b 385 190 267 285 307 190 b 185 3 400 126 367 -31 m -89 -247 b 131 -58 -94 -164 -50 -58 l 478 -58 b 253 -253 471 -179 421 -253 b -89 -247 89 -253 -22 -231 "},"ł":{"ha":389,"x_min":0,"x_max":0,"o":"m 185 3 b 65 546 -15 39 3 251 b -24 510 25 533 -7 522 b 97 706 -67 538 -118 608 b 72 981 138 924 118 981 b 290 1078 65 1053 206 1093 b 382 814 390 1060 411 992 l 474 847 b 349 643 503 807 521 722 l 332 569 b 385 190 267 285 307 190 b 185 3 400 126 367 -31 "},"m":{"ha":1233,"x_min":0,"x_max":0,"o":"m 958 -60 b 919 507 840 58 1017 450 b 736 358 857 543 778 460 b 769 69 732 213 713 93 b 508 28 732 -18 592 -56 b 476 519 399 138 576 460 b 310 383 425 550 349 465 b 340 72 303 232 269 96 b 26 257 244 -74 -10 -43 b -18 504 50 454 32 499 b 138 697 -36 563 -10 694 b 306 550 238 699 289 629 b 550 697 354 618 439 696 b 733 518 647 699 722 640 b 1067 694 785 629 922 744 b 1219 -18 1317 607 1085 24 b 958 -60 1183 -111 1042 -143 "},"ḿ":{"ha":1233,"x_min":0,"x_max":0,"o":"m 958 -60 b 919 507 840 58 1017 450 b 736 358 857 543 778 460 b 769 69 732 213 713 93 b 508 28 732 -18 592 -56 b 476 519 399 138 576 460 b 310 383 425 550 349 465 b 340 72 303 232 269 96 b 26 257 244 -74 -10 -43 b -18 504 50 454 32 499 b 138 697 -36 563 -10 694 b 306 550 238 699 289 629 b 550 697 354 618 439 696 b 733 518 647 699 722 640 b 1067 694 785 629 922 744 b 1219 -18 1317 607 1085 24 b 958 -60 1183 -111 1042 -143 m 349 808 b 553 917 404 808 461 826 b 885 951 708 1071 829 999 l 649 785 b 349 808 515 690 404 753 "},"ṁ":{"ha":1233,"x_min":0,"x_max":0,"o":"m 958 -60 b 919 507 840 58 1017 450 b 736 358 857 543 778 460 b 769 69 732 213 713 93 b 508 28 732 -18 592 -56 b 476 519 399 138 576 460 b 310 383 425 550 349 465 b 340 72 303 232 269 96 b 26 257 244 -74 -10 -43 b -18 504 50 454 32 499 b 138 697 -36 563 -10 694 b 306 550 238 699 289 629 b 550 697 354 618 439 696 b 733 518 647 699 722 640 b 1067 694 785 629 922 744 b 1219 -18 1317 607 1085 24 b 958 -60 1183 -111 1042 -143 m 490 882 b 617 1008 490 951 547 1008 b 743 882 686 1008 743 951 b 617 754 743 811 686 754 b 490 882 547 754 490 811 "},"ṃ":{"ha":1233,"x_min":0,"x_max":0,"o":"m 958 -60 b 919 507 840 58 1017 450 b 736 358 857 543 778 460 b 769 69 732 213 713 93 b 508 28 732 -18 592 -56 b 476 519 399 138 576 460 b 310 383 425 550 349 465 b 340 72 303 232 269 96 b 26 257 244 -74 -10 -43 b -18 504 50 454 32 499 b 138 697 -36 563 -10 694 b 306 550 238 699 289 629 b 550 697 354 618 439 696 b 733 518 647 699 722 640 b 1067 694 785 629 922 744 b 1219 -18 1317 607 1085 24 b 958 -60 1183 -111 1042 -143 m 490 -172 b 617 -46 490 -103 547 -46 b 743 -172 686 -46 743 -103 b 617 -300 743 -243 686 -300 b 490 -172 547 -300 490 -243 "},"n":{"ha":844,"x_min":0,"x_max":0,"o":"m 539 -31 b 518 518 426 119 660 465 b 297 235 426 553 310 357 b 340 72 285 154 297 86 b 40 297 285 -50 -15 -51 b 3 528 65 454 40 518 b 138 697 -24 615 38 697 b 310 501 235 697 297 636 b 642 694 378 606 488 726 b 819 -4 957 629 660 33 b 539 -31 771 -89 618 -136 "},"ń":{"ha":844,"x_min":0,"x_max":0,"o":"m 539 -31 b 518 518 426 119 660 465 b 297 235 426 553 310 357 b 340 72 285 154 297 86 b 40 297 285 -50 -15 -51 b 3 528 65 454 40 518 b 138 697 -24 615 38 697 b 310 501 235 697 297 636 b 642 694 378 606 488 726 b 819 -4 957 629 660 33 b 539 -31 771 -89 618 -136 m 201 793 b 406 901 257 793 314 811 b 738 936 561 1056 682 983 l 501 769 b 201 793 368 675 257 738 "},"ň":{"ha":844,"x_min":0,"x_max":0,"o":"m 539 -31 b 518 518 426 119 660 465 b 297 235 426 553 310 357 b 340 72 285 154 297 86 b 40 297 285 -50 -15 -51 b 3 528 65 454 40 518 b 138 697 -24 615 38 697 b 310 501 235 697 297 636 b 642 694 378 606 488 726 b 819 -4 957 629 660 33 b 539 -31 771 -89 618 -136 m 214 878 b 467 878 226 944 344 1021 b 728 893 526 933 613 1036 b 457 715 649 861 533 719 b 214 878 381 711 317 878 "},"ṋ":{"ha":844,"x_min":0,"x_max":0,"o":"m 539 -31 b 518 518 426 119 660 465 b 297 235 426 553 310 357 b 340 72 285 154 297 86 b 40 297 285 -50 -15 -51 b 3 528 65 454 40 518 b 138 697 -24 615 38 697 b 310 501 235 697 297 636 b 642 694 378 606 488 726 b 819 -4 957 629 660 33 b 539 -31 771 -89 618 -136 m 110 -224 b 369 -26 189 -192 293 -31 b 624 -208 446 -22 521 -208 b 371 -208 611 -275 493 -351 b 110 -224 311 -264 225 -367 "},"ņ":{"ha":844,"x_min":0,"x_max":0,"o":"m 539 -31 b 518 518 426 119 660 465 b 297 235 426 553 310 357 b 340 72 285 154 297 86 b 40 297 285 -50 -15 -51 b 3 528 65 454 40 518 b 138 697 -24 615 38 697 b 310 501 235 697 297 636 b 642 694 378 606 488 726 b 819 -4 957 629 660 33 b 539 -31 771 -89 618 -136 m 222 -168 b 358 -32 222 -92 285 -32 b 306 -440 585 -32 554 -374 b 357 -301 325 -403 346 -344 b 222 -168 274 -308 222 -233 "},"ṅ":{"ha":844,"x_min":0,"x_max":0,"o":"m 539 -31 b 518 518 426 119 660 465 b 297 235 426 553 310 357 b 340 72 285 154 297 86 b 40 297 285 -50 -15 -51 b 3 528 65 454 40 518 b 138 697 -24 615 38 697 b 310 501 235 697 297 636 b 642 694 378 606 488 726 b 819 -4 957 629 660 33 b 539 -31 771 -89 618 -136 m 343 867 b 469 993 343 936 400 993 b 596 867 539 993 596 936 b 469 739 596 796 539 739 b 343 867 400 739 343 796 "},"ṇ":{"ha":844,"x_min":0,"x_max":0,"o":"m 539 -31 b 518 518 426 119 660 465 b 297 235 426 553 310 357 b 340 72 285 154 297 86 b 40 297 285 -50 -15 -51 b 3 528 65 454 40 518 b 138 697 -24 615 38 697 b 310 501 235 697 297 636 b 642 694 378 606 488 726 b 819 -4 957 629 660 33 b 539 -31 771 -89 618 -136 m 240 -158 b 367 -32 240 -89 297 -32 b 493 -158 436 -32 493 -89 b 367 -286 493 -229 436 -286 b 240 -158 297 -286 240 -229 "},"ṉ":{"ha":844,"x_min":0,"x_max":0,"o":"m 539 -31 b 518 518 426 119 660 465 b 297 235 426 553 310 357 b 340 72 285 154 297 86 b 40 297 285 -50 -15 -51 b 3 528 65 454 40 518 b 138 697 -24 615 38 697 b 310 501 235 697 297 636 b 642 694 378 606 488 726 b 819 -4 957 629 660 33 b 644 -90 789 -58 714 -97 b 425 -239 628 -183 571 -239 b 83 -233 261 -239 150 -217 b 303 -44 78 -150 122 -44 l 550 -44 l 539 -31 "},"ñ":{"ha":844,"x_min":0,"x_max":0,"o":"m 539 -31 b 518 518 426 119 660 465 b 297 235 426 553 310 357 b 340 72 285 154 297 86 b 40 297 285 -50 -15 -51 b 3 528 65 454 40 518 b 138 697 -24 615 38 697 b 310 501 235 697 297 636 b 642 694 378 606 488 726 b 819 -4 957 629 660 33 b 539 -31 771 -89 618 -136 m 278 726 b 539 915 96 876 294 1082 b 629 967 624 857 646 926 b 407 774 840 888 703 581 b 278 726 301 842 272 769 "},"ŋ":{"ha":847,"x_min":0,"x_max":0,"o":"m 539 -267 b 518 518 426 -117 660 465 b 297 235 426 553 310 357 b 340 72 285 154 297 86 b 40 297 285 -50 -17 -54 b 3 528 69 476 40 540 b 138 697 -24 615 38 697 b 310 488 235 697 313 622 b 642 694 378 592 488 724 b 819 -240 986 631 660 -203 b 539 -267 771 -325 618 -372 "},"o":{"ha":764,"x_min":0,"x_max":0,"o":"m 338 -8 b 119 669 -67 -8 -83 503 b 375 571 246 774 385 714 b 439 207 167 522 203 163 b 590 442 565 231 596 351 b 413 646 468 424 349 539 b 635 619 461 728 582 696 b 726 714 683 622 714 657 b 683 458 850 714 850 492 b 338 -8 735 257 608 -8 "},"ó":{"ha":764,"x_min":0,"x_max":0,"o":"m 338 -8 b 119 669 -67 -8 -83 503 b 375 571 246 774 385 714 b 439 207 167 522 203 163 b 590 442 565 231 596 351 b 413 646 468 424 349 539 b 635 619 461 728 582 696 b 726 714 683 622 714 657 b 683 458 850 714 850 492 b 338 -8 735 257 608 -8 m 128 836 b 332 944 183 836 240 854 b 664 979 488 1099 608 1026 l 428 813 b 128 836 294 718 183 781 "},"ǒ":{"ha":764,"x_min":0,"x_max":0,"o":"m 338 -8 b 119 669 -67 -8 -83 503 b 375 571 246 774 385 714 b 439 207 167 522 203 163 b 590 442 565 231 596 351 b 413 646 468 424 349 539 b 635 619 461 728 582 696 b 726 714 683 622 714 657 b 683 458 850 714 850 492 b 338 -8 735 257 608 -8 m 140 921 b 393 921 153 988 271 1064 b 654 936 453 976 539 1079 b 383 758 575 904 460 763 b 140 921 307 754 243 921 "},"ô":{"ha":764,"x_min":0,"x_max":0,"o":"m 338 -8 b 119 669 -67 -8 -83 503 b 375 571 246 774 385 714 b 439 207 167 522 203 163 b 590 442 565 231 596 351 b 413 646 468 424 349 539 b 635 619 461 728 582 696 b 726 714 683 622 714 657 b 683 458 850 714 850 492 b 338 -8 735 257 608 -8 m 139 817 b 399 1014 218 849 322 1010 b 653 832 475 1018 550 832 b 400 832 640 765 522 689 b 139 817 340 776 254 674 "},"ố":{"ha":764,"x_min":0,"x_max":0,"o":"m 338 -8 b 119 669 -67 -8 -83 503 b 375 571 246 774 385 714 b 439 207 167 522 203 163 b 590 442 565 231 596 351 b 413 646 468 424 349 539 b 635 619 461 728 582 696 b 726 714 683 622 714 657 b 683 458 850 714 850 492 b 338 -8 735 257 608 -8 m 128 1094 b 332 1203 183 1094 240 1113 b 664 1238 488 1357 608 1285 l 428 1071 b 128 1094 294 976 183 1039 m 139 817 b 399 1014 218 849 322 1010 b 653 832 475 1018 550 832 b 400 832 640 765 522 689 b 139 817 340 776 254 674 "},"ộ":{"ha":764,"x_min":0,"x_max":0,"o":"m 338 -8 b 119 669 -67 -8 -83 503 b 375 571 246 774 385 714 b 439 207 167 522 203 163 b 590 442 565 231 596 351 b 413 646 468 424 349 539 b 635 619 461 728 582 696 b 726 714 683 622 714 657 b 683 458 850 714 850 492 b 338 -8 735 257 608 -8 m 139 817 b 399 1014 218 849 322 1010 b 653 832 475 1018 550 832 b 400 832 640 765 522 689 b 139 817 340 776 254 674 m 183 -172 b 310 -46 183 -103 240 -46 b 436 -172 379 -46 436 -103 b 310 -300 436 -243 379 -300 b 183 -172 240 -300 183 -243 "},"ồ":{"ha":764,"x_min":0,"x_max":0,"o":"m 338 -8 b 119 669 -67 -8 -83 503 b 375 571 246 774 385 714 b 439 207 167 522 203 163 b 590 442 565 231 596 351 b 413 646 468 424 349 539 b 635 619 461 728 582 696 b 726 714 683 622 714 657 b 683 458 850 714 850 492 b 338 -8 735 257 608 -8 m 114 1229 b 447 1194 210 1300 307 1349 b 650 1086 526 1107 597 1093 b 351 1063 621 1031 515 963 b 114 1229 224 1140 165 1189 m 139 817 b 399 1014 218 849 322 1010 b 653 832 475 1018 550 832 b 400 832 640 765 522 689 b 139 817 340 776 254 674 "},"ổ":{"ha":764,"x_min":0,"x_max":0,"o":"m 338 -8 b 119 669 -67 -8 -83 503 b 375 571 246 774 385 714 b 439 207 167 522 203 163 b 590 442 565 231 596 351 b 413 646 468 424 349 539 b 635 619 461 728 582 696 b 726 714 683 622 714 657 b 683 458 850 714 850 492 b 338 -8 735 257 608 -8 m 139 817 b 371 1007 208 844 299 975 l 339 1008 b 232 1107 489 1075 349 1181 b 539 1196 232 1238 449 1304 b 426 1008 590 1133 543 1060 b 653 832 493 976 563 832 b 400 832 640 765 522 689 b 139 817 340 776 254 674 "},"ỗ":{"ha":764,"x_min":0,"x_max":0,"o":"m 338 -8 b 119 669 -67 -8 -83 503 b 375 571 246 774 385 714 b 439 207 167 522 203 163 b 590 442 565 231 596 351 b 413 646 468 424 349 539 b 635 619 461 728 582 696 b 726 714 683 622 714 657 b 683 458 850 714 850 492 b 338 -8 735 257 608 -8 m 139 817 b 399 1014 218 849 322 1010 b 653 832 475 1018 550 832 b 400 832 640 765 522 689 b 139 817 340 776 254 674 m 204 1028 b 465 1217 22 1178 221 1383 b 556 1268 550 1158 572 1228 b 333 1075 767 1189 629 882 b 204 1028 228 1143 199 1071 "},"ö":{"ha":764,"x_min":0,"x_max":0,"o":"m 338 -8 b 119 669 -67 -8 -83 503 b 375 571 246 774 385 714 b 439 207 167 522 203 163 b 590 442 565 231 596 351 b 413 646 468 424 349 539 b 635 619 461 728 582 696 b 726 714 683 622 714 657 b 683 458 850 714 850 492 b 338 -8 735 257 608 -8 m 107 906 b 238 1036 107 978 165 1036 b 368 906 308 1036 368 978 b 238 775 368 833 308 775 b 107 906 165 775 107 833 m 424 906 b 554 1036 424 978 483 1036 b 685 906 626 1036 685 978 b 554 775 685 833 626 775 b 424 906 483 775 424 833 "},"ȫ":{"ha":764,"x_min":0,"x_max":0,"o":"m 338 -8 b 119 669 -67 -8 -83 503 b 375 571 246 774 385 714 b 439 207 167 522 203 163 b 590 442 565 231 596 351 b 413 646 468 424 349 539 b 635 619 461 728 582 696 b 726 714 683 622 714 657 b 683 458 850 714 850 492 b 338 -8 735 257 608 -8 m 107 906 b 238 1036 107 978 165 1036 b 368 906 308 1036 368 978 b 238 775 368 833 308 775 b 107 906 165 775 107 833 m 113 1118 b 332 1307 107 1201 151 1307 l 679 1307 b 454 1113 672 1186 622 1113 b 113 1118 290 1113 179 1135 m 424 906 b 554 1036 424 978 483 1036 b 685 906 626 1036 685 978 b 554 775 685 833 626 775 b 424 906 483 775 424 833 "},"ọ":{"ha":764,"x_min":0,"x_max":0,"o":"m 338 -8 b 119 669 -67 -8 -83 503 b 375 571 246 774 385 714 b 439 207 167 522 203 163 b 590 442 565 231 596 351 b 413 646 468 424 349 539 b 635 619 461 728 582 696 b 726 714 683 622 714 657 b 683 458 850 714 850 492 b 338 -8 735 257 608 -8 m 183 -172 b 310 -46 183 -103 240 -46 b 436 -172 379 -46 436 -103 b 310 -300 436 -243 379 -300 b 183 -172 240 -300 183 -243 "},"ò":{"ha":764,"x_min":0,"x_max":0,"o":"m 338 -8 b 119 669 -67 -8 -83 503 b 375 571 246 774 385 714 b 439 207 167 522 203 163 b 590 442 565 231 596 351 b 413 646 468 424 349 539 b 635 619 461 728 582 696 b 726 714 683 622 714 657 b 683 458 850 714 850 492 b 338 -8 735 257 608 -8 m 114 971 b 447 936 210 1042 307 1090 b 650 828 526 849 597 835 b 351 804 621 772 515 704 b 114 971 224 882 165 931 "},"ỏ":{"ha":764,"x_min":0,"x_max":0,"o":"m 338 -8 b 119 669 -67 -8 -83 503 b 375 571 246 774 385 714 b 439 207 167 522 203 163 b 590 442 565 231 596 351 b 413 646 468 424 349 539 b 635 619 461 728 582 696 b 726 714 683 622 714 657 b 683 458 850 714 850 492 b 338 -8 735 257 608 -8 m 232 910 b 539 1040 232 1103 449 1201 b 418 756 592 946 540 835 l 339 763 b 232 910 489 863 349 1019 "},"ơ":{"ha":764,"x_min":0,"x_max":0,"o":"m 338 -8 b 119 669 -67 -8 -83 503 b 375 571 246 774 385 714 b 439 207 167 522 203 163 b 590 442 565 231 596 351 b 413 646 468 424 349 539 b 635 619 461 728 582 696 b 707 663 667 621 690 636 b 689 785 719 694 717 735 b 896 607 824 857 964 760 b 768 503 872 554 826 521 b 683 458 747 482 719 465 b 338 -8 735 257 608 -8 "},"ớ":{"ha":764,"x_min":0,"x_max":0,"o":"m 338 -8 b 119 669 -67 -8 -83 503 b 375 571 246 774 385 714 b 439 207 167 522 203 163 b 590 442 565 231 596 351 b 413 646 468 424 349 539 b 635 619 461 728 582 696 b 707 663 667 621 690 636 b 689 785 719 694 717 735 b 896 607 824 857 964 760 b 768 503 872 554 826 521 b 683 458 747 482 719 465 b 338 -8 735 257 608 -8 m 128 836 b 332 944 183 836 240 854 b 664 979 488 1099 608 1026 l 428 813 b 128 836 294 718 183 781 "},"ợ":{"ha":764,"x_min":0,"x_max":0,"o":"m 338 -8 b 119 669 -67 -8 -83 503 b 375 571 246 774 385 714 b 439 207 167 522 203 163 b 590 442 565 231 596 351 b 413 646 468 424 349 539 b 635 619 461 728 582 696 b 707 663 667 621 690 636 b 689 785 719 694 717 735 b 896 607 824 857 964 760 b 768 503 872 554 826 521 b 683 458 747 482 719 465 b 338 -8 735 257 608 -8 m 183 -172 b 310 -46 183 -103 240 -46 b 436 -172 379 -46 436 -103 b 310 -300 436 -243 379 -300 b 183 -172 240 -300 183 -243 "},"ờ":{"ha":764,"x_min":0,"x_max":0,"o":"m 338 -8 b 119 669 -67 -8 -83 503 b 375 571 246 774 385 714 b 439 207 167 522 203 163 b 590 442 565 231 596 351 b 413 646 468 424 349 539 b 635 619 461 728 582 696 b 707 663 667 621 690 636 b 689 785 719 694 717 735 b 896 607 824 857 964 760 b 768 503 872 554 826 521 b 683 458 747 482 719 465 b 338 -8 735 257 608 -8 m 114 971 b 447 936 210 1042 307 1090 b 650 828 526 849 597 835 b 351 804 621 772 515 704 b 114 971 224 882 165 931 "},"ở":{"ha":764,"x_min":0,"x_max":0,"o":"m 338 -8 b 119 669 -67 -8 -83 503 b 375 571 246 774 385 714 b 439 207 167 522 203 163 b 590 442 565 231 596 351 b 413 646 468 424 349 539 b 635 619 461 728 582 696 b 707 663 667 621 690 636 b 689 785 719 694 717 735 b 896 607 824 857 964 760 b 768 503 872 554 826 521 b 683 458 747 482 719 465 b 338 -8 735 257 608 -8 m 232 910 b 539 1040 232 1103 449 1201 b 418 756 592 946 540 835 l 339 763 b 232 910 489 863 349 1019 "},"ỡ":{"ha":764,"x_min":0,"x_max":0,"o":"m 338 -8 b 119 669 -67 -8 -83 503 b 375 571 246 774 385 714 b 439 207 167 522 203 163 b 590 442 565 231 596 351 b 413 646 468 424 349 539 b 635 619 461 728 582 696 b 707 663 667 621 690 636 b 689 785 719 694 717 735 b 896 607 824 857 964 760 b 768 503 872 554 826 521 b 683 458 747 482 719 465 b 338 -8 735 257 608 -8 m 204 769 b 465 958 22 919 221 1125 b 556 1010 550 900 572 969 b 333 817 767 931 629 624 b 204 769 228 885 199 813 "},"ő":{"ha":764,"x_min":0,"x_max":0,"o":"m 338 -8 b 119 669 -67 -8 -83 503 b 375 571 246 774 385 714 b 439 207 167 522 203 163 b 590 442 565 231 596 351 b 413 646 468 424 349 539 b 635 619 461 728 582 696 b 726 714 683 622 714 657 b 683 458 850 714 850 492 b 338 -8 735 257 608 -8 m 100 846 b 236 950 138 846 175 863 b 457 983 339 1097 419 1028 l 300 824 b 100 846 211 733 138 793 m 335 846 b 471 950 372 846 410 863 b 692 983 574 1097 654 1028 l 535 824 b 335 846 446 733 372 793 "},"ō":{"ha":764,"x_min":0,"x_max":0,"o":"m 338 -8 b 119 669 -67 -8 -83 503 b 375 571 246 774 385 714 b 439 207 167 522 203 163 b 590 442 565 231 596 351 b 413 646 468 424 349 539 b 635 619 461 728 582 696 b 726 714 683 622 714 657 b 683 458 850 714 850 492 b 338 -8 735 257 608 -8 m 113 804 b 332 993 107 888 151 993 l 679 993 b 454 799 672 872 622 799 b 113 804 290 799 179 821 "},"ṓ":{"ha":764,"x_min":0,"x_max":0,"o":"m 338 -8 b 119 669 -67 -8 -83 503 b 375 571 246 774 385 714 b 439 207 167 522 203 163 b 590 442 565 231 596 351 b 413 646 468 424 349 539 b 635 619 461 728 582 696 b 726 714 683 622 714 657 b 683 458 850 714 850 492 b 338 -8 735 257 608 -8 m 113 804 b 332 993 107 888 151 993 l 679 993 b 454 799 672 872 622 799 b 113 804 290 799 179 821 m 128 1101 b 332 1210 183 1101 240 1119 b 664 1244 488 1364 608 1292 l 428 1078 b 128 1101 294 983 183 1046 "},"ṑ":{"ha":764,"x_min":0,"x_max":0,"o":"m 338 -8 b 119 669 -67 -8 -83 503 b 375 571 246 774 385 714 b 439 207 167 522 203 163 b 590 442 565 231 596 351 b 413 646 468 424 349 539 b 635 619 461 728 582 696 b 726 714 683 622 714 657 b 683 458 850 714 850 492 b 338 -8 735 257 608 -8 m 113 804 b 332 993 107 888 151 993 l 679 993 b 454 799 672 872 622 799 b 113 804 290 799 179 821 m 114 1236 b 447 1201 210 1307 307 1356 b 650 1093 526 1114 597 1100 b 351 1069 621 1038 515 969 b 114 1236 224 1147 165 1196 "},"ɔ":{"ha":614,"x_min":0,"x_max":0,"o":"m 250 -8 b 104 286 3 10 -26 247 b 276 218 125 224 182 193 b 258 519 415 254 401 519 b 225 429 192 519 201 443 b 14 521 182 356 22 363 b 604 428 1 771 544 829 b 250 -8 644 160 501 -26 "},"ø":{"ha":764,"x_min":0,"x_max":0,"o":"m 338 -8 b 244 1 304 -8 272 -4 b 186 -129 201 -69 188 -106 b 140 46 150 -131 99 -99 b 119 669 -64 183 -43 536 b 375 571 246 774 385 714 b 254 304 251 542 214 403 b 294 375 267 326 279 350 b 400 549 333 440 369 499 b 413 646 390 579 393 613 b 489 693 431 676 458 692 b 561 840 524 751 549 799 b 638 619 606 824 689 774 b 726 714 685 624 714 658 b 683 458 850 714 850 492 b 338 -8 735 257 608 -8 m 376 204 b 439 207 394 203 417 203 b 590 442 565 231 596 351 b 543 442 574 439 558 439 l 521 410 b 376 204 464 331 415 263 "},"ǿ":{"ha":764,"x_min":0,"x_max":0,"o":"m 338 -8 b 244 1 304 -8 272 -4 b 186 -129 201 -69 188 -106 b 140 46 150 -131 99 -99 b 119 669 -64 183 -43 536 b 375 571 246 774 385 714 b 254 304 251 542 214 403 b 294 375 267 326 279 350 b 400 549 333 440 369 499 b 413 646 390 579 393 613 b 489 693 431 676 458 692 b 561 840 524 751 549 799 b 638 619 606 824 689 774 b 726 714 685 624 714 658 b 683 458 850 714 850 492 b 338 -8 735 257 608 -8 m 128 836 b 332 944 183 836 240 854 b 664 979 488 1099 608 1026 l 428 813 b 128 836 294 718 183 781 m 376 204 b 439 207 394 203 417 203 b 590 442 565 231 596 351 b 543 442 574 439 558 439 l 521 410 b 376 204 464 331 415 263 "},"õ":{"ha":764,"x_min":0,"x_max":0,"o":"m 338 -8 b 119 669 -67 -8 -83 503 b 375 571 246 774 385 714 b 439 207 167 522 203 163 b 590 442 565 231 596 351 b 413 646 468 424 349 539 b 635 619 461 728 582 696 b 726 714 683 622 714 657 b 683 458 850 714 850 492 b 338 -8 735 257 608 -8 m 204 769 b 465 958 22 919 221 1125 b 556 1010 550 900 572 969 b 333 817 767 931 629 624 b 204 769 228 885 199 813 "},"ṍ":{"ha":764,"x_min":0,"x_max":0,"o":"m 338 -8 b 119 669 -67 -8 -83 503 b 375 571 246 774 385 714 b 439 207 167 522 203 163 b 590 442 565 231 596 351 b 413 646 468 424 349 539 b 635 619 461 728 582 696 b 726 714 683 622 714 657 b 683 458 850 714 850 492 b 338 -8 735 257 608 -8 m 128 1129 b 332 1238 183 1129 240 1147 b 664 1272 488 1392 608 1319 l 428 1106 b 128 1129 294 1011 183 1074 m 204 769 b 465 958 22 919 221 1125 b 556 1010 550 900 572 969 b 333 817 767 931 629 624 b 204 769 228 885 199 813 "},"œ":{"ha":1226,"x_min":0,"x_max":0,"o":"m 338 -8 b 119 669 -67 -8 -83 503 b 375 571 246 774 385 714 b 439 207 167 522 199 186 b 582 343 518 214 575 283 b 457 646 439 431 382 576 b 664 554 532 717 622 674 b 957 703 724 642 822 703 b 851 256 1269 703 1289 229 b 985 203 871 226 915 203 b 1163 264 1044 203 1128 226 b 924 -3 1246 175 1183 -3 b 635 156 781 -3 685 64 b 338 -8 576 61 476 -8 m 833 350 b 974 531 1086 372 1069 531 b 833 350 861 531 819 438 "},"p":{"ha":803,"x_min":0,"x_max":0,"o":"m 293 -321 b -3 -297 231 -403 56 -411 b 44 221 -43 -217 -1 -60 b 11 531 94 526 43 531 b 132 717 -21 599 22 710 b 307 544 246 724 296 643 b 554 694 346 626 438 706 b 526 0 888 663 779 40 b 303 93 410 -18 329 36 b 293 -321 276 -128 242 -294 m 317 247 b 424 160 328 208 357 140 b 460 518 522 188 576 488 b 321 364 381 539 339 439 l 317 247 "}}}
